<svg width="40" height="40" viewBox="0 0 40 40" fill="none" xmlns="http://www.w3.org/2000/svg">
<rect width="40" height="40" rx="10" fill="#14B8A6"/>
<path d="M25.144 15C24.6698 15 24.288 15.3711 24.288 15.832V24.1641C24.288 26.4648 22.3711 28.332 20 28.332C17.6289 28.332 15.712 26.4648 15.712 24.1641V14.1641C15.712 12.7852 16.8614 11.6641 18.284 11.6641C19.7066 11.6641 20.856 12.7852 20.856 14.1641V22.5C20.856 22.9609 20.4702 23.332 20 23.332C19.5298 23.332 19.144 22.9609 19.144 22.5V15.832C19.144 15.3711 18.7582 15 18.288 15C17.8138 15 17.432 15.3711 17.432 15.832V22.5C17.432 23.8828 18.5814 25 20.004 25C21.4267 25 22.576 23.8828 22.576 22.5V14.168C22.572 11.8672 20.651 10 18.284 10C15.9169 10 14 11.8672 14 14.168V24.168C14 27.3906 16.6885 30 20 30C23.3115 30 26 27.3867 26 24.168V15.832C26 15.3711 25.6182 15 25.144 15Z" fill="white"/>
</svg>
