<svg width="22" height="22" viewBox="0 0 22 22" fill="none" xmlns="http://www.w3.org/2000/svg">
<path d="M6.49056 15.5095C4.16565 13.18 2.37769 10.3708 1.25175 7.27827C0.632307 5.58749 1.19986 3.73023 2.47335 2.45674L3.26144 1.66973C3.47331 1.45743 3.72498 1.289 4.00203 1.17407C4.27907 1.05915 4.57606 1 4.876 1C5.17594 1 5.47293 1.05915 5.74998 1.17407C6.02703 1.289 6.27869 1.45743 6.49056 1.66973L8.33593 3.5151C8.54823 3.72697 8.71666 3.97863 8.83158 4.25568C8.9465 4.53273 9.00566 4.82972 9.00566 5.12966C9.00566 5.4296 8.9465 5.72659 8.83158 6.00364C8.71666 6.28069 8.54823 6.53235 8.33593 6.74422L7.88189 7.19827C7.70014 7.37997 7.55597 7.5957 7.45761 7.83312C7.35925 8.07055 7.30863 8.32503 7.30863 8.58202C7.30863 8.83902 7.35925 9.0935 7.45761 9.33092C7.55597 9.56835 7.70014 9.78408 7.88189 9.96578L12.0332 14.1181C12.2149 14.2999 12.4306 14.444 12.668 14.5424C12.9054 14.6408 13.1599 14.6914 13.4169 14.6914C13.6739 14.6914 13.9284 14.6408 14.1658 14.5424C14.4032 14.444 14.619 14.2999 14.8007 14.1181L15.2558 13.6641C15.4677 13.4518 15.7193 13.2834 15.9964 13.1684C16.2734 13.0535 16.5704 12.9944 16.8703 12.9944C17.1703 12.9944 17.4673 13.0535 17.7443 13.1684C18.0214 13.2834 18.273 13.4518 18.4849 13.6641L20.3303 15.5095C20.5426 15.7213 20.711 15.973 20.8259 16.25C20.9408 16.5271 21 16.8241 21 17.124C21 17.424 20.9408 17.7209 20.8259 17.998C20.711 18.275 20.5426 18.5267 20.3303 18.7386L19.5433 19.5256C18.2698 20.8002 16.4125 21.3677 14.7217 20.7483C11.6292 19.6223 8.81999 17.8344 6.49056 15.5095Z" stroke="black" stroke-width="1.5" stroke-linejoin="round"/>
</svg>
