<svg width="30" height="30" viewBox="0 0 30 30" fill="none" xmlns="http://www.w3.org/2000/svg">
<path fill-rule="evenodd" clip-rule="evenodd" d="M6.24985 11.25C6.24985 8.92936 7.17172 6.70376 8.81267 5.06282C10.4536 3.42187 12.6792 2.5 14.9999 2.5C17.3205 2.5 19.5461 3.42187 21.187 5.06282C22.828 6.70376 23.7499 8.92936 23.7499 11.25V15.955L26.0274 20.51C26.1322 20.7197 26.1817 20.9526 26.1712 21.1868C26.1606 21.421 26.0904 21.6485 25.9672 21.8479C25.8439 22.0473 25.6718 22.2119 25.467 22.326C25.2623 22.4401 25.0318 22.5 24.7974 22.5H19.8424C19.5643 23.5728 18.9379 24.5229 18.0614 25.2012C17.185 25.8794 16.1081 26.2474 14.9999 26.2474C13.8916 26.2474 12.8147 25.8794 11.9383 25.2012C11.0618 24.5229 10.4354 23.5728 10.1574 22.5H5.20235C4.96795 22.5 4.73743 22.4401 4.53269 22.326C4.32794 22.2119 4.15577 22.0473 4.03253 21.8479C3.90929 21.6485 3.83907 21.421 3.82854 21.1868C3.818 20.9526 3.86751 20.7197 3.97235 20.51L6.24985 15.955V11.25ZM12.8349 22.5C13.0543 22.88 13.3699 23.1956 13.7499 23.415C14.1299 23.6344 14.561 23.7499 14.9999 23.7499C15.4387 23.7499 15.8698 23.6344 16.2498 23.415C16.6298 23.1956 16.9454 22.88 17.1649 22.5H12.8349ZM14.9999 5C13.3422 5 11.7525 5.65848 10.5804 6.83058C9.40833 8.00269 8.74985 9.5924 8.74985 11.25V15.955C8.74983 16.3429 8.65953 16.7255 8.4861 17.0725L7.0236 20H22.9774L21.5149 17.0725C21.341 16.7256 21.2503 16.343 21.2499 15.955V11.25C21.2499 9.5924 20.5914 8.00269 19.4193 6.83058C18.2472 5.65848 16.6575 5 14.9999 5Z" fill="black"/>
</svg>
