<svg width="26" height="26" viewBox="0 0 26 26" fill="none" xmlns="http://www.w3.org/2000/svg">
<path d="M7.96256 10.3575H18.0376M7.96256 15.6425H15.1476M13.0001 24.5625C15.5118 24.562 17.955 23.7436 19.9603 22.231C21.9656 20.7185 23.4238 18.5942 24.1144 16.1792C24.805 13.7643 24.6905 11.1902 23.7882 8.84613C22.8858 6.50208 21.2447 4.51561 19.113 3.18714C16.9814 1.85867 14.4751 1.26046 11.9733 1.48297C9.47139 1.70549 7.11003 2.73663 5.24628 4.42044C3.38254 6.10426 2.11777 8.34918 1.64327 10.8157C1.16877 13.2822 1.51033 15.8361 2.61631 18.0913C2.75131 18.3663 2.79631 18.6763 2.72756 18.9738L1.70756 23.3938C1.6788 23.5178 1.6821 23.6471 1.71714 23.7695C1.75219 23.892 1.81782 24.0034 1.90785 24.0935C1.99789 24.1835 2.10937 24.2491 2.23178 24.2842C2.3542 24.3192 2.48352 24.3225 2.60756 24.2938L7.02631 23.2725C7.32465 23.2072 7.6364 23.2469 7.90881 23.385C9.49305 24.163 11.2351 24.5659 13.0001 24.5625Z" stroke="black" stroke-width="1.875" stroke-linecap="round" stroke-linejoin="round"/>
</svg>
