<svg width="20" height="20" viewBox="0 0 20 20" fill="none" xmlns="http://www.w3.org/2000/svg">
<path d="M8.33341 5.83329C8.33341 6.27532 8.50901 6.69924 8.82157 7.0118C9.13413 7.32436 9.55805 7.49996 10.0001 7.49996C10.4421 7.49996 10.866 7.32436 11.1786 7.0118C11.4912 6.69924 11.6667 6.27532 11.6667 5.83329C11.6667 5.39127 11.4912 4.96734 11.1786 4.65478C10.866 4.34222 10.4421 4.16663 10.0001 4.16663C9.55805 4.16663 9.13413 4.34222 8.82157 4.65478C8.50901 4.96734 8.33341 5.39127 8.33341 5.83329ZM10.0001 11.6666C9.55805 11.6666 9.13413 11.491 8.82157 11.1785C8.50901 10.8659 8.33341 10.442 8.33341 9.99996C8.33341 9.55793 8.50901 9.13401 8.82157 8.82145C9.13413 8.50889 9.55805 8.33329 10.0001 8.33329C10.4421 8.33329 10.866 8.50889 11.1786 8.82145C11.4912 9.13401 11.6667 9.55793 11.6667 9.99996C11.6667 10.442 11.4912 10.8659 11.1786 11.1785C10.866 11.491 10.4421 11.6666 10.0001 11.6666ZM8.33341 14.1666C8.33341 14.6087 8.50901 15.0326 8.82157 15.3451C9.13413 15.6577 9.55805 15.8333 10.0001 15.8333C10.4421 15.8333 10.866 15.6577 11.1786 15.3451C11.4912 15.0326 11.6667 14.6087 11.6667 14.1666C11.6667 13.7246 11.4912 13.3007 11.1786 12.9881C10.866 12.6756 10.4421 12.5 10.0001 12.5C9.55805 12.5 9.13413 12.6756 8.82157 12.9881C8.50901 13.3007 8.33341 13.7246 8.33341 14.1666Z" fill="black"/>
<path fill-rule="evenodd" clip-rule="evenodd" d="M10 20C4.4775 20 0 15.5225 0 10C0 4.4775 4.4775 0 10 0C15.5225 0 20 4.4775 20 10C20 15.5225 15.5225 20 10 20ZM10 18.3333C5.3975 18.3333 1.66667 14.6025 1.66667 10C1.66667 5.3975 5.3975 1.66667 10 1.66667C14.6025 1.66667 18.3333 5.3975 18.3333 10C18.3333 14.6025 14.6025 18.3333 10 18.3333Z" fill="black"/>
</svg>
