<svg width="22" height="20" viewBox="0 0 22 20" fill="none" xmlns="http://www.w3.org/2000/svg">
<path d="M12.6912 0.967272C12.1773 0.669659 11.5939 0.512939 11 0.512939C10.4061 0.512939 9.82271 0.669659 9.30875 0.967272L2.18375 5.09227C1.67151 5.38889 1.24628 5.81502 0.950749 6.32789C0.655216 6.84077 0.499767 7.42234 0.5 8.01427V15.875C0.5 16.7701 0.85558 17.6286 1.48851 18.2615C2.12145 18.8944 2.97989 19.25 3.875 19.25H18.125C19.0201 19.25 19.8785 18.8944 20.5115 18.2615C21.1444 17.6286 21.5 16.7701 21.5 15.875V8.01352C21.5 7.42185 21.3444 6.84058 21.0489 6.32799C20.7534 5.81541 20.3283 5.38952 19.8162 5.09302L12.6912 0.967272ZM10.0602 2.26552C10.3458 2.10012 10.67 2.01302 11 2.01302C11.33 2.01302 11.6542 2.10012 11.9398 2.26552L19.0648 6.39052C19.3175 6.53677 19.5275 6.73702 19.6842 6.97177L11 11.648L2.31575 6.97252C2.47325 6.73777 2.68325 6.53752 2.93525 6.39127L10.0602 2.26552ZM2 8.50552L10.6445 13.1608C10.7538 13.2196 10.8759 13.2504 11 13.2504C11.1241 13.2504 11.2462 13.2196 11.3555 13.1608L20 8.50552V15.875C20 16.3723 19.8025 16.8492 19.4508 17.2008C19.0992 17.5525 18.6223 17.75 18.125 17.75H3.875C3.37772 17.75 2.90081 17.5525 2.54918 17.2008C2.19754 16.8492 2 16.3723 2 15.875V8.50552Z" fill="black"/>
</svg>
