<svg width="30" height="24" viewBox="0 0 30 24" fill="none" xmlns="http://www.w3.org/2000/svg">
<path d="M27.0996 7.07812C27.5391 7.32227 27.9395 7.62012 28.3008 7.97168C28.6621 8.32324 28.9648 8.71387 29.209 9.14355C29.4531 9.57324 29.6484 10.0273 29.7949 10.5059C29.9414 10.9844 30.0098 11.4824 30 12H28.125C28.125 11.4922 28.0273 11.0088 27.832 10.5498C27.6367 10.0908 27.3682 9.69531 27.0264 9.36328C26.6846 9.03125 26.2842 8.7627 25.8252 8.55762C25.3662 8.35254 24.8828 8.25 24.375 8.25C23.8574 8.25 23.374 8.34766 22.9248 8.54297C22.4756 8.73828 22.0801 9.00684 21.7383 9.34863C21.3965 9.69043 21.1279 10.0908 20.9326 10.5498C20.7373 11.0088 20.6348 11.4922 20.625 12C20.625 12.8887 20.4248 13.7334 20.0244 14.5342C19.624 15.335 19.0625 15.999 18.3398 16.5264C18.9746 16.8486 19.5459 17.2441 20.0537 17.7129C20.5615 18.1816 21.001 18.709 21.3721 19.2949C21.7432 19.8809 22.0215 20.5059 22.207 21.1699C22.3926 21.834 22.4902 22.5273 22.5 23.25H20.625C20.625 22.4785 20.4785 21.751 20.1855 21.0674C19.8926 20.3838 19.4873 19.7881 18.9697 19.2803C18.4521 18.7725 17.8564 18.3721 17.1826 18.0791C16.5088 17.7861 15.7812 17.6348 15 17.625C14.2285 17.625 13.501 17.7715 12.8174 18.0645C12.1338 18.3574 11.5381 18.7627 11.0303 19.2803C10.5225 19.7979 10.1221 20.3936 9.8291 21.0674C9.53613 21.7412 9.38477 22.4688 9.375 23.25H7.5C7.5 22.5371 7.59766 21.8486 7.79297 21.1846C7.98828 20.5205 8.2666 19.8955 8.62793 19.3096C8.98926 18.7236 9.42383 18.1963 9.93164 17.7275C10.4395 17.2588 11.0156 16.8584 11.6602 16.5264C10.9473 15.999 10.3906 15.335 9.99023 14.5342C9.58984 13.7334 9.38477 12.8887 9.375 12C9.375 11.4922 9.27734 11.0088 9.08203 10.5498C8.88672 10.0908 8.61816 9.69531 8.27637 9.36328C7.93457 9.03125 7.53418 8.7627 7.0752 8.55762C6.61621 8.35254 6.13281 8.25 5.625 8.25C5.10742 8.25 4.62402 8.34766 4.1748 8.54297C3.72559 8.73828 3.33008 9.00684 2.98828 9.34863C2.64648 9.69043 2.37793 10.0908 2.18262 10.5498C1.9873 11.0088 1.88477 11.4922 1.875 12H0C0 11.4922 0.0683594 10.999 0.205078 10.5205C0.341797 10.042 0.532227 9.58789 0.776367 9.1582C1.02051 8.72852 1.32812 8.33789 1.69922 7.98633C2.07031 7.63477 2.4707 7.33203 2.90039 7.07812C2.57812 6.73633 2.3291 6.34082 2.15332 5.8916C1.97754 5.44238 1.88477 4.97852 1.875 4.5C1.875 3.99219 1.97266 3.50879 2.16797 3.0498C2.36328 2.59082 2.63184 2.19531 2.97363 1.86328C3.31543 1.53125 3.71094 1.2627 4.16016 1.05762C4.60938 0.852539 5.09766 0.75 5.625 0.75C6.13281 0.75 6.61621 0.847656 7.0752 1.04297C7.53418 1.23828 7.92969 1.50684 8.26172 1.84863C8.59375 2.19043 8.8623 2.59082 9.06738 3.0498C9.27246 3.50879 9.375 3.99219 9.375 4.5C9.375 4.97852 9.28711 5.44238 9.11133 5.8916C8.93555 6.34082 8.68164 6.73633 8.34961 7.07812C9.15039 7.51758 9.80469 8.12305 10.3125 8.89453C10.8398 8.11328 11.5137 7.49805 12.334 7.04883C13.1543 6.59961 14.043 6.375 15 6.375C15.9473 6.375 16.8311 6.59961 17.6514 7.04883C18.4717 7.49805 19.1504 8.11328 19.6875 8.89453C20.1953 8.12305 20.8496 7.51758 21.6504 7.07812C21.3281 6.73633 21.0791 6.34082 20.9033 5.8916C20.7275 5.44238 20.6348 4.97852 20.625 4.5C20.625 3.99219 20.7227 3.50879 20.918 3.0498C21.1133 2.59082 21.3818 2.19531 21.7236 1.86328C22.0654 1.53125 22.4609 1.2627 22.9102 1.05762C23.3594 0.852539 23.8477 0.75 24.375 0.75C24.8828 0.75 25.3662 0.847656 25.8252 1.04297C26.2842 1.23828 26.6797 1.50684 27.0117 1.84863C27.3438 2.19043 27.6123 2.59082 27.8174 3.0498C28.0225 3.50879 28.125 3.99219 28.125 4.5C28.125 4.97852 28.0371 5.44238 27.8613 5.8916C27.6855 6.34082 27.4316 6.73633 27.0996 7.07812ZM3.75 4.5C3.75 4.76367 3.79883 5.00781 3.89648 5.23242C3.99414 5.45703 4.12598 5.65234 4.29199 5.81836C4.45801 5.98438 4.6582 6.12109 4.89258 6.22852C5.12695 6.33594 5.37109 6.38477 5.625 6.375C5.88867 6.375 6.13281 6.32617 6.35742 6.22852C6.58203 6.13086 6.77734 5.99902 6.94336 5.83301C7.10938 5.66699 7.24609 5.4668 7.35352 5.23242C7.46094 4.99805 7.50977 4.75391 7.5 4.5C7.5 4.23633 7.45117 3.99219 7.35352 3.76758C7.25586 3.54297 7.12402 3.34766 6.95801 3.18164C6.79199 3.01562 6.5918 2.87891 6.35742 2.77148C6.12305 2.66406 5.87891 2.61523 5.625 2.625C5.36133 2.625 5.11719 2.67383 4.89258 2.77148C4.66797 2.86914 4.47266 3.00098 4.30664 3.16699C4.14062 3.33301 4.00391 3.5332 3.89648 3.76758C3.78906 4.00195 3.74023 4.24609 3.75 4.5ZM15 15.75C15.5078 15.75 15.9912 15.6523 16.4502 15.457C16.9092 15.2617 17.3047 14.9932 17.6367 14.6514C17.9688 14.3096 18.2373 13.9141 18.4424 13.4648C18.6475 13.0156 18.75 12.5273 18.75 12C18.75 11.4922 18.6523 11.0088 18.457 10.5498C18.2617 10.0908 17.9932 9.69531 17.6514 9.36328C17.3096 9.03125 16.9092 8.7627 16.4502 8.55762C15.9912 8.35254 15.5078 8.25 15 8.25C14.4824 8.25 13.999 8.34766 13.5498 8.54297C13.1006 8.73828 12.7051 9.00684 12.3633 9.34863C12.0215 9.69043 11.7529 10.0908 11.5576 10.5498C11.3623 11.0088 11.2598 11.4922 11.25 12C11.25 12.5176 11.3477 13.001 11.543 13.4502C11.7383 13.8994 12.0068 14.2949 12.3486 14.6367C12.6904 14.9785 13.0859 15.2471 13.5352 15.4424C13.9844 15.6377 14.4727 15.7402 15 15.75ZM22.5 4.5C22.5 4.76367 22.5488 5.00781 22.6465 5.23242C22.7441 5.45703 22.876 5.65234 23.042 5.81836C23.208 5.98438 23.4082 6.12109 23.6426 6.22852C23.877 6.33594 24.1211 6.38477 24.375 6.375C24.6387 6.375 24.8828 6.32617 25.1074 6.22852C25.332 6.13086 25.5273 5.99902 25.6934 5.83301C25.8594 5.66699 25.9961 5.4668 26.1035 5.23242C26.2109 4.99805 26.2598 4.75391 26.25 4.5C26.25 4.23633 26.2012 3.99219 26.1035 3.76758C26.0059 3.54297 25.874 3.34766 25.708 3.18164C25.542 3.01562 25.3418 2.87891 25.1074 2.77148C24.873 2.66406 24.6289 2.61523 24.375 2.625C24.1113 2.625 23.8672 2.67383 23.6426 2.77148C23.418 2.86914 23.2227 3.00098 23.0566 3.16699C22.8906 3.33301 22.7539 3.5332 22.6465 3.76758C22.5391 4.00195 22.4902 4.24609 22.5 4.5Z" fill="black"/>
</svg>
