<svg width="20" height="27" viewBox="0 0 20 27" fill="none" xmlns="http://www.w3.org/2000/svg">
<path d="M2.5 26.5C1.8125 26.5 1.22417 26.2554 0.735 25.7663C0.245833 25.2771 0.000833333 24.6883 0 24V11.5C0 10.8125 0.245 10.2242 0.735 9.735C1.225 9.24583 1.81333 9.00083 2.5 9H3.75V6.5C3.75 4.77083 4.35958 3.29708 5.57875 2.07875C6.79792 0.860418 8.27167 0.250834 10 0.250001C11.7283 0.249168 13.2025 0.858751 14.4225 2.07875C15.6425 3.29875 16.2517 4.7725 16.25 6.5V9H17.5C18.1875 9 18.7763 9.245 19.2663 9.735C19.7563 10.225 20.0008 10.8133 20 11.5V24C20 24.6875 19.7554 25.2763 19.2663 25.7663C18.7771 26.2563 18.1883 26.5008 17.5 26.5H2.5ZM2.5 24H17.5V11.5H2.5V24ZM10 20.25C10.6875 20.25 11.2762 20.0054 11.7663 19.5163C12.2563 19.0271 12.5008 18.4383 12.5 17.75C12.4992 17.0617 12.2546 16.4733 11.7663 15.985C11.2779 15.4967 10.6892 15.2517 10 15.25C9.31083 15.2483 8.7225 15.4933 8.235 15.985C7.7475 16.4767 7.5025 17.065 7.5 17.75C7.4975 18.435 7.7425 19.0238 8.235 19.5163C8.7275 20.0088 9.31583 20.2533 10 20.25ZM6.25 9H13.75V6.5C13.75 5.45833 13.3854 4.57292 12.6562 3.84375C11.9271 3.11458 11.0417 2.75 10 2.75C8.95833 2.75 8.07292 3.11458 7.34375 3.84375C6.61458 4.57292 6.25 5.45833 6.25 6.5V9Z" fill="black"/>
</svg>
