<svg width="40" height="40" viewBox="0 0 40 40" fill="none" xmlns="http://www.w3.org/2000/svg">
<rect width="40" height="40" rx="10" fill="#14B8A6"/>
<path d="M20 22.6316C19.1071 22.6316 18.3482 22.3246 17.7232 21.7105C17.0982 21.0965 16.7857 20.3509 16.7857 19.4737V13.1579C16.7857 12.2807 17.0982 11.5351 17.7232 10.9211C18.3482 10.307 19.1071 10 20 10C20.8929 10 21.6518 10.307 22.2768 10.9211C22.9018 11.5351 23.2143 12.2807 23.2143 13.1579V19.4737C23.2143 20.3509 22.9018 21.0965 22.2768 21.7105C21.6518 22.3246 20.8929 22.6316 20 22.6316ZM18.9286 30V26.7632C17.0714 26.5175 15.5357 25.7018 14.3214 24.3158C13.1071 22.9298 12.5 21.3158 12.5 19.4737H14.6429C14.6429 20.9298 15.1654 22.1712 16.2104 23.1979C17.2554 24.2246 18.5186 24.7375 20 24.7368C21.4814 24.7361 22.745 24.2228 23.7907 23.1968C24.8364 22.1709 25.3586 20.9298 25.3571 19.4737H27.5C27.5 21.3158 26.8929 22.9298 25.6786 24.3158C24.4643 25.7018 22.9286 26.5175 21.0714 26.7632V30H18.9286ZM20 20.5263C20.3036 20.5263 20.5582 20.4253 20.7639 20.2232C20.9696 20.0211 21.0721 19.7712 21.0714 19.4737V13.1579C21.0714 12.8596 20.9686 12.6098 20.7629 12.4084C20.5571 12.207 20.3029 12.106 20 12.1053C19.6971 12.1046 19.4429 12.2056 19.2371 12.4084C19.0314 12.6112 18.9286 12.8611 18.9286 13.1579V19.4737C18.9286 19.7719 19.0314 20.0221 19.2371 20.2242C19.4429 20.4263 19.6971 20.527 20 20.5263Z" fill="white"/>
</svg>
