<svg width="26" height="26" viewBox="0 0 26 26" fill="none" xmlns="http://www.w3.org/2000/svg">
<path d="M22.8588 13.6638L24.5538 15.1731C24.8668 15.4343 25.076 15.799 25.1434 16.201C25.2108 16.6031 25.132 17.016 24.9213 17.365L22.8776 20.8563C22.719 21.1235 22.4926 21.3441 22.2213 21.4956C21.9469 21.6475 21.6387 21.7281 21.3251 21.73C21.1305 21.7312 20.9369 21.7021 20.7513 21.6438L18.5819 20.9275C18.2019 21.1713 17.8069 21.3894 17.3969 21.5819L16.9413 23.7813C16.857 24.1859 16.6317 24.5473 16.3057 24.8013C15.9755 25.0597 15.5662 25.1962 15.1469 25.1875H10.9151C10.4958 25.1962 10.0865 25.0597 9.75632 24.8013C9.43097 24.547 9.20639 24.1856 9.12257 23.7813L8.66507 21.5819C8.26044 21.3868 7.86787 21.1677 7.48944 20.9256L5.31257 21.6438C5.12695 21.7021 4.93339 21.7312 4.73882 21.73C4.4258 21.7278 4.11833 21.6472 3.84444 21.4956C3.57339 21.3446 3.34701 21.1247 3.18819 20.8581L1.07132 17.365C0.851247 17.0129 0.767158 16.5925 0.834812 16.1828C0.902465 15.7731 1.11722 15.4021 1.43882 15.1394L3.13194 13V12.3363L1.43694 10.8269C1.12394 10.5657 0.914796 10.2011 0.847385 9.799C0.779973 9.39694 0.858747 8.98403 1.06944 8.63502L3.18632 5.14377C3.34488 4.87652 3.57128 4.65594 3.84257 4.5044C4.11646 4.35284 4.42393 4.27227 4.73694 4.27002C4.92976 4.25786 5.12329 4.27557 5.31069 4.32252L7.44444 5.07252C7.82569 4.82877 8.22069 4.61065 8.62944 4.41815L9.08694 2.21877C9.17077 1.81446 9.39534 1.45302 9.72069 1.19877C10.0509 0.940297 10.4602 0.803848 10.8794 0.812523H15.0757C15.4949 0.803848 15.9043 0.940297 16.2344 1.19877C16.5626 1.45565 16.7876 1.81752 16.8682 2.21877L17.3257 4.41815C17.7319 4.6119 18.1238 4.83065 18.5013 5.0744L20.6801 4.35815C20.9219 4.27949 21.1774 4.25187 21.4304 4.27704C21.6834 4.30222 21.9285 4.37964 22.1501 4.5044C22.4219 4.65815 22.6469 4.8794 22.8063 5.1419L24.9213 8.63502C25.1444 8.98419 25.2327 9.40258 25.1699 9.81212C25.1071 10.2217 24.8975 10.5943 24.5801 10.8606L22.8588 12.3269V13.6638Z" stroke="black"/>
<path d="M17.6875 13C17.6875 14.2432 17.1936 15.4355 16.3146 16.3146C15.4355 17.1936 14.2432 17.6875 13 17.6875C11.7568 17.6875 10.5645 17.1936 9.68544 16.3146C8.80636 15.4355 8.3125 14.2432 8.3125 13C8.3125 11.7568 8.80636 10.5645 9.68544 9.68544C10.5645 8.80636 11.7568 8.3125 13 8.3125C14.2432 8.3125 15.4355 8.80636 16.3146 9.68544C17.1936 10.5645 17.6875 11.7568 17.6875 13Z" stroke="black"/>
</svg>
