<svg width="28" height="28" viewBox="0 0 28 28" fill="none" xmlns="http://www.w3.org/2000/svg">
<path d="M10.4413 5.76C12.025 2.92 12.8163 1.5 14 1.5C15.1838 1.5 15.975 2.92 17.5588 5.76L17.9688 6.495C18.4188 7.3025 18.6438 7.70625 18.9938 7.9725C19.3438 8.23875 19.7813 8.3375 20.6563 8.535L21.4513 8.715C24.5263 9.41125 26.0626 9.75875 26.4288 10.935C26.7938 12.11 25.7463 13.3363 23.65 15.7875L23.1075 16.4213C22.5125 17.1175 22.2138 17.4662 22.08 17.8962C21.9463 18.3275 21.9913 18.7925 22.0813 19.7212L22.1638 20.5675C22.48 23.8387 22.6388 25.4738 21.6813 26.2C20.7238 26.9263 19.2838 26.2637 16.4063 24.9387L15.66 24.5962C14.8425 24.2187 14.4338 24.0312 14 24.0312C13.5663 24.0312 13.1575 24.2187 12.34 24.5962L11.595 24.9387C8.7163 26.2637 7.2763 26.9262 6.32005 26.2012C5.3613 25.4737 5.52005 23.8387 5.8363 20.5675L5.9188 19.7225C6.0088 18.7925 6.0538 18.3275 5.9188 17.8975C5.7863 17.4663 5.48755 17.1175 4.89255 16.4225L4.35005 15.7875C2.2538 13.3375 1.2063 12.1113 1.5713 10.935C1.9363 9.75875 3.47505 9.41 6.55005 8.715L7.34505 8.535C8.2188 8.3375 8.65505 8.23875 9.0063 7.9725C9.35755 7.70625 9.5813 7.3025 10.0313 6.495L10.4413 5.76Z" stroke="black" stroke-width="1.5"/>
</svg>
