<svg width="22" height="15" viewBox="0 0 22 15" fill="none" xmlns="http://www.w3.org/2000/svg">
<path d="M14.3333 5.27782L19.3922 2.74893C19.5616 2.6643 19.7498 2.62435 19.9389 2.63287C20.128 2.64139 20.3118 2.69809 20.4729 2.7976C20.634 2.89711 20.7669 3.03613 20.8592 3.20145C20.9514 3.36678 20.9999 3.55294 21 3.74226V11.2578C20.9999 11.4471 20.9514 11.6333 20.8592 11.7986C20.7669 11.964 20.634 12.103 20.4729 12.2025C20.3118 12.302 20.128 12.3587 19.9389 12.3672C19.7498 12.3757 19.5616 12.3358 19.3922 12.2512L14.3333 9.72226V5.27782ZM1 3.0556C1 2.46623 1.23413 1.901 1.65087 1.48425C2.06762 1.0675 2.63285 0.833374 3.22222 0.833374H12.1111C12.7005 0.833374 13.2657 1.0675 13.6825 1.48425C14.0992 1.901 14.3333 2.46623 14.3333 3.0556V11.9445C14.3333 12.5339 14.0992 13.0991 13.6825 13.5158C13.2657 13.9326 12.7005 14.1667 12.1111 14.1667H3.22222C2.63285 14.1667 2.06762 13.9326 1.65087 13.5158C1.23413 13.0991 1 12.5339 1 11.9445V3.0556Z" stroke="black" stroke-width="1.5" stroke-linecap="round" stroke-linejoin="round"/>
</svg>
