<svg width="40" height="40" viewBox="0 0 40 40" fill="none" xmlns="http://www.w3.org/2000/svg">
<path d="M19.9999 6.25C19.3233 6.25 18.7046 6.825 18.7499 7.5L19.3749 24.375C19.3749 24.5408 19.4407 24.6997 19.558 24.8169C19.6752 24.9342 19.8341 25 19.9999 25C20.1657 25 20.3246 24.9342 20.4418 24.8169C20.5591 24.6997 20.6249 24.5408 20.6249 24.375L21.2499 7.5C21.2952 6.825 20.6765 6.25 19.9999 6.25Z" stroke="#475569" stroke-width="2.5" stroke-linecap="round" stroke-linejoin="round"/>
<path d="M20 33.75C20.6904 33.75 21.25 33.1904 21.25 32.5C21.25 31.8096 20.6904 31.25 20 31.25C19.3096 31.25 18.75 31.8096 18.75 32.5C18.75 33.1904 19.3096 33.75 20 33.75Z" stroke="#475569" stroke-width="2.5" stroke-linecap="round" stroke-linejoin="round"/>
</svg>
