<svg width="40" height="40" viewBox="0 0 40 40" fill="none" xmlns="http://www.w3.org/2000/svg">
<path d="M20 11.666V21.666" stroke="#F43F5E" stroke-width="2.5" stroke-linecap="round"/>
<path d="M19.9999 28.3333C20.9204 28.3333 21.6666 27.5871 21.6666 26.6667C21.6666 25.7462 20.9204 25 19.9999 25C19.0794 25 18.3333 25.7462 18.3333 26.6667C18.3333 27.5871 19.0794 28.3333 19.9999 28.3333Z" fill="#F43F5E"/>
<path d="M13.0717 6.33634C16.4533 4.33467 18.1433 3.33301 20 3.33301C21.8567 3.33301 23.5467 4.33301 26.9283 6.33634L28.0717 7.01301C31.4533 9.01634 33.1433 10.018 34.0717 11.6663C35 13.3163 35 15.3163 35 19.323V20.6763C35 24.6813 35 26.6847 34.0717 28.333C33.1433 29.9813 31.4533 30.983 28.0717 32.9847L26.9283 33.663C23.5467 35.6647 21.8567 36.6663 20 36.6663C18.1433 36.6663 16.4533 35.6663 13.0717 33.663L11.9283 32.9847C8.54667 30.9847 6.85667 29.9813 5.92833 28.333C5 26.683 5 24.683 5 20.6763V19.323C5 15.3163 5 13.3147 5.92833 11.6663C6.85667 10.018 8.54667 9.01634 11.9283 7.01301L13.0717 6.33634Z" stroke="#F43F5E" stroke-width="2.5"/>
</svg>
