<svg width="16" height="31" viewBox="0 0 16 31" fill="none" xmlns="http://www.w3.org/2000/svg">
<path d="M8 0C3.865 0 0.5 3.365 0.5 7.5C0.5 7.99728 0.697544 8.47419 1.04917 8.82583C1.40081 9.17746 1.87772 9.375 2.375 9.375C2.87228 9.375 3.34919 9.17746 3.70083 8.82583C4.05246 8.47419 4.25 7.99728 4.25 7.5C4.25 5.435 5.935 3.75 8 3.75C10.065 3.75 11.75 5.435 11.75 7.5C11.75 9.1325 11.445 10.045 11.115 10.625C10.7725 11.23 10.3125 11.65 9.6125 12.2325L9.485 12.3375C8.835 12.875 7.955 13.605 7.285 14.685C6.535 15.8925 6.125 17.385 6.125 19.375V20.625C6.125 21.1223 6.32254 21.5992 6.67417 21.9508C7.02581 22.3025 7.50272 22.5 8 22.5C8.49728 22.5 8.97419 22.3025 9.32582 21.9508C9.67745 21.5992 9.875 21.1223 9.875 20.625V19.375C9.875 17.9275 10.165 17.155 10.4725 16.6625C10.8125 16.115 11.2625 15.7375 12.0125 15.1125C12.72 14.5225 13.6625 13.73 14.375 12.48C15.1 11.205 15.5 9.6175 15.5 7.5C15.5 3.365 12.135 0 8 0ZM8 30.625C8.66304 30.625 9.29893 30.3616 9.76777 29.8928C10.2366 29.4239 10.5 28.788 10.5 28.125C10.5 27.462 10.2366 26.8261 9.76777 26.3572C9.29893 25.8884 8.66304 25.625 8 25.625C7.33696 25.625 6.70107 25.8884 6.23223 26.3572C5.76339 26.8261 5.5 27.462 5.5 28.125C5.5 28.788 5.76339 29.4239 6.23223 29.8928C6.70107 30.3616 7.33696 30.625 8 30.625Z" fill="#475569"/>
</svg>
