<svg width="40" height="36" viewBox="0 0 40 36" fill="none" xmlns="http://www.w3.org/2000/svg">
<path d="M29.2956 30.1196L17.8244 18.5843C17.1432 18.7381 16.4896 18.9469 15.8638 19.2105C15.2379 19.4742 14.6498 19.7928 14.0996 20.1663C13.6381 20.4739 13.1274 20.6334 12.5675 20.6449C12.0075 20.6563 11.5403 20.4638 11.1659 20.0674C10.7703 19.6719 10.5892 19.1938 10.6226 18.6331C10.656 18.0724 10.892 17.6277 11.3307 17.299C11.8361 16.9254 12.3692 16.5849 12.93 16.2773C13.4909 15.9697 14.0675 15.684 14.66 15.4204L11.6933 12.4541C11.1219 12.7617 10.5672 13.086 10.0293 13.4271C9.49133 13.7681 8.96919 14.1359 8.46287 14.5305C8.02336 14.882 7.52364 15.0578 6.96371 15.0578C6.40377 15.0578 5.93657 14.8601 5.56211 14.4646C5.16655 14.0691 4.97976 13.5967 5.00173 13.0474C5.02371 12.4981 5.25445 12.0477 5.69396 11.6961C6.17742 11.3006 6.67187 10.9218 7.17731 10.5597C7.68274 10.1976 8.22114 9.86232 8.79251 9.55383L6.94656 7.70819C6.70483 7.46649 6.58397 7.15889 6.58397 6.78536C6.58397 6.41184 6.70483 6.10423 6.94656 5.86254C7.1883 5.62085 7.49595 5.5 7.86953 5.5C8.24312 5.5 8.55077 5.62085 8.79251 5.86254L31.1745 28.241C31.4382 28.5047 31.5701 28.818 31.5701 29.181C31.5701 29.5439 31.4382 29.8568 31.1745 30.1196C30.9108 30.3613 30.5979 30.4879 30.2357 30.4993C29.8736 30.5107 29.5602 30.3842 29.2956 30.1196ZM20 28.9331C19.077 28.9331 18.2969 28.6093 17.6596 27.9615C17.0223 27.3138 16.7037 26.5391 16.7037 25.6373C16.7037 24.7145 17.0223 23.9345 17.6596 23.2973C18.2969 22.6601 19.077 22.3415 20 22.3415C20.923 22.3415 21.7031 22.6601 22.3404 23.2973C22.9777 23.9345 23.2963 24.7145 23.2963 25.6373C23.2963 26.5382 22.9777 27.3129 22.3404 27.9615C21.7031 28.6101 20.923 28.934 20 28.9331ZM28.999 19.8697C28.6474 20.2212 28.2355 20.3917 27.7635 20.3812C27.2915 20.3706 26.8792 20.1892 26.5267 19.8367L26.1971 19.5071L25.8675 19.1776L22.703 16.0136C22.4173 15.728 22.3624 15.4313 22.5382 15.1237C22.714 14.8161 23.0216 14.7173 23.4611 14.8271C24.45 15.0688 25.3893 15.4094 26.2788 15.8488C27.1684 16.2882 27.9982 16.8046 28.7682 17.3978C29.1638 17.7054 29.3892 18.1066 29.4446 18.6015C29.5 19.0963 29.3514 19.519 28.999 19.8697ZM34.4379 14.4646C34.0643 14.8601 33.6028 15.0631 33.0534 15.0736C32.504 15.0842 32.0096 14.9141 31.5701 14.5634C29.9879 13.2671 28.2136 12.2621 26.2472 11.5484C24.2808 10.8348 22.1984 10.4775 20 10.4767C19.5385 10.4767 19.0937 10.4934 18.6656 10.5268C18.2376 10.5601 17.8033 10.6094 17.3629 10.6744C16.8136 10.7623 16.3191 10.6472 15.8796 10.329C15.4401 10.0108 15.1764 9.57668 15.0885 9.0265C15.0006 8.47633 15.1214 7.98196 15.4511 7.5434C15.7807 7.10483 16.2202 6.84117 16.7696 6.7524C17.297 6.66452 17.8301 6.60431 18.369 6.57179C18.9078 6.53928 19.4515 6.52258 20 6.5217C22.7469 6.5217 25.3348 6.97784 27.7635 7.89011C30.1922 8.80239 32.3731 10.0601 34.306 11.6631C34.7455 12.0367 34.9763 12.4981 34.9983 13.0474C35.0202 13.5967 34.8335 14.0691 34.4379 14.4646Z" fill="#475569"/>
</svg>
