<svg width="19" height="21" viewBox="0 0 19 21" fill="none" xmlns="http://www.w3.org/2000/svg">
<path fill-rule="evenodd" clip-rule="evenodd" d="M14.03 11.758C14.0918 11.5105 14.2459 11.296 14.4607 11.1584C14.6755 11.0208 14.9348 10.9705 15.1855 11.0177C15.4362 11.065 15.6593 11.2063 15.8092 11.4127C15.9592 11.6191 16.0245 11.875 15.992 12.128L15.97 12.243L15.28 15H16V14C16.0005 13.7452 16.0983 13.5002 16.2733 13.3151C16.4484 13.1299 16.6875 13.0186 16.9419 13.0038C17.1962 12.989 17.4467 13.0718 17.642 13.2354C17.8374 13.399 17.9629 13.631 17.993 13.884L18 14V15C18.2549 15.0003 18.5 15.0979 18.6854 15.2729C18.8707 15.4478 18.9822 15.687 18.9972 15.9414C19.0121 16.1958 18.9293 16.4464 18.7657 16.6418C18.6021 16.8373 18.3701 16.9629 18.117 16.993L18 17V18C17.9997 18.2549 17.9021 18.5 17.7271 18.6854C17.5522 18.8707 17.313 18.9822 17.0586 18.9972C16.8042 19.0121 16.5536 18.9293 16.3582 18.7657C16.1627 18.6021 16.0371 18.3701 16.007 18.117L16 18V17H14C13.8592 16.9999 13.72 16.9701 13.5915 16.9125C13.463 16.8549 13.3481 16.7708 13.2544 16.6657C13.1607 16.5607 13.0902 16.437 13.0475 16.3028C13.0049 16.1686 12.9911 16.0269 13.007 15.887L13.03 15.757L14.03 11.758ZM10.5 11C11.163 11 11.7989 11.2634 12.2678 11.7322C12.7366 12.2011 13 12.837 13 13.5V13.825C13 14.5 12.759 15.152 12.32 15.664L11.174 17H12C12.2652 17 12.5196 17.1054 12.7071 17.2929C12.8946 17.4804 13 17.7348 13 18C13 18.2652 12.8946 18.5196 12.7071 18.7071C12.5196 18.8946 12.2652 19 12 19H8.99999C8.80883 19 8.62166 18.9452 8.46067 18.8421C8.29969 18.7391 8.17162 18.592 8.09164 18.4184C8.01167 18.2447 7.98314 18.0518 8.00943 17.8625C8.03572 17.6731 8.11573 17.4953 8.23999 17.35L10.801 14.362C10.9289 14.2123 10.9995 14.0219 11 13.825V13.5C11 13.3674 10.9473 13.2402 10.8535 13.1465C10.7598 13.0527 10.6326 13 10.5 13C10.3674 13 10.2402 13.0527 10.1464 13.1465C10.0527 13.2402 9.99999 13.3674 9.99999 13.5C9.99999 13.7652 9.89463 14.0196 9.7071 14.2071C9.51956 14.3946 9.26521 14.5 8.99999 14.5C8.73477 14.5 8.48042 14.3946 8.29288 14.2071C8.10535 14.0196 7.99999 13.7652 7.99999 13.5C7.99999 12.837 8.26338 12.2011 8.73222 11.7322C9.20106 11.2634 9.83695 11 10.5 11ZM8.99999 4.11907e-06C10.3445 -0.000243737 11.6719 0.300728 12.8848 0.880806C14.0977 1.46088 15.1652 2.30533 16.0089 3.3521C16.8526 4.39887 17.4511 5.62137 17.7603 6.92978C18.0696 8.23819 18.0818 9.59927 17.796 10.913C17.6221 10.4659 17.3436 10.0671 16.9838 9.74989C16.624 9.4327 16.1933 9.20641 15.728 9.09C15.2537 8.97126 14.7576 8.97023 14.2829 9.08701C13.8081 9.20378 13.3691 9.43482 13.004 9.76C12.3265 9.30629 11.5385 9.04517 10.7241 9.00457C9.90971 8.96396 9.09961 9.14539 8.38034 9.52946C7.66108 9.91354 7.05968 10.4858 6.64043 11.1852C6.22117 11.8845 5.9998 12.6846 5.99999 13.5C5.99999 14.386 6.38399 15.182 6.99399 15.73L6.72199 16.048C6.3673 16.4622 6.13221 16.9652 6.04199 17.503C4.03111 16.8055 2.33251 15.4179 1.24782 13.5866C0.163124 11.7554 -0.237454 9.59892 0.117217 7.50027C0.471889 5.40162 1.55885 3.49658 3.18509 2.12345C4.81133 0.750318 6.87158 -0.00203127 8.99999 4.11907e-06ZM7.99999 3C7.73477 3 7.48042 3.10536 7.29288 3.2929C7.10535 3.48043 6.99999 3.73479 6.99999 4V7H5.99999C5.73477 7 5.48042 7.10536 5.29288 7.2929C5.10535 7.48043 4.99999 7.73479 4.99999 8C4.99999 8.26522 5.10535 8.51957 5.29288 8.70711C5.48042 8.89465 5.73477 9 5.99999 9H7.99999C8.26521 9 8.51956 8.89465 8.7071 8.70711C8.89463 8.51957 8.99999 8.26522 8.99999 8V4C8.99999 3.73479 8.89463 3.48043 8.7071 3.2929C8.51956 3.10536 8.26521 3 7.99999 3Z" fill="#14B8A6"/>
</svg>
