<svg width="34" height="34" viewBox="0 0 34 34" fill="none" xmlns="http://www.w3.org/2000/svg">
<rect width="34" height="34" rx="10" fill="#14B8A6" fill-opacity="0.3"/>
<path fill-rule="evenodd" clip-rule="evenodd" d="M22.03 19.758C22.0918 19.5105 22.2459 19.296 22.4607 19.1584C22.6755 19.0208 22.9348 18.9705 23.1855 19.0177C23.4362 19.065 23.6593 19.2063 23.8092 19.4127C23.9592 19.6191 24.0245 19.875 23.992 20.128L23.97 20.243L23.28 23H24V22C24.0005 21.7452 24.0983 21.5002 24.2733 21.3151C24.4484 21.1299 24.6875 21.0186 24.9419 21.0038C25.1962 20.989 25.4467 21.0718 25.642 21.2354C25.8374 21.399 25.9629 21.631 25.993 21.884L26 22V23C26.2549 23.0003 26.5 23.0979 26.6854 23.2729C26.8707 23.4478 26.9822 23.687 26.9972 23.9414C27.0121 24.1958 26.9293 24.4464 26.7657 24.6418C26.6021 24.8373 26.3701 24.9629 26.117 24.993L26 25V26C25.9997 26.2549 25.9021 26.5 25.7271 26.6854C25.5522 26.8707 25.313 26.9822 25.0586 26.9972C24.8042 27.0121 24.5536 26.9293 24.3582 26.7657C24.1627 26.6021 24.0371 26.3701 24.007 26.117L24 26V25H22C21.8592 24.9999 21.72 24.9701 21.5915 24.9125C21.463 24.8549 21.3481 24.7708 21.2544 24.6657C21.1607 24.5607 21.0902 24.437 21.0475 24.3028C21.0049 24.1686 20.9911 24.0269 21.007 23.887L21.03 23.757L22.03 19.758ZM18.5 19C19.163 19 19.7989 19.2634 20.2678 19.7322C20.7366 20.2011 21 20.837 21 21.5V21.825C21 22.5 20.759 23.152 20.32 23.664L19.174 25H20C20.2652 25 20.5196 25.1054 20.7071 25.2929C20.8946 25.4804 21 25.7348 21 26C21 26.2652 20.8946 26.5196 20.7071 26.7071C20.5196 26.8946 20.2652 27 20 27H17C16.8088 27 16.6217 26.9452 16.4607 26.8421C16.2997 26.7391 16.1716 26.592 16.0916 26.4184C16.0117 26.2447 15.9831 26.0518 16.0094 25.8625C16.0357 25.6731 16.1157 25.4953 16.24 25.35L18.801 22.362C18.9289 22.2123 18.9995 22.0219 19 21.825V21.5C19 21.3674 18.9473 21.2402 18.8535 21.1465C18.7598 21.0527 18.6326 21 18.5 21C18.3674 21 18.2402 21.0527 18.1464 21.1465C18.0527 21.2402 18 21.3674 18 21.5C18 21.7652 17.8946 22.0196 17.7071 22.2071C17.5196 22.3946 17.2652 22.5 17 22.5C16.7348 22.5 16.4804 22.3946 16.2929 22.2071C16.1053 22.0196 16 21.7652 16 21.5C16 20.837 16.2634 20.2011 16.7322 19.7322C17.2011 19.2634 17.8369 19 18.5 19ZM17 8C18.3445 7.99976 19.6719 8.30073 20.8848 8.88081C22.0977 9.46088 23.1652 10.3053 24.0089 11.3521C24.8526 12.3989 25.4511 13.6214 25.7603 14.9298C26.0696 16.2382 26.0818 17.5993 25.796 18.913C25.6221 18.4659 25.3436 18.0671 24.9838 17.7499C24.624 17.4327 24.1933 17.2064 23.728 17.09C23.2537 16.9713 22.7576 16.9702 22.2829 17.087C21.8081 17.2038 21.3691 17.4348 21.004 17.76C20.3265 17.3063 19.5385 17.0452 18.7241 17.0046C17.9097 16.964 17.0996 17.1454 16.3803 17.5295C15.6611 17.9135 15.0597 18.4858 14.6404 19.1852C14.2212 19.8845 13.9998 20.6846 14 21.5C14 22.386 14.384 23.182 14.994 23.73L14.722 24.048C14.3673 24.4622 14.1322 24.9652 14.042 25.503C12.0311 24.8055 10.3325 23.4179 9.24782 21.5866C8.16312 19.7554 7.76255 17.5989 8.11722 15.5003C8.47189 13.4016 9.55885 11.4966 11.1851 10.1234C12.8113 8.75032 14.8716 7.99797 17 8ZM16 11C15.7348 11 15.4804 11.1054 15.2929 11.2929C15.1053 11.4804 15 11.7348 15 12V15H14C13.7348 15 13.4804 15.1054 13.2929 15.2929C13.1053 15.4804 13 15.7348 13 16C13 16.2652 13.1053 16.5196 13.2929 16.7071C13.4804 16.8946 13.7348 17 14 17H16C16.2652 17 16.5196 16.8946 16.7071 16.7071C16.8946 16.5196 17 16.2652 17 16V12C17 11.7348 16.8946 11.4804 16.7071 11.2929C16.5196 11.1054 16.2652 11 16 11Z" fill="#14B8A6"/>
</svg>
