<svg width="21" height="16" viewBox="0 0 21 16" fill="none" xmlns="http://www.w3.org/2000/svg">
<path d="M7.7 12L10.5 9.9L13.25 12L12.2 8.6L15 6.4H11.6L10.5 3L9.4 6.4H6L8.75 8.6L7.7 12ZM2.5 16C1.95 16 1.47933 15.8043 1.088 15.413C0.696667 15.0217 0.500667 14.5507 0.5 14V10.625C0.5 10.4417 0.558333 10.2833 0.675 10.15C0.791667 10.0167 0.941667 9.93333 1.125 9.9C1.525 9.76667 1.85433 9.525 2.113 9.175C2.37167 8.825 2.50067 8.43333 2.5 8C2.49933 7.56667 2.37033 7.175 2.113 6.825C1.85567 6.475 1.52633 6.23333 1.125 6.1C0.941667 6.06667 0.791667 5.98333 0.675 5.85C0.558333 5.71667 0.5 5.55833 0.5 5.375V2C0.5 1.45 0.696 0.979333 1.088 0.588C1.48 0.196666 1.95067 0.000666667 2.5 0H18.5C19.05 0 19.521 0.196 19.913 0.588C20.305 0.98 20.5007 1.45067 20.5 2V5.375C20.5 5.55833 20.4417 5.71667 20.325 5.85C20.2083 5.98333 20.0583 6.06667 19.875 6.1C19.475 6.23333 19.146 6.475 18.888 6.825C18.63 7.175 18.5007 7.56667 18.5 8C18.4993 8.43333 18.6287 8.825 18.888 9.175C19.1473 9.525 19.4763 9.76667 19.875 9.9C20.0583 9.93333 20.2083 10.0167 20.325 10.15C20.4417 10.2833 20.5 10.4417 20.5 10.625V14C20.5 14.55 20.3043 15.021 19.913 15.413C19.5217 15.805 19.0507 16.0007 18.5 16H2.5Z" fill="#595858" fill-opacity="0.5"/>
</svg>
