<svg width="17" height="17" viewBox="0 0 17 17" fill="none" xmlns="http://www.w3.org/2000/svg">
<path d="M9.11583 4.9547L9.11528 7.86544L12.026 7.86488C12.1081 7.86488 12.1895 7.88106 12.2653 7.91249C12.3412 7.94391 12.4101 7.98997 12.4682 8.04804C12.5263 8.10611 12.5723 8.17505 12.6038 8.25092C12.6352 8.32679 12.6514 8.40811 12.6514 8.49023C12.6514 8.57235 12.6352 8.65367 12.6038 8.72954C12.5723 8.80541 12.5263 8.87435 12.4682 8.93242C12.4101 8.99049 12.3412 9.03655 12.2653 9.06798C12.1895 9.0994 12.1081 9.11558 12.026 9.11558L9.11528 9.11503L9.11583 12.0258C9.11583 12.1079 9.09966 12.1892 9.06823 12.2651C9.03681 12.3409 8.99074 12.4099 8.93267 12.468C8.87461 12.526 8.80567 12.5721 8.7298 12.6035C8.65393 12.6349 8.57261 12.6511 8.49049 12.6511C8.40836 12.6511 8.32705 12.6349 8.25118 12.6035C8.17531 12.5721 8.10637 12.526 8.0483 12.468C7.99023 12.4099 7.94417 12.3409 7.91274 12.2651C7.88131 12.1892 7.86514 12.1079 7.86514 12.0258L7.86569 9.11503L4.95495 9.11558C4.7891 9.11558 4.63004 9.04969 4.51277 8.93242C4.39549 8.81514 4.3296 8.65608 4.3296 8.49023C4.3296 8.32438 4.39549 8.16532 4.51277 8.04804C4.63004 7.93077 4.7891 7.86488 4.95495 7.86488L7.86569 7.86544L7.86514 4.9547C7.86514 4.87258 7.88131 4.79126 7.91274 4.71539C7.94417 4.63952 7.99023 4.57058 8.0483 4.51251C8.10637 4.45444 8.17531 4.40838 8.25118 4.37695C8.32705 4.34553 8.40836 4.32935 8.49049 4.32935C8.57261 4.32935 8.65393 4.34553 8.7298 4.37695C8.80567 4.40838 8.87461 4.45444 8.93267 4.51251C8.99074 4.57058 9.03681 4.63952 9.06823 4.71539C9.09966 4.79126 9.11583 4.87258 9.11583 4.9547ZM14.2357 2.74499C15.372 3.88129 16.1459 5.32903 16.4594 6.90512C16.7729 8.48122 16.612 10.1149 15.997 11.5995C15.382 13.0842 14.3406 14.3531 13.0045 15.2459C11.6683 16.1387 10.0975 16.6152 8.49049 16.6152C6.88351 16.6152 5.31263 16.1387 3.97648 15.2459C2.64033 14.3531 1.59893 13.0842 0.983966 11.5995C0.369004 10.1149 0.208102 8.48122 0.521607 6.90512C0.835112 5.32903 1.60894 3.88129 2.74524 2.74499C4.27009 1.22336 6.3363 0.368786 8.49049 0.368786C10.6447 0.368786 12.7109 1.22336 14.2357 2.74499ZM13.3518 3.62887C12.3904 2.66739 11.1654 2.01261 9.83173 1.74733C8.49811 1.48206 7.11578 1.61821 5.85954 2.13856C4.6033 2.65891 3.52957 3.5401 2.77413 4.67069C2.0187 5.80127 1.61549 7.13049 1.61549 8.49023C1.61549 9.84998 2.0187 11.1792 2.77413 12.3098C3.52957 13.4404 4.6033 14.3216 5.85954 14.8419C7.11578 15.3623 8.49811 15.4984 9.83173 15.2331C11.1654 14.9679 12.3904 14.3131 13.3518 13.3516C14.6392 12.0613 15.3623 10.313 15.3623 8.49023C15.3623 6.6675 14.6392 4.9192 13.3518 3.62887Z" fill="#64748B"/>
</svg>
