<svg width="34" height="34" viewBox="0 0 34 34" fill="none" xmlns="http://www.w3.org/2000/svg">
<path d="M10 0L0.6 3.16667C0.266666 3.28333 0 3.58333 0 3.96667V29.1667C0 29.3877 0.0877975 29.5996 0.244078 29.7559C0.400358 29.9122 0.61232 30 0.833333 30C0.916667 30 1 30 1.1 29.95L10 26.5L16.9333 28.9333C16.7667 28.2 16.6667 27.4333 16.6667 26.6667C16.6667 26.2833 16.6667 25.9 16.7333 25.5L10 23.1667V3.33333L20 6.83333V19.2667C21.7833 17.6667 24.1167 16.6667 26.6667 16.6667C27.8333 16.6667 28.95 16.8833 30 17.2667V0.833333C30 0.61232 29.9122 0.400358 29.7559 0.244078C29.5996 0.0877975 29.3877 0 29.1667 0H28.9L20 3.5L10 0ZM25 20V25H20V28.3333H25V33.3333H28.3333V28.3333H33.3333V25H28.3333V20H25Z" fill="#475569"/>
</svg>
