<svg width="24" height="24" viewBox="0 0 24 24" fill="none" xmlns="http://www.w3.org/2000/svg">
<path d="M17.29 11.9689C17.2919 12.3214 17.1537 12.6603 16.9058 12.911C16.6579 13.1617 16.3206 13.3037 15.968 13.3059C15.7933 13.3049 15.6206 13.2696 15.4596 13.2019C15.2986 13.1343 15.1524 13.0355 15.0296 12.9114C14.9067 12.7872 14.8095 12.6401 14.7436 12.4784C14.6776 12.3166 14.6441 12.1435 14.645 11.9689C14.6439 11.7941 14.6773 11.6209 14.7433 11.459C14.8092 11.2972 14.9064 11.15 15.0292 11.0257C15.1521 10.9014 15.2983 10.8026 15.4593 10.7349C15.6204 10.6671 15.7933 10.6318 15.968 10.6309C16.698 10.6309 17.29 11.2299 17.29 11.9689Z" fill="#14B8A6"/>
<path fill-rule="evenodd" clip-rule="evenodd" d="M18.132 7.40809C17.283 7.28809 16.19 7.28809 14.827 7.28809H9.173C7.81 7.28809 6.717 7.28809 5.868 7.40809C4.991 7.53309 4.26 7.80109 3.716 8.42809C3.173 9.05609 3.006 9.82509 3 10.7211C2.994 11.5871 3.139 12.6831 3.319 14.0501L3.684 16.8211C3.825 17.8901 3.939 18.7541 4.116 19.4311C4.301 20.1351 4.573 20.7201 5.084 21.1721C5.595 21.6241 6.204 21.8201 6.918 21.9121C7.605 22.0001 8.468 22.0001 9.533 22.0001H14.467C15.532 22.0001 16.395 22.0001 17.082 21.9121C17.797 21.8201 18.405 21.6241 18.916 21.1721C19.427 20.7201 19.699 20.1351 19.884 19.4311C20.061 18.7541 20.175 17.8891 20.316 16.8211L20.681 14.0501C20.861 12.6831 21.006 11.5871 21 10.7201C20.993 9.82509 20.828 9.05609 20.284 8.42909C19.74 7.80109 19.009 7.53309 18.132 7.40809ZM6.052 8.73209C5.326 8.83609 4.958 9.02409 4.712 9.31009C4.464 9.59509 4.328 9.98809 4.322 10.7301C4.317 11.4921 4.448 12.4951 4.637 13.9251L4.687 14.3051L5.058 14.0321C6.018 13.3301 7.434 13.3641 8.346 14.1271L11.73 16.9601C12.05 17.2281 12.601 17.2781 12.999 17.0441L13.234 16.9061C14.359 16.2441 15.868 16.3141 16.906 17.0961L18.738 18.4761C18.828 17.9801 18.909 17.3711 19.011 16.6001L19.363 13.9251C19.552 12.4951 19.683 11.4921 19.677 10.7301C19.672 9.98809 19.536 9.59509 19.289 9.31009C19.042 9.02409 18.674 8.83609 17.947 8.73209C17.202 8.62609 16.202 8.62509 14.775 8.62509H9.225C7.798 8.62509 6.797 8.62609 6.052 8.73209Z" fill="#14B8A6"/>
<path d="M8.859 2H15.141C15.351 2 15.511 2 15.651 2.015C16.1298 2.06826 16.5847 2.25251 16.9656 2.54748C17.3464 2.84246 17.6386 3.23675 17.81 3.687H6.19C6.36136 3.23675 6.65355 2.84246 7.03445 2.54748C7.41534 2.25251 7.87019 2.06826 8.349 2.015C8.489 2 8.649 2 8.859 2ZM6.88 4.5C5.628 4.5 4.602 5.34 4.26 6.454L4.239 6.524C4.597 6.404 4.969 6.324 5.347 6.271C6.32 6.132 7.549 6.132 8.976 6.132H15.179C16.606 6.132 17.835 6.132 18.807 6.271C19.185 6.324 19.557 6.403 19.917 6.524L19.896 6.454C19.553 5.34 18.527 4.5 17.276 4.5H6.88Z" fill="#14B8A6"/>
</svg>
