<svg width="24" height="24" viewBox="0 0 24 24" fill="none" xmlns="http://www.w3.org/2000/svg">
<rect width="24" height="24" rx="5" fill="#14B8A6" fill-opacity="0.3"/>
<path d="M2.4 12.797V16.2002C2.4 16.9958 2.71607 17.7589 3.27868 18.3215C3.84129 18.8841 4.60435 19.2002 5.4 19.2002H18.6C19.3957 19.2002 20.1587 18.8841 20.7213 18.3215C21.2839 17.7589 21.6 16.9958 21.6 16.2002V7.8002C21.6 7.00455 21.2839 6.24148 20.7213 5.67887C20.1587 5.11627 19.3957 4.8002 18.6 4.8002H11.3736L12.1788 5.6066C12.3044 5.7314 12.4184 5.8626 12.5208 6.0002H18.6C19.0774 6.0002 19.5352 6.18984 19.8728 6.5274C20.2104 6.86497 20.4 7.32281 20.4 7.8002V16.2002C20.4 16.6776 20.2104 17.1354 19.8728 17.473C19.5352 17.8106 19.0774 18.0002 18.6 18.0002H5.4C4.92261 18.0002 4.46477 17.8106 4.12721 17.473C3.78964 17.1354 3.6 16.6776 3.6 16.2002V13.997L2.4 12.797ZM6 1.8002C6 1.64107 6.06322 1.48845 6.17574 1.37593C6.28826 1.26341 6.44087 1.2002 6.6 1.2002C6.75913 1.2002 6.91174 1.26341 7.02427 1.37593C7.13679 1.48845 7.2 1.64107 7.2 1.8002V3.209C7.776 3.2354 8.3448 3.4694 8.784 3.9086L11.3316 6.4562C11.7815 6.90626 12.0343 7.5166 12.0343 8.153C12.0343 8.78939 11.7815 9.39973 11.3316 9.8498L7.938 13.2446C7.71513 13.4676 7.45051 13.6444 7.15927 13.7651C6.86802 13.8858 6.55586 13.9479 6.2406 13.9479C5.92535 13.9479 5.61318 13.8858 5.32194 13.7651C5.03069 13.6444 4.76607 13.4676 4.5432 13.2446L1.9968 10.697C1.54687 10.2469 1.29411 9.63659 1.29411 9.0002C1.29411 8.3638 1.54687 7.75346 1.9968 7.3034L5.3904 3.9086C5.574 3.725 5.7804 3.5774 6 3.4658V1.8002ZM6 6.6002V4.997L3.1968 7.8002H10.7808C10.7233 7.61266 10.6207 7.44209 10.482 7.3034L7.9368 4.757C7.73896 4.55949 7.47836 4.43725 7.2 4.4114V6.6002C7.2 6.75933 7.13679 6.91194 7.02427 7.02446C6.91174 7.13698 6.75913 7.2002 6.6 7.2002C6.44087 7.2002 6.28826 7.13698 6.17574 7.02446C6.06322 6.91194 6 6.75933 6 6.6002ZM2.4936 9.0002C2.4936 9.3074 2.6112 9.6146 2.8452 9.8486L5.3904 12.3938C5.50185 12.5054 5.63419 12.5939 5.77987 12.6543C5.92555 12.7147 6.0817 12.7457 6.2394 12.7457C6.3971 12.7457 6.55325 12.7147 6.69893 12.6543C6.84461 12.5939 6.97695 12.5054 7.0884 12.3938L10.482 9.0002H2.4936ZM12.1944 10.1114L12.4524 9.8006C12.5087 9.73755 12.5777 9.6871 12.6548 9.65256C12.7319 9.61802 12.8155 9.60016 12.9 9.60016C12.9845 9.60016 13.0681 9.61802 13.1452 9.65256C13.2224 9.6871 13.2913 9.73755 13.3476 9.8006L13.6056 10.1126C13.7544 10.301 13.9536 10.5686 14.1552 10.8806C14.5368 11.477 15 12.3542 15 13.2002C15 14.411 14.1924 15.6002 12.9 15.6002C11.6064 15.6002 10.8 14.411 10.8 13.2002C10.8 12.3542 11.2632 11.477 11.6448 10.8818C11.8452 10.5686 12.0444 10.301 12.1944 10.1114ZM12.9 11.1686C12.8153 11.2865 12.7337 11.4065 12.6552 11.5286C12.288 12.1022 12 12.7262 12 13.2002C12 13.5518 12.12 13.8794 12.2976 14.099C12.3672 14.193 12.4581 14.2693 12.5628 14.3217C12.6674 14.374 12.783 14.4009 12.9 14.4002C13.017 14.4009 13.1326 14.374 13.2372 14.3217C13.3419 14.2693 13.4328 14.193 13.5024 14.099C13.6984 13.8406 13.8031 13.5245 13.8 13.2002C13.8 12.725 13.512 12.1022 13.1448 11.5286C13.0663 11.4065 12.9847 11.2865 12.9 11.1686Z" fill="#14B8A6"/>
</svg>
