<svg width="32" height="32" viewBox="0 0 32 32" fill="none" xmlns="http://www.w3.org/2000/svg">
<path d="M22.6666 29.333V25.333H9.33326C8.59992 25.333 7.97237 25.0721 7.45059 24.5503C6.92881 24.0286 6.66748 23.4006 6.66659 22.6663V9.33301H2.66659C2.28881 9.33301 1.97237 9.20501 1.71726 8.94901C1.46215 8.69301 1.33415 8.37657 1.33326 7.99968C1.33237 7.62279 1.46037 7.30635 1.71726 7.05035C1.97415 6.79435 2.29059 6.66635 2.66659 6.66635H6.66659V2.66635C6.66659 2.28857 6.79459 1.97212 7.05059 1.71701C7.30659 1.4619 7.62303 1.3339 7.99992 1.33301C8.37681 1.33212 8.6937 1.46012 8.95059 1.71701C9.20748 1.9739 9.33503 2.29035 9.33326 2.66635V22.6663H29.3333C29.711 22.6663 30.0279 22.7943 30.2839 23.0503C30.5399 23.3063 30.6675 23.6228 30.6666 23.9997C30.6657 24.3766 30.5377 24.6935 30.2826 24.9503C30.0275 25.2072 29.711 25.3348 29.3333 25.333H25.3333V29.333C25.3333 29.7108 25.2053 30.0277 24.9493 30.2837C24.6933 30.5397 24.3768 30.6672 23.9999 30.6663C23.623 30.6655 23.3066 30.5375 23.0506 30.2823C22.7946 30.0272 22.6666 29.7108 22.6666 29.333ZM22.6666 19.9997V9.33301H11.9999V6.66635H22.6666C23.3999 6.66635 24.0279 6.92768 24.5506 7.45035C25.0733 7.97301 25.3341 8.60057 25.3333 9.33301V19.9997H22.6666Z" fill="#475569"/>
</svg>
