<svg width="22" height="24" viewBox="0 0 22 24" fill="none" xmlns="http://www.w3.org/2000/svg">
<path d="M4.33326 24C3.59992 24 2.97237 23.7391 2.45059 23.2173C1.92881 22.6956 1.66748 22.0676 1.66659 21.3333V4C1.28881 4 0.972368 3.872 0.717257 3.616C0.462146 3.36 0.334145 3.04356 0.333257 2.66667C0.332368 2.28978 0.460368 1.97333 0.717257 1.71733C0.974146 1.46133 1.29059 1.33333 1.66659 1.33333H6.99992C6.99992 0.955556 7.12792 0.639111 7.38392 0.384C7.63992 0.128889 7.95637 0.000888889 8.33326 0H13.6666C14.0444 0 14.3613 0.128 14.6173 0.384C14.8733 0.64 15.0008 0.956445 14.9999 1.33333H20.3333C20.711 1.33333 21.0279 1.46133 21.2839 1.71733C21.5399 1.97333 21.6675 2.28978 21.6666 2.66667C21.6657 3.04356 21.5377 3.36044 21.2826 3.61733C21.0275 3.87422 20.711 4.00178 20.3333 4V21.3333C20.3333 22.0667 20.0724 22.6947 19.5506 23.2173C19.0288 23.74 18.4008 24.0009 17.6666 24H4.33326ZM17.6666 4H4.33326V21.3333H17.6666V4ZM8.33326 18.6667C8.71103 18.6667 9.02792 18.5387 9.28392 18.2827C9.53992 18.0267 9.66748 17.7102 9.66659 17.3333V8C9.66659 7.62222 9.53859 7.30578 9.28259 7.05067C9.02659 6.79556 8.71015 6.66756 8.33326 6.66667C7.95637 6.66578 7.63992 6.79378 7.38392 7.05067C7.12792 7.30756 6.99992 7.624 6.99992 8V17.3333C6.99992 17.7111 7.12792 18.028 7.38392 18.284C7.63992 18.54 7.95637 18.6676 8.33326 18.6667ZM13.6666 18.6667C14.0444 18.6667 14.3613 18.5387 14.6173 18.2827C14.8733 18.0267 15.0008 17.7102 14.9999 17.3333V8C14.9999 7.62222 14.8719 7.30578 14.6159 7.05067C14.3599 6.79556 14.0435 6.66756 13.6666 6.66667C13.2897 6.66578 12.9733 6.79378 12.7173 7.05067C12.4613 7.30756 12.3333 7.624 12.3333 8V17.3333C12.3333 17.7111 12.4613 18.028 12.7173 18.284C12.9733 18.54 13.2897 18.6676 13.6666 18.6667Z" fill="#FF0000"/>
</svg>
