<svg width="30" height="30" viewBox="0 0 30 30" fill="none" xmlns="http://www.w3.org/2000/svg">
<path d="M15 26.222C16.4654 27.5361 18.365 28.2618 20.3333 28.2593C24.7513 28.2593 28.3333 24.6773 28.3333 20.2593C28.3333 16.7253 26.042 13.726 22.864 12.668" stroke="#475569" stroke-width="2.66667" stroke-linecap="round" stroke-linejoin="round"/>
<path d="M17.1141 17.3335C17.4707 18.2395 17.6667 19.2268 17.6667 20.2602C17.6667 24.6782 14.0847 28.2602 9.66675 28.2602C5.24808 28.2602 1.66675 24.6782 1.66675 20.2602C1.66675 16.7162 3.97008 13.7108 7.16141 12.6602" stroke="#475569" stroke-width="2.66667" stroke-linecap="round" stroke-linejoin="round"/>
<path d="M15 17.5938C19.418 17.5938 23 14.0118 23 9.59375C23 5.17508 19.418 1.59375 15 1.59375C10.582 1.59375 7 5.17508 7 9.59375C7 14.0118 10.582 17.5938 15 17.5938Z" stroke="#475569" stroke-width="2.66667" stroke-linecap="round" stroke-linejoin="round"/>
</svg>
