<svg width="22" height="22" viewBox="0 0 22 22" fill="none" xmlns="http://www.w3.org/2000/svg">
<path d="M11 2C9.8181 2 8.64778 2.23279 7.55585 2.68508C6.46392 3.13738 5.47177 3.80031 4.63604 4.63604C3.80031 5.47177 3.13738 6.46392 2.68508 7.55585C2.23279 8.64778 2 9.8181 2 11C2 12.1819 2.23279 13.3522 2.68508 14.4442C3.13738 15.5361 3.80031 16.5282 4.63604 17.364C5.47177 18.1997 6.46392 18.8626 7.55585 19.3149C8.64778 19.7672 9.8181 20 11 20C13.3869 20 15.6761 19.0518 17.364 17.364C19.0518 15.6761 20 13.3869 20 11C20 8.61305 19.0518 6.32387 17.364 4.63604C15.6761 2.94821 13.3869 2 11 2ZM0 11C0 4.925 4.925 0 11 0C17.075 0 22 4.925 22 11C22 17.075 17.075 22 11 22C4.925 22 0 17.075 0 11ZM7 7.5V8.5C7 8.63261 7.05268 8.75979 7.14645 8.85355C7.24021 8.94732 7.36739 9 7.5 9C7.63261 9 7.75979 8.94732 7.85355 8.85355C7.94732 8.75979 8 8.63261 8 8.5V7.5H10V8.5C10 9.16304 9.73661 9.79893 9.26777 10.2678C8.79893 10.7366 8.16304 11 7.5 11C6.83696 11 6.20107 10.7366 5.73223 10.2678C5.26339 9.79893 5 9.16304 5 8.5V7.5H7ZM14 7.5V8.5C14 8.63261 14.0527 8.75979 14.1464 8.85355C14.2402 8.94732 14.3674 9 14.5 9C14.6326 9 14.7598 8.94732 14.8536 8.85355C14.9473 8.75979 15 8.63261 15 8.5V7.5H17V8.5C17 9.16304 16.7366 9.79893 16.2678 10.2678C15.7989 10.7366 15.163 11 14.5 11C13.837 11 13.2011 10.7366 12.7322 10.2678C12.2634 9.79893 12 9.16304 12 8.5V7.5H14ZM7.9 12.634L8.4 13.499C8.922 14.4 9.89 15 11 15C12.11 15 13.08 14.399 13.6 13.5L14.1 12.634L15.831 13.635L15.331 14.501C14.892 15.261 14.2606 15.8921 13.5003 16.3308C12.7401 16.7694 11.8777 17.0003 11 17C10.1223 17 9.26014 16.7689 8.50007 16.3301C7.74 15.8913 7.10883 15.2601 6.67 14.5L6.169 13.635L7.9 12.634Z" fill="#14B8A6"/>
</svg>
