<svg width="20" height="20" viewBox="0 0 20 20" fill="none" xmlns="http://www.w3.org/2000/svg">
<path d="M11 0V20H9V0H11ZM15 4V16H18V4H15ZM18 2C18.5304 2 19.0391 2.21071 19.4142 2.58579C19.7893 2.96086 20 3.46957 20 4V16C20 16.5304 19.7893 17.0391 19.4142 17.4142C19.0391 17.7893 18.5304 18 18 18H15C14.4696 18 13.9609 17.7893 13.5858 17.4142C13.2107 17.0391 13 16.5304 13 16V4C13 3.46957 13.2107 2.96086 13.5858 2.58579C13.9609 2.21071 14.4696 2 15 2H18ZM7 4C7 3.46957 6.78929 2.96086 6.41421 2.58579C6.03914 2.21071 5.53043 2 5 2H2C1.46957 2 0.960859 2.21071 0.585787 2.58579C0.210714 2.96086 0 3.46957 0 4V16C0 16.5304 0.210714 17.0391 0.585787 17.4142C0.960859 17.7893 1.46957 18 2 18H5C5.53043 18 6.03914 17.7893 6.41421 17.4142C6.78929 17.0391 7 16.5304 7 16V4Z" fill="#475569"/>
</svg>
