<svg width="38" height="46" viewBox="0 0 38 46" fill="none" xmlns="http://www.w3.org/2000/svg">
<path fill-rule="evenodd" clip-rule="evenodd" d="M19 0.166504C23.9728 0.166504 28.7419 2.14194 32.2583 5.65825C35.7746 9.17456 37.75 13.9437 37.75 18.9165C37.75 25.3207 34.2583 30.5623 30.5792 34.3228C28.741 36.1812 26.7353 37.8661 24.5875 39.3561L23.7 39.9603L23.2833 40.2373L22.4979 40.7373L21.7979 41.1644L20.9312 41.6686C20.343 42.0044 19.6773 42.181 19 42.181C18.3227 42.181 17.657 42.0044 17.0687 41.6686L16.2021 41.1644L15.1187 40.4977L14.7187 40.2373L13.8646 39.6686C11.5476 38.1009 9.38938 36.3105 7.42083 34.3228C3.74167 30.5603 0.25 25.3207 0.25 18.9165C0.25 13.9437 2.22544 9.17456 5.74175 5.65825C9.25805 2.14194 14.0272 0.166504 19 0.166504ZM19 4.33317C15.1323 4.33317 11.4229 5.86962 8.68803 8.60453C5.95312 11.3394 4.41667 15.0488 4.41667 18.9165C4.41667 23.754 7.06667 27.9998 10.3979 31.4082C11.8303 32.8582 13.3785 34.1889 15.0271 35.3873L15.9812 36.0665C16.2896 36.2818 16.5861 36.4818 16.8708 36.6665L17.6833 37.1873L18.3979 37.6228L19 37.9748L19.9479 37.4144L20.7125 36.9353C21.1194 36.6769 21.5549 36.3873 22.0187 36.0665L22.9729 35.3873C24.6215 34.1889 26.1697 32.8582 27.6021 31.4082C30.9333 28.0019 33.5833 23.754 33.5833 18.9165C33.5833 15.0488 32.0469 11.3394 29.312 8.60453C26.5771 5.86962 22.8677 4.33317 19 4.33317ZM19 10.5832C21.2101 10.5832 23.3298 11.4611 24.8926 13.0239C26.4554 14.5868 27.3333 16.7064 27.3333 18.9165C27.3333 21.1266 26.4554 23.2463 24.8926 24.8091C23.3298 26.3719 21.2101 27.2498 19 27.2498C16.7899 27.2498 14.6702 26.3719 13.1074 24.8091C11.5446 23.2463 10.6667 21.1266 10.6667 18.9165C10.6667 16.7064 11.5446 14.5868 13.1074 13.0239C14.6702 11.4611 16.7899 10.5832 19 10.5832ZM19 14.7498C17.8949 14.7498 16.8351 15.1888 16.0537 15.9702C15.2723 16.7516 14.8333 17.8114 14.8333 18.9165C14.8333 20.0216 15.2723 21.0814 16.0537 21.8628C16.8351 22.6442 17.8949 23.0832 19 23.0832C20.1051 23.0832 21.1649 22.6442 21.9463 21.8628C22.7277 21.0814 23.1667 20.0216 23.1667 18.9165C23.1667 17.8114 22.7277 16.7516 21.9463 15.9702C21.1649 15.1888 20.1051 14.7498 19 14.7498Z" fill="#14B8A6"/>
</svg>
