<svg width="16" height="20" viewBox="0 0 16 20" fill="none" xmlns="http://www.w3.org/2000/svg">
<path d="M0 2.99966C1.89967e-05 2.86668 0.026561 2.73503 0.078073 2.61244C0.129585 2.48984 0.205033 2.37874 0.3 2.28566C1.38984 1.21729 2.84585 0.604388 4.37166 0.571691C5.89746 0.538994 7.37839 1.08896 8.513 2.10966L8.864 2.43766C9.59343 3.07675 10.5302 3.42908 11.5 3.42908C12.4698 3.42908 13.4066 3.07675 14.136 2.43766L14.385 2.21066C14.995 1.72766 15.912 2.11366 15.995 2.88666L16 2.99966V11.9997C16 12.1326 15.9734 12.2643 15.9219 12.3869C15.8704 12.5095 15.795 12.6206 15.7 12.7137C14.6102 13.782 13.1542 14.3949 11.6283 14.4276C10.1025 14.4603 8.62161 13.9103 7.487 12.8897L7.136 12.5617C6.42953 11.9427 5.52777 11.592 4.58872 11.5712C3.64967 11.5503 2.73323 11.8606 2 12.4477V18.9997C1.99972 19.2545 1.90212 19.4997 1.72715 19.685C1.55218 19.8704 1.31305 19.9819 1.05861 19.9968C0.804163 20.0118 0.553621 19.929 0.358168 19.7654C0.162715 19.6018 0.0371036 19.3698 0.00699997 19.1167L0 18.9997V2.99966Z" fill="#1E00FF"/>
</svg>
