
<svg width="20" height="20" viewBox="0 0 20 20" fill="none" xmlns="http://www.w3.org/2000/svg">
<path d="M19.6 10.0004C19.6 9.36387 19.3472 8.75342 18.8971 8.30334C18.447 7.85325 17.8365 7.60039 17.2 7.60039H2.80002C2.1635 7.60039 1.55306 7.85325 1.10297 8.30334C0.652881 8.75342 0.400024 9.36387 0.400024 10.0004C0.400024 10.6369 0.652881 11.2474 1.10297 11.6974C1.55306 12.1475 2.1635 12.4004 2.80002 12.4004H17.2C17.8365 12.4004 18.447 12.1475 18.8971 11.6974C19.3472 11.2474 19.6 10.6369 19.6 10.0004ZM10 2.80039C10 2.16387 9.74717 1.55342 9.29708 1.10333C8.84699 0.653247 8.23654 0.400391 7.60002 0.400391H2.80002C2.1635 0.400391 1.55306 0.653247 1.10297 1.10333C0.652881 1.55342 0.400024 2.16387 0.400024 2.80039C0.400024 3.43691 0.652881 4.04736 1.10297 4.49745C1.55306 4.94753 2.1635 5.20039 2.80002 5.20039H7.60002C8.23654 5.20039 8.84699 4.94753 9.29708 4.49745C9.74717 4.04736 10 3.43691 10 2.80039ZM14.8 17.2004C14.8 16.5639 14.5472 15.9534 14.0971 15.5033C13.647 15.0532 13.0365 14.8004 12.4 14.8004H2.80002C2.1635 14.8004 1.55306 15.0532 1.10297 15.5033C0.652881 15.9534 0.400024 16.5639 0.400024 17.2004C0.400024 17.8369 0.652881 18.4474 1.10297 18.8974C1.55306 19.3475 2.1635 19.6004 2.80002 19.6004H12.4C13.0365 19.6004 13.647 19.3475 14.0971 18.8974C14.5472 18.4474 14.8 17.8369 14.8 17.2004Z" fill="#14B8A6"/>
</svg>
