<svg width="21" height="18" viewBox="0 0 21 18" fill="none" xmlns="http://www.w3.org/2000/svg">
<path d="M7.5 9C8.69347 9 9.83807 8.52589 10.682 7.68198C11.5259 6.83807 12 5.69347 12 4.5C12 3.30653 11.5259 2.16193 10.682 1.31802C9.83807 0.474106 8.69347 0 7.5 0C6.30653 0 5.16193 0.474106 4.31802 1.31802C3.47411 2.16193 3 3.30653 3 4.5C3 5.69347 3.47411 6.83807 4.31802 7.68198C5.16193 8.52589 6.30653 9 7.5 9ZM19 6C19 6.79565 18.6839 7.55871 18.1213 8.12132C17.5587 8.68393 16.7956 9 16 9C15.2044 9 14.4413 8.68393 13.8787 8.12132C13.3161 7.55871 13 6.79565 13 6C13 5.20435 13.3161 4.44129 13.8787 3.87868C14.4413 3.31607 15.2044 3 16 3C16.7956 3 17.5587 3.31607 18.1213 3.87868C18.6839 4.44129 19 5.20435 19 6ZM7.5 10C9.493 10 11.305 10.608 12.637 11.466C13.304 11.896 13.875 12.403 14.29 12.956C14.697 13.501 15 14.156 15 14.857C15 15.612 14.65 16.217 14.136 16.654C13.651 17.064 13.019 17.33 12.366 17.513C11.053 17.88 9.316 18 7.5 18C5.684 18 3.947 17.88 2.635 17.513C1.981 17.33 1.349 17.064 0.865 16.654C0.349 16.218 0 15.612 0 14.857C0 14.155 0.303 13.501 0.71 12.957C1.125 12.403 1.696 11.895 2.363 11.467C3.695 10.607 5.507 10 7.5 10ZM16 10C17.32 10 18.518 10.436 19.4 11.051C20.222 11.624 21 12.528 21 13.571C21 14.158 20.747 14.644 20.362 14.997C20.005 15.325 19.553 15.525 19.118 15.657C18.248 15.92 17.128 16 16 16H15.797C15.927 15.652 16 15.27 16 14.857C16 13.867 15.577 13.007 15.09 12.357C14.604 11.708 13.96 11.137 13.241 10.666C14.095 10.2287 15.0406 10.0005 16 10Z" fill="#14B8A6"/>
</svg>
