<svg width="20" height="20" viewBox="0 0 20 20" fill="none" xmlns="http://www.w3.org/2000/svg">
<path d="M6.813 9.612C7.27 9.232 7.731 9.232 8.199 9.623L8.307 9.721L13.293 14.707L13.387 14.79C13.5794 14.9391 13.8196 15.013 14.0626 14.9976C14.3056 14.9823 14.5346 14.8789 14.7067 14.7067C14.8789 14.5346 14.9823 14.3056 14.9976 14.0626C15.013 13.8196 14.9391 13.5794 14.79 13.387L14.707 13.293L13.415 12L13.707 11.707L13.813 11.612C14.27 11.232 14.731 11.232 15.199 11.623L15.307 11.721L19.981 16.396C19.8863 17.3483 19.4534 18.235 18.7608 18.8954C18.0681 19.5557 17.1617 19.9459 16.206 19.995L16 20H4C3.00791 19.9999 2.05124 19.6312 1.31576 18.9654C0.580275 18.2996 0.118465 17.3842 0.02 16.397L6.707 9.707L6.813 9.612ZM16 0C17.0262 -8.02754e-07 18.0132 0.394435 18.7568 1.10172C19.5004 1.80901 19.9437 2.77504 19.995 3.8L20 4V13.585L16.707 10.293L16.557 10.156C15.301 9.061 13.707 9.059 12.461 10.139L12.307 10.279L12 10.585L9.707 8.293L9.557 8.156C8.301 7.061 6.707 7.059 5.461 8.139L5.307 8.279L0 13.585V4C-8.02754e-07 2.97376 0.394435 1.98677 1.10172 1.24319C1.80901 0.499605 2.77504 0.0563122 3.8 0.00500011L4 0H16ZM13.01 5L12.883 5.007C12.64 5.03591 12.4159 5.15296 12.2534 5.33596C12.0909 5.51897 12.0011 5.75524 12.0011 6C12.0011 6.24476 12.0909 6.48103 12.2534 6.66403C12.4159 6.84704 12.64 6.96409 12.883 6.993L13 7L13.127 6.993C13.37 6.96409 13.5941 6.84704 13.7566 6.66403C13.9191 6.48103 14.0089 6.24476 14.0089 6C14.0089 5.75524 13.9191 5.51897 13.7566 5.33596C13.5941 5.15296 13.37 5.03591 13.127 5.007L13.01 5Z" fill="#04D01C"/>
</svg>
