<svg width="20" height="16" viewBox="0 0 20 16" fill="none" xmlns="http://www.w3.org/2000/svg">
<path d="M19.7062 11.4031L16.8844 8.58438C16.5094 8.20938 16 8 15.4688 8H12.9906C12.4375 8 11.9906 8.44687 11.9906 9V11.475C11.9906 12.0063 12.2 12.5125 12.575 12.8875L15.3969 15.7063C15.7875 16.0969 16.4219 16.0969 16.8125 15.7063L19.7031 12.8156C20.0969 12.425 20.0969 11.7937 19.7062 11.4031ZM13.9937 10.7469C13.5781 10.7469 13.2437 10.4125 13.2437 9.99687C13.2437 9.58125 13.5781 9.24687 13.9937 9.24687C14.4094 9.24687 14.7437 9.58125 14.7437 9.99687C14.7437 10.4094 14.4094 10.7469 13.9937 10.7469ZM7 7.99687C9.20938 7.99687 11 6.20625 11 3.99688C11 1.79063 9.20938 0 7 0C4.79063 0 3 1.79063 3 4C3 6.20625 4.79063 7.99687 7 7.99687ZM10.9937 11.4719V9.1875C10.6125 9.075 10.2156 8.99375 9.8 8.99375H9.27812C8.58437 9.3125 7.8125 9.49375 7 9.49375C6.1875 9.49375 5.41875 9.3125 4.72188 8.99375H4.2C1.88125 8.99687 0 10.8781 0 13.1969V14.4969C0 15.325 0.671875 15.9969 1.5 15.9969H12.5C12.9844 15.9969 13.4094 15.7625 13.6844 15.4062L11.8719 13.5938C11.3062 13.0281 10.9937 12.275 10.9937 11.4719Z" fill="#14B8A6"/>
</svg>
