<svg width="30" height="24" viewBox="0 0 30 24" fill="none" xmlns="http://www.w3.org/2000/svg">
<g clip-path="url(#clip0_5001_16594)">
<path d="M27.5 19V5C27.5 4.73478 27.3683 4.48043 27.1339 4.29289C26.8995 4.10536 26.5815 4 26.25 4H3.75C3.41848 4 3.10054 4.10536 2.86612 4.29289C2.6317 4.48043 2.5 4.73478 2.5 5V19C2.5 19.2652 2.6317 19.5196 2.86612 19.7071C3.10054 19.8946 3.41848 20 3.75 20H26.25C26.5815 20 26.8995 19.8946 27.1339 19.7071C27.3683 19.5196 27.5 19.2652 27.5 19Z" stroke="#475569" stroke-width="2"/>
</g>
<defs>
<clipPath id="clip0_5001_16594">
<rect width="24" height="30" fill="white" transform="matrix(0 1 -1 0 30 0)"/>
</clipPath>
</defs>
</svg>
