<svg width="24" height="24" viewBox="0 0 24 24" fill="none" xmlns="http://www.w3.org/2000/svg">
<path d="M14.392 2.66701L6.25101 6.99551C4.60951 7.86801 3.78201 9.84701 4.49501 11.5635C4.76791 12.2269 5.23489 12.7924 5.83472 13.1859C6.43456 13.5794 7.13927 13.7825 7.85651 13.7685C8.07151 13.764 8.14651 14.0485 7.95651 14.1495L6.40151 14.976C4.76051 15.8495 3.93301 17.8285 4.64601 19.5445C4.83525 20.0038 5.11853 20.4184 5.47761 20.7617C5.83669 21.1049 6.26364 21.3692 6.73099 21.5376C7.19835 21.7059 7.69576 21.7746 8.19125 21.7392C8.68674 21.7038 9.16934 21.5651 9.60801 21.332L17.7495 17.0035C19.3905 16.131 20.218 14.152 19.505 12.4355C19.2321 11.7722 18.7652 11.2067 18.1655 10.8133C17.5658 10.4198 16.8612 10.2167 16.144 10.2305C15.9285 10.235 15.854 9.95051 16.044 9.84951L17.599 9.02251C19.2395 8.15001 20.067 6.17101 19.354 4.45451C19.1648 3.99529 18.8815 3.58075 18.5224 3.23754C18.1634 2.89434 17.7365 2.63006 17.2692 2.46171C16.8019 2.29336 16.3046 2.22465 15.8091 2.26001C15.3137 2.29537 14.8307 2.434 14.392 2.66701Z" fill="#C400FF" stroke="#C300FF" stroke-linecap="round" stroke-linejoin="round"/>
<path d="M14.702 12.127L10.1555 9.50195V14.752L14.702 12.127Z" fill="white"/>
</svg>
