<svg width="20" height="18" viewBox="0 0 20 18" fill="none" xmlns="http://www.w3.org/2000/svg">
<path d="M8.69269 0C3.89184 0 0 4.02942 0 9C0 13.9706 3.89184 18 8.69269 18C9.84834 18 10.9741 17.7659 12.0203 17.3167C12.9579 16.9142 13.8188 16.3441 14.565 15.6359L14.8393 15.3639L13.4734 13.9498C12.8455 14.5999 12.1002 15.1173 11.2803 15.4693C10.4678 15.8182 9.5933 16 8.69269 16C4.95867 16 1.93172 12.866 1.93172 9C1.93172 5.13398 4.95867 2.00002 8.69269 2.00002C12.2877 2.00002 15.2273 4.90505 15.4412 8.57147L14.2049 7.29291L12.839 8.70712L16.4195 12.4142L20 8.70712L18.6341 7.29291L17.3767 8.59416C17.1717 3.81192 13.3621 0 8.69269 0Z" fill="#475569"/>
</svg>
