<svg width="32" height="32" viewBox="0 0 32 32" fill="none" xmlns="http://www.w3.org/2000/svg">
<path d="M15.9999 3.99967C12.8173 3.99967 9.76507 5.26396 7.51464 7.51439C5.2642 9.76483 3.99992 12.8171 3.99992 15.9997C3.99992 19.1823 5.2642 22.2345 7.51464 24.485C9.76507 26.7354 12.8173 27.9997 15.9999 27.9997C18.3356 28.0005 20.6208 27.3198 22.5752 26.0408C24.5296 24.7619 26.0683 22.9404 27.0026 20.7997L27.5359 19.577L29.9799 20.645L29.4466 21.8663C28.3048 24.4826 26.4243 26.7088 24.0358 28.2719C21.6472 29.835 18.8545 30.6672 15.9999 30.6663C7.89992 30.6663 1.33325 24.0997 1.33325 15.9997C1.33325 7.89967 7.89992 1.33301 15.9999 1.33301C24.0999 1.33301 30.6666 7.89967 30.6666 15.9997V18.6663L24.7999 14.2663L26.3999 12.133L27.6373 13.061C26.9822 10.4712 25.482 8.17378 23.3742 6.53255C21.2663 4.89131 18.6713 3.99999 15.9999 3.99967Z" fill="#475569"/>
</svg>
