<svg width="20" height="18" viewBox="0 0 20 18" fill="none" xmlns="http://www.w3.org/2000/svg">
<path d="M11.3073 0C16.1082 0 20 4.02942 20 9C20 13.9706 16.1082 18 11.3073 18C10.1517 18 9.02591 17.7659 7.97975 17.3167C7.04211 16.9142 6.18116 16.3441 5.43505 15.6359L5.16069 15.3639L6.52662 13.9498C7.15452 14.5999 7.89978 15.1173 8.71967 15.4693C9.53225 15.8182 10.4067 16 11.3073 16C15.0413 16 18.0683 12.866 18.0683 9C18.0683 5.13398 15.0413 2.00002 11.3073 2.00002C7.71233 2.00002 4.7727 4.90505 4.55881 8.57147L5.79509 7.29291L7.16103 8.70712L3.58053 12.4142L-1.52588e-05 8.70712L1.36592 7.29291L2.62334 8.59416C2.82833 3.81192 6.63786 0 11.3073 0Z" fill="#475569"/>
</svg>
