<svg width="24" height="16" viewBox="0 0 24 16" fill="none" xmlns="http://www.w3.org/2000/svg">
<g clip-path="url(#clip0_5001_16637)">
<path d="M3 12.6667C3 13.0333 3.19567 13.3471 3.587 13.608C3.97833 13.8689 4.44933 13.9996 5 14H19C19.55 14 20.0207 13.8693 20.412 13.608C20.8033 13.3467 20.9993 13.0329 21 12.6667V3.33333C21 2.96667 20.804 2.65267 20.412 2.39133C20.02 2.13 19.5493 1.99955 19 2H5C4.45 2 3.979 2.13044 3.587 2.39133C3.195 2.65222 2.99933 2.96622 3 3.33333V12.6667ZM5 12.6667V3.33333H19V12.6667H5Z" fill="#475569"/>
</g>
<defs>
<clipPath id="clip0_5001_16637">
<rect width="16" height="24" fill="white" transform="matrix(0 -1 -1 0 24 16)"/>
</clipPath>
</defs>
</svg>
