<svg width="30" height="30" viewBox="0 0 30 30" fill="none" xmlns="http://www.w3.org/2000/svg">
<path d="M18.9713 6.47105C17.6175 7.82605 15.0462 7.4523 15.0462 7.4523C15.0462 7.4523 14.6737 4.8823 16.0287 3.5273C17.3825 2.17355 19.9538 2.5473 19.9538 2.5473C19.9538 2.5473 20.3263 5.11605 18.9713 6.47105ZM5 17.5748C5 21.676 7.745 26.3873 10.5237 27.3835C11.4862 27.7285 12.4825 27.2523 13.31 26.6585C13.9375 26.2085 14.6975 25.7798 15.3125 25.7798C15.925 25.7798 16.6875 26.2085 17.3137 26.6585C18.1412 27.2523 19.1375 27.7285 20.1012 27.3835C22.075 26.676 24.0325 24.0923 25 21.1835C23.125 20.646 21.7575 18.951 21.7575 16.9423C21.7575 15.1023 22.9062 13.5248 24.54 12.861C23.4875 10.991 21.7675 9.9998 19.8238 9.9998C18.8188 9.9998 17.8937 10.4048 17.1487 10.891C15.9562 11.666 14.6675 11.666 13.4763 10.891C12.73 10.4048 11.8062 9.9998 10.8012 9.9998C7.59625 9.9998 5 12.6935 5 17.5748Z" stroke="#14B8A6" stroke-width="1.875" stroke-linecap="round" stroke-linejoin="round"/>
</svg>
