<svg width="24" height="22" viewBox="0 0 24 22" fill="none" xmlns="http://www.w3.org/2000/svg">
<path d="M0.480005 0.879883C0.320875 0.879883 0.168263 0.943097 0.0557408 1.05562C-0.056781 1.16814 -0.119995 1.32075 -0.119995 1.47988V18.5199C-0.119995 18.679 -0.056781 18.8316 0.0557408 18.9441C0.168263 19.0567 0.320875 19.1199 0.480005 19.1199H16.5312C16.3218 18.8437 16.1118 18.5677 15.9014 18.2919C15.6394 17.9052 15.2587 17.5743 15.1471 17.1044C13.6039 17.7413 11.8308 17.8004 10.2473 17.2716C10.2125 17.2604 10.1784 17.2464 10.1438 17.2347C9.96216 17.4123 9.76632 17.7219 9.73536 17.9199H7.45368C7.62504 17.3393 7.2612 16.4328 7.60536 15.842C7.63272 15.8348 7.66584 15.7884 7.68096 15.7407C7.64209 15.7042 7.60273 15.6687 7.56481 15.6315C7.22737 15.7342 7.09248 15.9884 6.9048 16.2113C7.00728 16.6971 6.2676 16.5821 6.34225 17.0777C6.85752 17.4773 5.86656 17.1728 5.57184 17.2047C5.25912 17.208 4.34424 16.8807 4.66176 17.5503C4.61208 17.7341 4.65792 17.8469 4.74936 17.9199H4.6092C4.58736 17.7096 4.19136 17.6784 4.03872 17.5752C3.78168 17.5128 3.47473 17.4816 3.20856 17.3631C3.14016 17.5532 2.52288 17.7706 2.38776 17.9199H1.08V9.15244C1.26408 9.2758 1.67688 9.22684 1.11432 8.96044H1.08V6.19708C1.1892 6.14188 1.2672 6.12436 1.2624 6.21676C1.53288 6.12556 1.65072 5.46724 2.11872 5.73676C2.41056 5.77972 2.89344 6.23212 2.6508 6.28876C2.83992 6.75052 2.97408 6.45316 3.20616 7.00348C3.04728 7.75612 3.65568 8.31388 3.98952 8.79364C4.38936 8.95972 4.54752 9.47668 5.19744 9.49684C5.28576 9.57412 5.39904 9.6442 5.51713 9.7114C5.54977 9.46308 5.59512 9.21716 5.6532 8.97364C5.6376 8.97004 5.62248 8.96788 5.60568 8.96236C4.98048 9.53908 4.85232 8.54068 5.46288 8.50156C5.50368 8.499 5.54768 8.501 5.59488 8.50756C5.66568 8.49916 5.72448 8.50756 5.77416 8.52508C5.97468 7.86778 6.27176 7.24393 6.65568 6.67396C6.86204 6.36643 7.09347 6.07648 7.3476 5.80708C7.22136 5.59588 7.09224 5.47804 6.93984 5.7538C6.92832 5.3446 5.82192 4.91572 6.636 5.30836C7.06296 5.67628 7.20288 5.24452 7.27032 4.9498C7.63632 4.5682 6.8952 4.43788 7.03032 4.18852C6.80568 3.8518 6.47304 3.50692 6.13129 3.29836C5.4684 3.37516 5.23608 3.23524 6.1224 3.23476C6.20232 2.82076 6.33504 2.52748 6.42649 2.179C6.33048 2.1514 6.23017 2.15572 6.13129 2.15548C5.7072 2.0986 5.45544 2.26252 5.46408 2.58628C5.1456 2.56084 5.43168 2.01796 4.94064 2.1838C4.19617 2.17204 5.09616 2.42356 5.02704 2.4598C4.94184 2.65084 4.40544 2.5318 4.46856 2.72548C4.2228 2.27092 4.11096 2.9422 3.91968 2.48236C3.80449 2.37196 4.40208 2.59132 4.266 2.18884C3.96504 2.07364 3.85728 2.27524 3.6228 2.35756C2.92296 2.74492 3.74496 3.10924 4.1004 3.23836C4.63608 3.09556 4.6356 2.91508 5.00808 3.11356C5.42568 3.34516 4.5864 3.18244 4.61208 3.53884C4.56408 3.31732 4.50409 3.18364 4.24488 3.46756C3.89928 3.52996 3.74496 3.055 3.48696 3.08836C2.89896 3.00844 3.11856 4.33084 3.60288 3.8806C3.89592 4.38772 3.22848 4.01356 3.03048 3.95692C2.58336 4.45636 2.10168 3.94396 1.56792 3.92332C1.39704 3.80956 1.22952 3.80812 1.08 3.86596V2.07988H7.37352C6.92472 2.09212 6.52392 2.1514 6.68712 2.4742C6.66073 3.09676 7.46616 2.60236 7.58208 3.1654C7.91664 3.55876 7.38312 4.39516 7.96176 4.24828C7.74888 4.50724 7.77552 4.9198 7.9416 5.245C8.55601 4.7294 9.25277 4.32082 10.0027 4.03636C10.0159 3.96244 10.0056 3.87748 9.96144 3.77716C9.88632 3.4006 10.2358 3.28036 10.1134 2.86276C10.278 2.54836 10.1503 2.21572 9.86808 2.07988H22.92V3.7786C22.8827 3.76276 22.8445 3.74929 22.8055 3.73828C22.4674 4.04476 22.7407 4.0738 22.92 4.00492V4.27276C22.5202 4.04788 22.081 4.02316 21.6545 4.11676C21.4608 3.78004 20.7751 3.78796 20.5495 3.48484C20.1521 3.00868 20.6707 3.15076 21.0175 3.11404C20.9191 2.81644 20.3287 2.67532 20.0794 2.72452C19.6289 2.97124 20.316 3.19252 20.2466 3.52372C20.2466 3.76444 19.9531 3.76612 19.697 3.75292C19.8005 3.49804 19.2067 3.1846 18.9713 3.39196C18.5256 3.25708 18.3557 3.33628 18.6497 2.87212C18.547 2.51524 18.1224 2.50852 17.9321 2.26084C17.689 2.77636 17.2836 2.62012 16.8492 2.93404C16.6752 3.18844 16.3128 3.41692 16.2948 3.58492C16.0255 3.7114 15.756 3.06604 15.5671 3.63772C15.3958 4.12156 15.5767 4.35604 14.9986 3.96004C14.4002 3.32236 16.2005 2.77612 15.5314 2.50468C14.976 2.66668 14.6422 3.05812 14.5318 3.6142C14.472 3.74068 14.4991 3.82876 14.5622 3.90004C16.6704 4.52884 18.415 6.2242 19.1242 8.30404C19.1352 8.17876 19.1561 8.05828 19.1981 7.9702C19.3754 7.83484 19.2348 8.4898 19.6013 8.11732C19.3313 8.69692 20.28 8.19412 20.4084 7.95484C20.2202 7.48252 21.0852 7.26004 21.065 7.171C20.7466 6.83692 20.9275 7.16932 20.5762 7.24588C20.4598 7.09084 20.7994 6.24076 20.3474 6.31876C19.6726 6.145 20.9215 5.64796 21.2587 5.83084C21.4123 5.26252 21.6331 5.71516 21.2537 5.97652C21.1092 6.48076 21.1783 7.1686 21.6034 6.49468C21.7944 6.30868 21.7469 5.82388 21.9955 5.7394C22.3296 5.58196 22.9258 5.45884 22.9102 4.97212C22.9135 4.97116 22.9166 4.9714 22.92 4.97068V17.9199H21.9698C22.1758 17.6348 22.4482 17.1471 22.1597 16.9702C21.725 16.8951 21.4003 16.3709 20.875 16.3928C20.6378 16.1196 20.0918 15.9814 19.945 15.9281C19.7981 15.8748 19.5432 16.1828 19.2821 16.0467C19.2035 16.0341 19.1233 16.0355 19.0452 16.051C19.831 17.071 20.6093 18.0965 21.3905 19.1199H23.52C23.6791 19.1199 23.8317 19.0567 23.9443 18.9441C24.0568 18.8316 24.12 18.679 24.12 18.5199V1.47988C24.12 1.32075 24.0568 1.16814 23.9443 1.05562C23.8317 0.943097 23.6791 0.879883 23.52 0.879883H0.480005ZM12.1656 2.15668C11.7792 2.347 12.4644 3.10468 12.4834 2.38132C12.5542 2.48692 13.0291 2.59348 12.8738 2.25292C12.5287 2.04964 12.581 2.2834 12.1654 2.15692M17.7048 2.1574C17.2879 2.36044 18.0696 2.36428 17.7048 2.1574V2.1574ZM4.4616 2.22628C4.1496 2.45812 4.91952 2.68756 4.5024 2.23852L4.4616 2.22628ZM7.01641 2.3638C6.93936 2.41204 7.0944 2.43868 7.01641 2.3638V2.3638ZM4.0032 2.6602C3.984 2.66332 4.03993 2.70268 4.0032 2.6602V2.6602ZM5.07192 2.75908C5.04312 2.91268 5.448 2.82436 5.07192 2.75908V2.75908ZM5.59872 2.80228C5.73 2.89108 5.95632 2.77948 5.59872 2.80228V2.80228ZM4.54872 2.81812C4.51896 2.92588 4.78128 2.84212 4.54872 2.81812V2.81812ZM5.2932 3.15604C5.17753 3.22924 5.5284 3.21028 5.2932 3.15604V3.15604ZM5.45904 3.5302C5.31744 3.98188 5.96232 4.5934 5.46192 4.0786C5.3244 3.87268 5.25288 3.6754 5.45904 3.5302ZM4.61952 3.5758C4.82568 3.9202 5.1396 4.01212 4.8768 4.13068C4.70232 4.0462 4.662 3.78316 4.61952 3.5758ZM7.85449 3.92284C7.77625 3.92764 7.88352 3.94228 7.85449 3.92284V3.92284ZM2.98824 4.03156C2.95104 4.03324 2.96136 4.14052 2.98824 4.03156V4.03156ZM4.8468 4.20772C4.73712 4.20364 4.83 4.43476 4.8468 4.20772V4.20772ZM6.22633 4.20916C6.13656 4.65316 6.49272 4.62484 6.46872 4.66948C6.17448 4.79908 6.2448 5.33284 6.01968 4.92556C5.8776 4.85932 6.09264 4.27324 6.18936 4.22188L6.22633 4.20916ZM4.77984 4.20964C4.77768 4.31356 4.81129 4.21684 4.77984 4.20964V4.20964ZM22.1405 4.24948C22.0987 4.29028 22.1501 4.2658 22.1405 4.24948V4.24948ZM4.79712 4.30756C4.57776 4.46356 4.9608 4.47892 4.79712 4.30756V4.30756ZM12.4238 4.54348C11.1151 4.55264 9.84479 4.98675 8.80416 5.78044C6.14256 7.80724 5.62464 11.628 7.65144 14.2896C9.54865 16.7811 13.013 17.382 15.6314 15.7868L16.1316 16.4436C16.0332 16.6726 16.0423 16.8915 16.1568 17.0422L19.7856 21.8074C20.0016 22.0908 20.5231 22.057 20.9503 21.7316C21.3775 21.4064 21.5486 20.9127 21.3329 20.629L17.7041 15.8638C17.5894 15.7131 17.3808 15.6459 17.1338 15.68L16.6337 15.0233C18.8678 12.9233 19.2103 9.42412 17.3134 6.93268C16.2998 5.60188 14.8378 4.80748 13.2965 4.59868C13.0073 4.5595 12.7157 4.54105 12.4238 4.54348ZM5.61049 5.1454C5.76049 5.50156 6.33984 5.29252 6.11304 5.77804C6.36552 6.01564 6.07296 6.85324 5.9748 6.13948C5.34648 6.13636 5.04648 5.50948 5.574 5.18044L5.61049 5.1454ZM6.15793 5.20444C5.85553 5.2954 6.34993 5.36764 6.15793 5.20444V5.20444ZM21.2366 5.64316C21.2534 5.63116 21.2952 5.71732 21.2366 5.64316V5.64316ZM12.6655 5.8882C12.8167 5.89412 12.9671 5.90708 13.1167 5.92708C13.7318 6.01021 14.3243 6.21411 14.8603 6.52706C15.3963 6.84001 15.8651 7.25582 16.2398 7.7506C16.6168 8.24349 16.8928 8.806 17.0518 9.40581C17.2109 10.0056 17.2499 10.631 17.1666 11.2459C17.0833 11.8608 16.8794 12.4533 16.5666 12.9892C16.2538 13.5251 15.8382 13.994 15.3437 14.3688C14.8508 14.7459 14.2883 15.0219 13.6884 15.1809C13.0886 15.34 12.4632 15.379 11.8483 15.2957C11.2333 15.2125 10.6409 15.0086 10.1049 14.6957C9.56896 14.3829 9.10009 13.9672 8.7252 13.4727C8.34821 12.9798 8.07229 12.4173 7.91327 11.8174C7.75424 11.2176 7.71526 10.5923 7.79855 9.97735C7.88184 9.36241 8.08576 8.76998 8.39861 8.23407C8.71146 7.69816 9.12708 7.22931 9.6216 6.85444C10.4925 6.18725 11.5693 5.84546 12.6655 5.8882ZM21.9266 6.1354C21.5498 6.44716 22.379 6.39004 21.9266 6.1354V6.1354ZM22.3754 6.39508C21.9583 6.59884 22.74 6.59908 22.3754 6.39508V6.39508ZM22.6471 6.49012C22.2751 6.79972 23.0263 6.637 22.6471 6.49012V6.49012ZM22.6322 6.55732C22.6195 6.57916 22.6529 6.55708 22.6322 6.55732V6.55732ZM22.6678 6.59596C22.6378 6.5998 22.679 6.6142 22.6678 6.59596V6.59596ZM12.5064 6.84628C11.9818 6.83692 11.4638 6.95428 10.9862 7.165C11.0112 7.19548 11.047 7.22476 11.0993 7.25116C10.6193 7.09516 10.4796 7.70164 10.6817 7.97452L11.0064 8.00116L11.2778 7.88164C11.4533 7.69924 11.497 7.73068 11.5536 7.45444L11.6594 7.46812L11.7434 7.43308L11.9347 7.52764C12.1642 7.6174 12.175 7.81084 12.0982 7.86748C11.9894 7.93444 12.1176 7.94428 12.1282 7.9858C12.1824 7.9702 12.2141 7.9234 12.2482 7.89844L12.3096 7.87636C12.5338 7.72924 12.3773 7.68076 12.2215 7.48228L12.3041 7.5034C12.4248 7.6402 12.4958 7.795 12.5674 7.9594C12.5755 7.96588 12.583 7.97428 12.5923 7.97716C12.6466 7.99516 12.7231 7.98916 12.7886 7.97116C12.8534 7.9534 12.8578 7.8298 12.8467 7.71148C12.9391 8.13292 13.8454 8.00764 13.3061 8.26468C12.9953 8.27164 12.5014 8.10124 12.4104 8.31652C12.2093 8.22532 12.1066 8.16556 12.0658 8.11876C11.9419 8.0722 11.5855 7.93732 11.5728 7.93732C11.5577 7.93732 11.1041 8.01988 11.1041 8.01988L10.7297 8.16196C10.608 8.55412 10.416 8.34436 10.3507 8.64844C10.2996 8.84284 9.85968 9.26284 10.0901 9.59356C10.2958 10.5502 11.4883 9.91324 11.7662 10.3726C11.6357 10.6556 12.2815 11.1939 11.9201 11.6573C12.0905 12.3305 12.5484 13.4559 13.2852 12.4978C13.4796 11.9242 13.8982 11.6141 13.8833 11.0451C13.6608 10.4847 14.9705 10.0692 14.4466 9.6154C14.321 9.63028 14.3066 9.6574 14.207 9.69052C13.9978 9.6826 13.9438 9.51388 13.8725 9.4078C13.8181 9.33041 13.7699 9.24879 13.7285 9.16372C13.8617 9.37012 13.9992 9.54532 14.1922 9.65308C14.526 9.5782 14.9088 9.33124 15.0646 9.15004C15.0607 8.44372 16.0102 9.17644 15.991 9.70732C16.0498 9.85036 16.1244 9.94972 16.1993 10.0078C16.1463 9.66823 16.0449 9.338 15.8983 9.02716C15.6322 8.443 15.2059 7.9414 14.688 7.56604C14.6784 7.58092 14.6544 7.58188 14.6592 7.54588C14.5891 7.49628 14.5175 7.449 14.4444 7.40404C14.4524 7.43748 14.4619 7.47132 14.473 7.50556C14.4415 7.45876 14.4084 7.41124 14.381 7.3654C13.8156 7.03228 13.1671 6.84124 12.5066 6.84604L12.5064 6.84628ZM20.3153 6.87796C20.4893 7.3738 19.71 8.52292 19.5967 7.7686C19.6766 7.39564 20.3162 7.4518 20.3153 6.87796ZM5.70528 7.009C5.69976 7.027 5.74032 7.00492 5.70528 7.009V7.009ZM6.07512 7.18348C5.99064 7.22716 6.14496 7.24156 6.07512 7.18348V7.18348ZM13.2818 7.19932C13.4755 7.36252 14.0698 7.57852 13.4407 7.4062C13.1134 7.55572 13.0121 7.45996 13.2818 7.19932ZM11.7847 7.48972C11.7425 7.50268 11.7782 7.59028 11.7518 7.61788C11.9318 7.70596 11.831 7.5346 11.8577 7.50652C11.8212 7.48924 11.7986 7.48516 11.7847 7.48972ZM14.5286 7.66852C14.5843 7.81324 14.6213 7.90564 14.4782 7.72612C14.4901 7.72049 14.5008 7.71247 14.5094 7.70256C14.5181 7.69265 14.5246 7.68107 14.5286 7.66852ZM11.8015 7.68652C11.731 7.67884 11.6935 7.72612 11.6933 7.79212C11.8793 7.89316 11.8601 7.72636 11.8829 7.71364C11.8575 7.69976 11.8301 7.69058 11.8015 7.68652ZM14.675 8.71444C14.7811 8.71876 14.5735 8.86804 14.609 8.72284C14.6386 8.71636 14.6599 8.71372 14.675 8.71444ZM21.9857 9.65332C21.6401 10.0205 22.3975 10.0851 21.9857 9.65332V9.65332ZM21.9617 9.71044C21.9552 9.73492 21.9972 9.7066 21.9617 9.71044V9.71044ZM21.9914 9.763C21.9554 9.757 21.9948 9.78772 21.9914 9.763V9.763ZM22.2427 9.811C21.9079 10.1024 22.6469 9.99628 22.2427 9.811V9.811ZM22.2787 9.8938C22.2739 9.92908 22.3042 9.88948 22.2787 9.8938V9.8938ZM22.2314 9.90652C22.212 9.92332 22.2535 9.93628 22.2314 9.90652V9.90652ZM19.4962 10.2838C19.5021 10.4336 19.5034 10.5832 19.5 10.7326C19.7753 10.7765 20.1202 10.764 20.1266 11.0686C20.6201 11.09 20.0758 11.8107 20.0578 11.1435C19.8567 11.1145 19.6517 11.1493 19.4714 11.2428C19.4215 11.7666 19.3143 12.2833 19.1518 12.7836C19.555 12.6557 19.9663 12.6682 20.2092 13.0601C20.8488 13.0577 20.3047 13.4938 20.7581 13.5828C20.9513 13.1883 20.6563 13.238 21.0187 12.9164C21.3703 12.4668 21.1402 11.8863 20.7895 11.6408C20.7166 11.3628 20.4259 11.2126 20.5627 11.023C20.8291 11.3842 21.2066 11.1137 20.8915 10.9184C21.1241 10.7012 21.955 11.478 21.4884 10.8804C21.258 10.8377 20.9414 10.3613 20.8697 10.668C20.849 10.9224 20.2142 10.2819 19.98 10.544C19.9123 10.3078 19.5811 10.4504 19.5624 10.5557C19.6642 10.3973 19.6001 10.3155 19.4962 10.2838ZM20.7173 10.489C20.3734 10.6844 21.0278 10.6776 20.7173 10.489V10.489ZM11.7329 10.5058C11.725 10.5161 11.7605 10.5682 11.7329 10.5058V10.5058ZM8.72016 10.5351C8.71295 10.8683 8.75 11.2011 8.83032 11.5246C9.10632 11.1065 9.09552 10.7139 8.72016 10.5351ZM20.6995 10.5466C20.6741 10.5524 20.7202 10.5615 20.6995 10.5466V10.5466ZM20.9321 10.5754C20.8198 10.6546 21.0442 10.6546 20.9321 10.5754V10.5754ZM20.9321 10.5778C20.8298 10.6512 21.0341 10.6512 20.9321 10.5778V10.5778ZM20.7226 10.5987C20.687 10.5944 20.7264 10.6229 20.7226 10.5987V10.5987ZM19.4981 10.8593C19.4957 10.9169 19.4906 10.9745 19.4868 11.0321C19.5643 10.9448 19.5979 10.8545 19.4981 10.8593ZM14.028 11.108C13.7506 11.2604 14.3249 11.33 14.0849 11.1512L14.0746 11.1255L14.028 11.108ZM14.3525 11.1507C14.0784 11.322 13.6531 12.139 14.2428 12.1647C14.3849 11.9957 14.7451 11.2424 14.3525 11.1507ZM21.7867 11.671C21.5671 12.1042 22.4244 11.9309 21.7867 11.671V11.671ZM14.7917 11.7286C14.435 11.9679 15.1375 11.9376 14.7917 11.7286V11.7286ZM22.3591 12.7164C22.5622 13.176 21.8887 13.4513 21.9396 13.878C22.2852 14.0446 22.4635 13.4177 22.7069 13.226C22.9946 12.9744 22.4803 12.9 22.3591 12.7164ZM6.3972 14.13C6.43656 14.383 6.55512 14.6278 6.7668 14.7024C6.63433 14.5178 6.51099 14.3268 6.3972 14.13Z" fill="#595858" fill-opacity="0.5"/>
</svg>
