<svg width="25" height="26" viewBox="0 0 25 26" fill="none" xmlns="http://www.w3.org/2000/svg">
<path fill-rule="evenodd" clip-rule="evenodd" d="M12.5 0.812502C5.77 0.812502 0.3125 6.27 0.3125 13C0.3125 19.73 5.77 25.1875 12.5 25.1875C19.23 25.1875 24.6875 19.73 24.6875 13C24.688 12.1834 24.6084 11.3686 24.45 10.5675C24.4078 10.3548 24.2932 10.1634 24.1257 10.0257C23.9581 9.88803 23.7481 9.81269 23.5312 9.8125H12.5C12.2514 9.8125 12.0129 9.91127 11.8371 10.0871C11.6613 10.2629 11.5625 10.5014 11.5625 10.75V15.25C11.5625 15.7675 11.9825 16.1875 12.5 16.1875H17.3538C16.9972 16.7283 16.5538 17.2064 16.0413 17.6025H16.0388L16.0413 17.605C15.0285 18.391 13.782 18.816 12.5 18.8125C10.9584 18.8125 9.48 18.2001 8.38994 17.1101C7.29989 16.02 6.6875 14.5416 6.6875 13C6.6875 11.4584 7.29989 9.98 8.38994 8.88994C9.48 7.79989 10.9584 7.1875 12.5 7.1875C13.98 7.1875 15.325 7.745 16.355 8.66C16.5337 8.81904 16.7665 8.90375 17.0056 8.89677C17.2447 8.8898 17.4721 8.79168 17.6413 8.6225L20.8225 5.44C20.9115 5.35098 20.9817 5.24495 21.0288 5.12822C21.076 5.01149 21.0992 4.88646 21.0969 4.76059C21.0947 4.63471 21.0672 4.51058 21.0159 4.39558C20.9647 4.28058 20.8908 4.17708 20.7987 4.09125C18.5498 1.9832 15.5825 0.81082 12.5 0.812502ZM16.5025 19.5625C15.6194 20.1013 14.6365 20.4564 13.6129 20.6064C12.5893 20.7563 11.546 20.6982 10.5454 20.4353C9.54478 20.1725 8.60753 19.7104 7.78977 19.0767C6.97201 18.443 6.29056 17.6508 5.78625 16.7475L3.69 18.3625C4.61031 19.8742 5.90418 21.1237 7.44713 21.9906C8.99008 22.8575 10.7302 23.3127 12.5 23.3125C14.7762 23.3125 16.8813 22.575 18.5875 21.325L16.5025 19.5625ZM20.0062 20.07C21.8117 18.1591 22.816 15.6289 22.8125 13C22.8125 12.565 22.7837 12.12 22.7312 11.6875H13.4375V14.3125H18.8575C19.0075 14.3125 19.1552 14.3485 19.2884 14.4175C19.4216 14.4864 19.5363 14.5863 19.6229 14.7088C19.7094 14.8312 19.7654 14.9727 19.786 15.1212C19.8066 15.2698 19.7912 15.4211 19.7412 15.5625C19.3677 16.6126 18.7721 17.5698 17.995 18.3688L20.0062 20.07ZM3.775 7.50125C4.70329 6.02626 5.99067 4.81093 7.51662 3.96903C9.04258 3.12713 10.7572 2.6862 12.5 2.6875C14.865 2.6875 17.0375 3.49 18.7788 4.8325L16.9037 6.7075C15.6154 5.79834 14.0768 5.31097 12.5 5.3125C11.1696 5.31234 9.86187 5.65746 8.70479 6.31411C7.5477 6.97077 6.58084 7.91647 5.89875 9.05875L3.775 7.50125ZM2.9125 9.19375C2.43105 10.4049 2.18498 11.6967 2.1875 13C2.18541 14.2443 2.4099 15.4786 2.85 16.6425L5.05875 14.94C4.89508 14.3063 4.81234 13.6545 4.8125 13C4.8125 12.2425 4.9225 11.51 5.12625 10.8175L2.9125 9.19375Z" fill="#14B8A6"/>
</svg>
