<svg width="31" height="30" viewBox="0 0 31 30" fill="none" xmlns="http://www.w3.org/2000/svg">
<g clip-path="url(#clip0_3826_1582)">
<path d="M10.9508 0.986424C7.95331 2.02627 5.3683 3.99994 3.57545 6.61752C1.78259 9.23511 0.876385 12.3586 0.989941 15.5293C1.1035 18.7 2.23083 21.7507 4.20635 24.2333C6.18187 26.7159 8.90145 28.4996 11.9656 29.3224C14.4498 29.9634 17.0525 29.9915 19.55 29.4044C21.8125 28.8962 23.9042 27.8092 25.6203 26.2497C27.4064 24.5771 28.7029 22.4493 29.3703 20.095C30.0958 17.5349 30.2248 14.8425 29.7477 12.2247H15.7977V18.0114H23.8766C23.7151 18.9344 23.3691 19.8152 22.8593 20.6013C22.3494 21.3874 21.6862 22.0626 20.9094 22.5864C19.9228 23.239 18.8108 23.6781 17.6445 23.8755C16.4749 24.093 15.2751 24.093 14.1055 23.8755C12.92 23.6304 11.7985 23.1411 10.8125 22.4388C9.22847 21.3175 8.03908 19.7245 7.41406 17.8872C6.77847 16.0155 6.77847 13.9863 7.41406 12.1145C7.85897 10.8026 8.59445 9.60799 9.56562 8.62002C10.677 7.46864 12.0841 6.64564 13.6324 6.24129C15.1807 5.83695 16.8105 5.86689 18.343 6.32783C19.5401 6.69531 20.6348 7.33737 21.5398 8.20283C22.4508 7.29658 23.3602 6.38799 24.268 5.47705C24.7367 4.98721 25.2477 4.5208 25.7094 4.01924C24.3279 2.73363 22.7063 1.73328 20.9375 1.07549C17.7165 -0.0940682 14.1921 -0.125499 10.9508 0.986424Z" fill="white"/>
<path d="M10.9508 0.986587C14.1919 -0.126092 17.7162 -0.0954888 20.9375 1.07331C22.7066 1.73556 24.3275 2.74074 25.707 4.03112C25.2383 4.53268 24.7437 5.00143 24.2656 5.48893C23.3562 6.39674 22.4477 7.30143 21.5398 8.20299C20.6348 7.33753 19.5401 6.69547 18.343 6.32799C16.811 5.86543 15.1813 5.83376 13.6325 6.23645C12.0838 6.63914 10.6759 7.46064 9.56328 8.61081C8.59211 9.59878 7.85662 10.7933 7.41172 12.1053L2.55312 8.34362C4.29221 4.89493 7.30332 2.25696 10.9508 0.986587Z" fill="#E33629"/>
<path d="M1.26406 12.0703C1.52521 10.7761 1.95876 9.52272 2.55313 8.34375L7.41172 12.1148C6.77613 13.9866 6.77613 16.0158 7.41172 17.8875C5.79297 19.1375 4.17344 20.3938 2.55313 21.6563C1.0652 18.6945 0.611406 15.3199 1.26406 12.0703Z" fill="#F8BD00"/>
<path d="M15.7977 12.2227H29.7477C30.2248 14.8405 30.0958 17.5328 29.3703 20.093C28.7029 22.4472 27.4064 24.575 25.6203 26.2477C24.0523 25.0242 22.4773 23.8102 20.9094 22.5867C21.6867 22.0624 22.3502 21.3865 22.8601 20.5995C23.37 19.8126 23.7157 18.9308 23.8766 18.007H15.7977C15.7953 16.0805 15.7977 14.1516 15.7977 12.2227Z" fill="#587DBD"/>
<path d="M2.55078 21.6564C4.17109 20.4064 5.79062 19.1502 7.40937 17.8877C8.03564 19.7257 9.22673 21.3187 10.8125 22.4393C11.8016 23.1383 12.9255 23.6236 14.1125 23.8643C15.2822 24.0817 16.4819 24.0817 17.6516 23.8643C18.8178 23.6668 19.9299 23.2278 20.9164 22.5752C22.4844 23.7986 24.0594 25.0127 25.6273 26.2361C23.9115 27.7964 21.8197 28.8843 19.557 29.3932C17.0596 29.9803 14.4569 29.9521 11.9727 29.3111C10.0079 28.7865 8.17268 27.8617 6.58203 26.5947C4.89842 25.2581 3.52333 23.5736 2.55078 21.6564Z" fill="#319F43"/>
</g>
<defs>
<clipPath id="clip0_3826_1582">
<rect width="30" height="30" fill="white" transform="translate(0.5)"/>
</clipPath>
</defs>
</svg>
