<svg width="30" height="30" viewBox="0 0 30 30" fill="none" xmlns="http://www.w3.org/2000/svg">
<g clip-path="url(#clip0_4091_3289)">
<path d="M12 11H18M15 11V20M21 20V15M21 15V11H23C23.5304 11 24.0391 11.2107 24.4142 11.5858C24.7893 11.9609 25 12.4696 25 13C25 13.5304 24.7893 14.0391 24.4142 14.4142C24.0391 14.7893 23.5304 15 23 15H21ZM9 13V17C9 17.5304 8.78929 18.0391 8.41421 18.4142C8.03914 18.7893 7.53043 19 7 19C6.46957 19 5.96086 18.7893 5.58579 18.4142C5.21071 18.0391 5 17.5304 5 17V13C5 12.4696 5.21071 11.9609 5.58579 11.5858C5.96086 11.2107 6.46957 11 7 11C7.53043 11 8.03914 11.2107 8.41421 11.5858C8.78929 11.9609 9 12.4696 9 13ZM3 1H27C27.5304 1 28.0391 1.21071 28.4142 1.58579C28.7893 1.96086 29 2.46957 29 3V27C29 27.5304 28.7893 28.0391 28.4142 28.4142C28.0391 28.7893 27.5304 29 27 29H3C2.46957 29 1.96086 28.7893 1.58579 28.4142C1.21071 28.0391 1 27.5304 1 27V3C1 2.46957 1.21071 1.96086 1.58579 1.58579C1.96086 1.21071 2.46957 1 3 1Z" stroke="black" stroke-width="2"/>
</g>
<defs>
<clipPath id="clip0_4091_3289">
<rect width="30" height="30" fill="white"/>
</clipPath>
</defs>
</svg>
