<svg width="24" height="24" viewBox="0 0 24 24" fill="none" xmlns="http://www.w3.org/2000/svg">
<path d="M12 0C18.4104 0 24 5.29201 24 11.4C24 17.4048 18.5364 22.1304 12 22.1304C10.602 22.1314 9.21265 21.9102 7.884 21.4752C7.3272 22.0152 7.1364 22.1988 5.9544 23.3388C5.1024 23.982 4.3008 24.2004 3.5844 23.7948C2.862 23.3868 2.6448 22.5924 2.7924 21.546L3.2724 18.7632C1.188 16.8024 0 14.2104 0 11.4C0 5.29201 5.5884 0 12 0ZM12 1.68C6.4968 1.68 1.68 6.24001 1.68 11.4C1.68 13.854 2.7744 16.1136 4.704 17.796L4.728 17.8164L5.0844 18.126L5.004 18.594L4.8384 19.5588L4.794 19.8156L4.452 21.8052C4.4324 21.9392 4.42038 22.0743 4.416 22.2096V22.3236C4.416 22.3292 4.4152 22.3324 4.4136 22.3332C4.422 22.3212 4.5852 22.2696 4.8648 22.0656L7.4688 19.5384L7.9656 19.7256C9.25618 20.2069 10.6226 20.4528 12 20.4516C17.6592 20.4516 22.32 16.4196 22.32 11.4C22.32 6.24121 17.5032 1.68 12 1.68ZM6.2724 9.37561C6.51415 9.36678 6.7552 9.40677 6.98115 9.49319C7.2071 9.57961 7.41331 9.71069 7.58746 9.8786C7.76161 10.0465 7.90013 10.2478 7.99474 10.4704C8.08935 10.6931 8.13812 10.9325 8.13812 11.1744C8.13812 11.4163 8.08935 11.6558 7.99474 11.8784C7.90013 12.101 7.76161 12.3023 7.58746 12.4702C7.41331 12.6381 7.2071 12.7692 6.98115 12.8556C6.7552 12.9421 6.51415 12.9821 6.2724 12.9732C5.8067 12.9562 5.36575 12.7592 5.0423 12.4238C4.71885 12.0883 4.53812 11.6404 4.53812 11.1744C4.53812 10.7084 4.71885 10.2606 5.0423 9.92507C5.36575 9.58959 5.8067 9.39263 6.2724 9.37561ZM12.27 9.37561C12.5118 9.36678 12.7528 9.40677 12.9787 9.49319C13.2047 9.57961 13.4109 9.71069 13.5851 9.8786C13.7592 10.0465 13.8977 10.2478 13.9923 10.4704C14.087 10.6931 14.1357 10.9325 14.1357 11.1744C14.1357 11.4163 14.087 11.6558 13.9923 11.8784C13.8977 12.101 13.7592 12.3023 13.5851 12.4702C13.4109 12.6381 13.2047 12.7692 12.9787 12.8556C12.7528 12.9421 12.5118 12.9821 12.27 12.9732C11.8043 12.9562 11.3633 12.7592 11.0399 12.4238C10.7164 12.0883 10.5357 11.6404 10.5357 11.1744C10.5357 10.7084 10.7164 10.2606 11.0399 9.92507C11.3633 9.58959 11.8043 9.39263 12.27 9.37561ZM18.2664 9.37561C18.5082 9.36678 18.7492 9.40677 18.9751 9.49319C19.2011 9.57961 19.4073 9.71069 19.5815 9.8786C19.7556 10.0465 19.8941 10.2478 19.9887 10.4704C20.0834 10.6931 20.1321 10.9325 20.1321 11.1744C20.1321 11.4163 20.0834 11.6558 19.9887 11.8784C19.8941 12.101 19.7556 12.3023 19.5815 12.4702C19.4073 12.6381 19.2011 12.7692 18.9751 12.8556C18.7492 12.9421 18.5082 12.9821 18.2664 12.9732C17.8007 12.9562 17.3597 12.7592 17.0363 12.4238C16.7128 12.0883 16.5321 11.6404 16.5321 11.1744C16.5321 10.7084 16.7128 10.2606 17.0363 9.92507C17.3597 9.58959 17.8007 9.39263 18.2664 9.37561Z" fill="white"/>
</svg>
