<svg width="17" height="17" viewBox="0 0 17 17" fill="none" xmlns="http://www.w3.org/2000/svg">
<path d="M3.48218 8.48983C3.48218 8.29091 3.5612 8.10015 3.70185 7.9595C3.8425 7.81884 4.03327 7.73983 4.23218 7.73983H7.72518V4.24683C7.72518 4.04791 7.8042 3.85715 7.94485 3.7165C8.0855 3.57584 8.27627 3.49683 8.47518 3.49683C8.67409 3.49683 8.86486 3.57584 9.00551 3.7165C9.14616 3.85715 9.22518 4.04791 9.22518 4.24683V7.73983H12.7182C12.9171 7.73983 13.1079 7.81884 13.2485 7.9595C13.3892 8.10015 13.4682 8.29091 13.4682 8.48983C13.4682 8.68874 13.3892 8.8795 13.2485 9.02016C13.1079 9.16081 12.9171 9.23983 12.7182 9.23983H9.22518V12.7328C9.22518 12.9317 9.14616 13.1225 9.00551 13.2632C8.86486 13.4038 8.67409 13.4828 8.47518 13.4828C8.27627 13.4828 8.0855 13.4038 7.94485 13.2632C7.8042 13.1225 7.72518 12.9317 7.72518 12.7328V9.23983H4.23218C4.03327 9.23983 3.8425 9.16081 3.70185 9.02016C3.5612 8.8795 3.48218 8.68874 3.48218 8.48983Z" fill="#14B8A6"/>
<path fill-rule="evenodd" clip-rule="evenodd" d="M3.79226 0.258794C6.90472 -0.0862646 10.0458 -0.0862646 13.1583 0.258794C14.9853 0.462794 16.4603 1.90179 16.6743 3.73879C17.0443 6.89579 17.0443 10.0848 16.6743 13.2418C16.4593 15.0788 14.9843 16.5168 13.1583 16.7218C10.0458 17.0669 6.90472 17.0669 3.79226 16.7218C1.96526 16.5168 0.490257 15.0788 0.276257 13.2418C-0.0920857 10.0848 -0.0920857 6.89575 0.276257 3.73879C0.490257 1.90179 1.96626 0.462794 3.79226 0.258794ZM12.9923 1.74879C9.99012 1.41602 6.9604 1.41602 3.95826 1.74879C3.4025 1.81045 2.88376 2.05767 2.48584 2.45051C2.08791 2.84335 1.83405 3.35887 1.76526 3.91379C1.40959 6.95476 1.40959 10.0268 1.76526 13.0678C1.83426 13.6225 2.08821 14.1378 2.48612 14.5305C2.88402 14.9231 3.40265 15.1702 3.95826 15.2318C6.93526 15.5638 10.0153 15.5638 12.9923 15.2318C13.5477 15.17 14.0661 14.9228 14.4638 14.5302C14.8615 14.1376 15.1153 13.6224 15.1843 13.0678C15.5399 10.0268 15.5399 6.95476 15.1843 3.91379C15.1151 3.35939 14.8612 2.84444 14.4635 2.45202C14.0658 2.05959 13.5475 1.81257 12.9923 1.75079" fill="#14B8A6"/>
</svg>
