<svg width="20" height="20" viewBox="0 0 20 20" fill="none" xmlns="http://www.w3.org/2000/svg">
<path fill-rule="evenodd" clip-rule="evenodd" d="M15.5 9C13.379 9 12.318 9 11.659 8.341C11 7.682 11 6.621 11 4.5C11 2.379 11 1.318 11.659 0.659C12.318 -5.96046e-08 13.379 0 15.5 0C17.621 0 18.682 -5.96046e-08 19.341 0.659C20 1.318 20 2.379 20 4.5C20 6.621 20 7.682 19.341 8.341C18.682 9 17.621 9 15.5 9ZM16.25 2.5C16.25 2.30109 16.171 2.11032 16.0303 1.96967C15.8897 1.82902 15.6989 1.75 15.5 1.75C15.3011 1.75 15.1103 1.82902 14.9697 1.96967C14.829 2.11032 14.75 2.30109 14.75 2.5V3.75H13.5C13.3011 3.75 13.1103 3.82902 12.9697 3.96967C12.829 4.11032 12.75 4.30109 12.75 4.5C12.75 4.69891 12.829 4.88968 12.9697 5.03033C13.1103 5.17098 13.3011 5.25 13.5 5.25H14.75V6.5C14.75 6.69891 14.829 6.88968 14.9697 7.03033C15.1103 7.17098 15.3011 7.25 15.5 7.25C15.6989 7.25 15.8897 7.17098 16.0303 7.03033C16.171 6.88968 16.25 6.69891 16.25 6.5V5.25H17.5C17.6989 5.25 17.8897 5.17098 18.0303 5.03033C18.171 4.88968 18.25 4.69891 18.25 4.5C18.25 4.30109 18.171 4.11032 18.0303 3.96967C17.8897 3.82902 17.6989 3.75 17.5 3.75H16.25V2.5Z" fill="#14B8A6"/>
<path d="M20.0002 10.699C19.9982 12.169 19.9872 13.417 19.9042 14.442C19.8072 15.632 19.6082 16.626 19.1642 17.451C18.9702 17.8126 18.7243 18.1438 18.4342 18.434C17.6012 19.267 16.5413 19.644 15.1973 19.824C13.8843 20.001 12.2003 20.001 10.0533 20.001H9.94725C7.79925 20.001 6.11725 20.001 4.80325 19.824C3.46025 19.644 2.39925 19.267 1.56725 18.434C0.82925 17.696 0.44725 16.778 0.24525 15.639C0.0452499 14.519 0.00925008 13.127 0.00225008 11.398C0.000250079 10.958 -0.000416681 10.4923 0.000249985 10.001V9.947C0.000249985 7.799 0.000250027 6.117 0.17725 4.803C0.35725 3.46 0.73425 2.399 1.56725 1.567C2.40025 0.735 3.46025 0.357 4.80325 0.177C5.97125 0.0200002 7.47325 0.002 9.30225 0C9.48737 0 9.66491 0.0735391 9.79581 0.20444C9.92671 0.33534 10.0002 0.512879 10.0002 0.698C10.0002 0.883121 9.92671 1.06066 9.79581 1.19156C9.66491 1.32246 9.48737 1.396 9.30225 1.396C7.44725 1.398 6.06825 1.414 4.98925 1.559C3.80025 1.719 3.08325 2.023 2.55325 2.553C2.02325 3.083 1.72025 3.801 1.56025 4.991C1.39725 6.201 1.39525 7.789 1.39525 10.001V10.785L2.32725 9.971C2.73578 9.61356 3.26487 9.42473 3.8074 9.44274C4.34992 9.46075 4.86533 9.68426 5.24925 10.068L9.23925 14.058C9.54882 14.3677 9.95774 14.5583 10.394 14.5962C10.8303 14.6341 11.2659 14.5168 11.6242 14.265L11.9023 14.07C12.419 13.7068 13.0438 13.5297 13.6743 13.5676C14.3048 13.6056 14.9038 13.8564 15.3732 14.279L18.0063 16.649C18.2712 16.092 18.4293 15.361 18.5133 14.329C18.5923 13.357 18.6033 12.177 18.6042 10.699C18.6042 10.5139 18.6778 10.3363 18.8087 10.2054C18.9396 10.0745 19.1171 10.001 19.3022 10.001C19.4874 10.001 19.6649 10.0745 19.7958 10.2054C19.9267 10.3363 20.0002 10.5139 20.0002 10.699Z" fill="#14B8A6"/>
</svg>
