<svg width="24" height="24" viewBox="0 0 24 24" fill="none" xmlns="http://www.w3.org/2000/svg">
<path d="M17 9L13.956 13.566C13.8589 13.7119 13.7252 13.8297 13.5682 13.9076C13.4113 13.9856 13.2366 14.0209 13.0617 14.01C12.8868 13.9992 12.7178 13.9426 12.5716 13.8459C12.4255 13.7492 12.3073 13.6158 12.229 13.459L11.771 12.541C11.6927 12.3842 11.5745 12.2508 11.4284 12.1541C11.2822 12.0574 11.1132 12.0008 10.9383 11.99C10.7634 11.9791 10.5887 12.0144 10.4318 12.0924C10.2748 12.1703 10.1411 12.2881 10.044 12.434L7 17" stroke="#14B8A6" stroke-width="2" stroke-linecap="round" stroke-linejoin="round"/>
<path d="M19 3H5C3.89543 3 3 3.89543 3 5V19C3 20.1046 3.89543 21 5 21H19C20.1046 21 21 20.1046 21 19V5C21 3.89543 20.1046 3 19 3Z" stroke="#14B8A6" stroke-width="2"/>
</svg>
