<svg width="22" height="22" viewBox="0 0 22 22" fill="none" xmlns="http://www.w3.org/2000/svg">
<path d="M11 21C12.9778 21 14.9112 20.4135 16.5557 19.3147C18.2002 18.2159 19.4819 16.6541 20.2388 14.8268C20.9957 12.9996 21.1937 10.9889 20.8078 9.0491C20.422 7.10929 19.4696 5.32746 18.0711 3.92894C16.6725 2.53041 14.8907 1.578 12.9509 1.19215C11.0111 0.8063 9.00042 1.00433 7.17316 1.76121C5.3459 2.51809 3.78412 3.79981 2.6853 5.4443C1.58649 7.08879 1 9.02219 1 11C1 12.6533 1.4 14.2122 2.11111 15.5856L1 21L6.41444 19.8889C7.78778 20.6 9.34778 21 11 21Z" stroke="#14B8A6" stroke-width="2" stroke-linecap="round" stroke-linejoin="round"/>
</svg>
