<svg width="17" height="20" viewBox="0 0 17 20" fill="none" xmlns="http://www.w3.org/2000/svg">
<path d="M9.17134 12.1539V14.0707C8.34127 13.7772 7.45289 13.6872 6.58081 13.8082C5.70873 13.9292 4.87842 14.2577 4.1596 14.7661C3.44078 15.2744 2.85444 15.9479 2.44981 16.7298C2.04519 17.5118 1.8341 18.3794 1.83427 19.2598H5.27546e-07C-0.000424157 18.1398 0.255566 17.0346 0.748353 16.0288C1.24114 15.0231 1.95764 14.1434 2.84295 13.4574C3.72826 12.7714 4.75888 12.2972 5.85582 12.071C6.95276 11.8449 8.08691 11.8739 9.17134 12.1539ZM7.33708 11.0056C4.29677 11.0056 1.83427 8.54311 1.83427 5.50281C1.83427 2.46251 4.29677 0 7.33708 0C10.3774 0 12.8399 2.46251 12.8399 5.50281C12.8399 8.54311 10.3774 11.0056 7.33708 11.0056ZM7.33708 9.17134C9.36394 9.17134 11.0056 7.52967 11.0056 5.50281C11.0056 3.47594 9.36394 1.83427 7.33708 1.83427C5.31021 1.83427 3.66854 3.47594 3.66854 5.50281C3.66854 7.52967 5.31021 9.17134 7.33708 9.17134ZM13.757 15.2116L15.7023 13.2663L17 14.5632L15.0538 16.5084L16.9991 18.4537L15.7023 19.7514L13.757 17.8052L11.8118 19.7505L10.514 18.4537L12.4611 16.5084L10.5159 14.5632L11.8127 13.2654L13.757 15.2116Z" fill="#14B8A6"/>
</svg>
