<svg width="30" height="18" viewBox="0 0 30 18" fill="none" xmlns="http://www.w3.org/2000/svg">
<path d="M8.75 16.5V15.25C8.75 13.5924 9.40848 12.0027 10.5806 10.8306C11.7527 9.65848 13.3424 9 15 9M15 9C16.6576 9 18.2473 9.65848 19.4194 10.8306C20.5915 12.0027 21.25 13.5924 21.25 15.25V16.5M15 9C15.9946 9 16.9484 8.60491 17.6517 7.90165C18.3549 7.19839 18.75 6.24456 18.75 5.25C18.75 4.25544 18.3549 3.30161 17.6517 2.59835C16.9484 1.89509 15.9946 1.5 15 1.5C14.0054 1.5 13.0516 1.89509 12.3483 2.59835C11.6451 3.30161 11.25 4.25544 11.25 5.25C11.25 6.24456 11.6451 7.19839 12.3483 7.90165C13.0516 8.60491 14.0054 9 15 9ZM1.25 16.5V15.25C1.25 14.2554 1.64509 13.3016 2.34835 12.5983C3.05161 11.8951 4.00544 11.5 5 11.5M5 11.5C5.66304 11.5 6.29893 11.2366 6.76777 10.7678C7.23661 10.2989 7.5 9.66304 7.5 9C7.5 8.33696 7.23661 7.70107 6.76777 7.23223C6.29893 6.76339 5.66304 6.5 5 6.5C4.33696 6.5 3.70107 6.76339 3.23223 7.23223C2.76339 7.70107 2.5 8.33696 2.5 9C2.5 9.66304 2.76339 10.2989 3.23223 10.7678C3.70107 11.2366 4.33696 11.5 5 11.5ZM28.75 16.5V15.25C28.75 14.2554 28.3549 13.3016 27.6517 12.5983C26.9484 11.8951 25.9946 11.5 25 11.5M25 11.5C25.663 11.5 26.2989 11.2366 26.7678 10.7678C27.2366 10.2989 27.5 9.66304 27.5 9C27.5 8.33696 27.2366 7.70107 26.7678 7.23223C26.2989 6.76339 25.663 6.5 25 6.5C24.337 6.5 23.7011 6.76339 23.2322 7.23223C22.7634 7.70107 22.5 8.33696 22.5 9C22.5 9.66304 22.7634 10.2989 23.2322 10.7678C23.7011 11.2366 24.337 11.5 25 11.5Z" stroke="white" stroke-width="2" stroke-linecap="round" stroke-linejoin="round"/>
</svg>
