<svg width="26" height="22" viewBox="0 0 26 22" fill="none" xmlns="http://www.w3.org/2000/svg">
<path d="M13 4.16931L12.3972 4.72499C12.4753 4.80255 12.5689 4.86425 12.6725 4.90639C12.7761 4.94853 12.8875 4.97025 13 4.97025C13.1125 4.97025 13.2239 4.94853 13.3275 4.90639C13.4311 4.86425 13.5247 4.80255 13.6028 4.72499L13 4.16931ZM10.1267 17.8711C8.43442 16.5941 6.58474 15.347 5.11684 13.7655C3.67907 12.2138 2.67442 10.4047 2.67442 8.05586H1C1 10.9048 2.23907 13.0784 3.86549 14.8298C5.46177 16.5503 7.49786 17.9288 9.08967 19.1299L10.1267 17.8711ZM2.67442 8.05586C2.67442 5.75834 4.0307 3.83056 5.88261 3.01948C7.68205 2.23191 10.0999 2.44029 12.3972 4.72499L13.6028 3.6147C10.8791 0.903618 7.7133 0.455868 5.18605 1.56188C2.7146 2.64439 1 5.15778 1 8.05586H2.67442ZM9.08967 19.1299C9.66233 19.5616 10.2763 20.0211 10.898 20.3695C11.5198 20.7179 12.2298 21 13 21V19.3971C12.654 19.3971 12.2476 19.2688 11.7431 18.9857C11.2374 18.7035 10.7139 18.3146 10.1267 17.8711L9.08967 19.1299ZM16.9103 19.1299C18.5021 17.9277 20.5382 16.5514 22.1345 14.8298C23.7609 13.0773 25 10.9048 25 8.05586H23.3256C23.3256 10.4047 22.3209 12.2138 20.8832 13.7655C19.4153 15.347 17.5656 16.5941 15.8733 17.8711L16.9103 19.1299ZM25 8.05586C25 5.15778 23.2865 2.64439 20.814 1.56188C18.2867 0.455868 15.1232 0.903618 12.3972 3.61363L13.6028 4.72499C15.9001 2.44136 18.318 2.23191 20.1174 3.01948C21.9693 3.83056 23.3256 5.75727 23.3256 8.05586H25ZM15.8733 17.8711C15.2861 18.3146 14.7626 18.7035 14.2569 18.9857C13.7513 19.2678 13.346 19.3971 13 19.3971V21C13.7702 21 14.4802 20.7168 15.102 20.3695C15.7248 20.0211 16.3377 19.5616 16.9103 19.1299L15.8733 17.8711Z" fill="#14B8A6"/>
<path d="M9.60874 18.4994L10.1267 17.8711M10.1267 17.8711C8.43442 16.5941 6.58474 15.347 5.11684 13.7655C3.67907 12.2138 2.67442 10.4047 2.67442 8.05586M10.1267 17.8711L9.08967 19.1299M10.1267 17.8711C10.7139 18.3146 11.2374 18.7035 11.7431 18.9857C12.2476 19.2688 12.654 19.3971 13 19.3971M12.3972 4.72499L13 4.16931L13.6028 4.72499M12.3972 4.72499C12.4753 4.80255 12.5689 4.86425 12.6725 4.90639C12.7761 4.94853 12.8875 4.97025 13 4.97025C13.1125 4.97025 13.2239 4.94853 13.3275 4.90639C13.4311 4.86425 13.5247 4.80255 13.6028 4.72499M12.3972 4.72499C10.0999 2.44029 7.68205 2.23191 5.8826 3.01948C4.0307 3.83056 2.67442 5.75834 2.67442 8.05586M12.3972 4.72499L13.6028 3.6147C10.8791 0.903618 7.7133 0.455868 5.18605 1.56188C2.7146 2.64439 1 5.15778 1 8.05586M13.6028 4.72499L12.3972 3.61363C15.1232 0.903618 18.2867 0.455868 20.814 1.56188C23.2865 2.64439 25 5.15778 25 8.05586M13.6028 4.72499C15.9001 2.44136 18.318 2.23191 20.1174 3.01948C21.9693 3.83056 23.3256 5.75727 23.3256 8.05586M16.3913 18.4994L16.9103 19.1299M16.9103 19.1299C18.5021 17.9277 20.5382 16.5514 22.1345 14.8298C23.7609 13.0773 25 10.9048 25 8.05586M16.9103 19.1299L15.8733 17.8711M16.9103 19.1299C16.3377 19.5616 15.7248 20.0211 15.102 20.3695C14.4802 20.7168 13.7702 21 13 21M2.67442 8.05586H1M1 8.05586C1 10.9048 2.23907 13.0784 3.86549 14.8298C5.46177 16.5503 7.49786 17.9288 9.08967 19.1299M9.08967 19.1299C9.66233 19.5616 10.2763 20.0211 10.898 20.3695C11.5198 20.7179 12.2298 21 13 21M13 21V19.3971M13 19.3971C13.346 19.3971 13.7513 19.2678 14.2569 18.9857C14.7626 18.7035 15.2861 18.3146 15.8733 17.8711M25 8.05586H23.3256M23.3256 8.05586C23.3256 10.4047 22.3209 12.2138 20.8832 13.7655C19.4153 15.347 17.5656 16.5941 15.8733 17.8711" stroke="#14B8A6"/>
</svg>
