<svg width="22" height="22" viewBox="0 0 22 22" fill="none" xmlns="http://www.w3.org/2000/svg">
<path d="M6 13L7.995 10.605C8.632 9.842 8.95 9.46 9.333 9.46C9.716 9.46 10.035 9.842 10.671 10.605L11.329 11.395C11.965 12.158 12.283 12.54 12.667 12.54C13.05 12.54 13.368 12.158 14.005 11.395L16 9" stroke="#14B8A6" stroke-width="2" stroke-linecap="round" stroke-linejoin="round"/>
<path d="M11 21C16.523 21 21 16.523 21 11C21 5.477 16.523 1 11 1C5.477 1 1 5.477 1 11C1 12.379 1.28 13.693 1.784 14.888C2.063 15.548 2.202 15.878 2.22 16.128C2.237 16.378 2.163 16.652 2.016 17.201L1 21L4.799 19.984C5.348 19.837 5.622 19.764 5.872 19.78C6.122 19.798 6.452 19.937 7.112 20.216C8.34266 20.7343 9.66465 21.0009 11 21Z" stroke="#14B8A6" stroke-width="2" stroke-linecap="round" stroke-linejoin="round"/>
</svg>
