<svg width="20" height="20" viewBox="0 0 20 20" fill="none" xmlns="http://www.w3.org/2000/svg">
<path fill-rule="evenodd" clip-rule="evenodd" d="M2.16841 7.36922C2.16841 5.41478 2.99352 3.54039 4.46223 2.15839C5.93094 0.776397 7.92293 0 10 0C12.0771 0 14.0691 0.776397 15.5378 2.15839C17.0065 3.54039 17.8316 5.41478 17.8316 7.36922V11.3318L19.87 15.168C19.9639 15.3445 20.0082 15.5407 19.9988 15.7379C19.9893 15.9352 19.9265 16.1268 19.8162 16.2948C19.7059 16.4627 19.5518 16.6013 19.3685 16.6974C19.1853 16.7935 18.9789 16.844 18.7691 16.8439H14.3342C14.0854 17.7474 13.5247 18.5476 12.7402 19.1188C11.9558 19.6901 10.9919 20 10 20C9.00808 20 8.04423 19.6901 7.25977 19.1188C6.47531 18.5476 5.91464 17.7474 5.66578 16.8439H1.23086C1.02106 16.844 0.814736 16.7935 0.631483 16.6974C0.44823 16.6013 0.294133 16.4627 0.183827 16.2948C0.0735219 16.1268 0.0106708 15.9352 0.00124331 15.7379C-0.00818416 15.5407 0.0361251 15.3445 0.129963 15.168L2.16841 11.3318V7.36922ZM8.06224 16.8439C8.25864 17.164 8.54111 17.4297 8.88125 17.6145C9.2214 17.7993 9.60724 17.8966 10 17.8966C10.3928 17.8966 10.7786 17.7993 11.1187 17.6145C11.4589 17.4297 11.7414 17.164 11.9378 16.8439H8.06224ZM10 2.10549C8.51638 2.10549 7.09353 2.66006 6.04445 3.6472C4.99537 4.63434 4.40601 5.97319 4.40601 7.36922V11.3318C4.40599 11.6585 4.32517 11.9807 4.16994 12.2729L2.86095 14.7384H17.1402L15.8312 12.2729C15.6756 11.9808 15.5944 11.6585 15.594 11.3318V7.36922C15.594 5.97319 15.0046 4.63434 13.9555 3.6472C12.9065 2.66006 11.4836 2.10549 10 2.10549Z" fill="#14B8A6"/>
</svg>
