<svg width="20" height="20" viewBox="0 0 20 20" fill="none" xmlns="http://www.w3.org/2000/svg">
<path d="M8.33366 5.83341C8.33366 6.27544 8.50925 6.69937 8.82181 7.01193C9.13438 7.32449 9.5583 7.50008 10.0003 7.50008C10.4424 7.50008 10.8663 7.32449 11.1788 7.01193C11.4914 6.69937 11.667 6.27544 11.667 5.83341C11.667 5.39139 11.4914 4.96746 11.1788 4.6549C10.8663 4.34234 10.4424 4.16675 10.0003 4.16675C9.5583 4.16675 9.13438 4.34234 8.82181 4.6549C8.50925 4.96746 8.33366 5.39139 8.33366 5.83341ZM10.0003 11.6667C9.5583 11.6667 9.13438 11.4912 8.82181 11.1786C8.50925 10.866 8.33366 10.4421 8.33366 10.0001C8.33366 9.55805 8.50925 9.13413 8.82181 8.82157C9.13438 8.50901 9.5583 8.33342 10.0003 8.33342C10.4424 8.33342 10.8663 8.50901 11.1788 8.82157C11.4914 9.13413 11.667 9.55805 11.667 10.0001C11.667 10.4421 11.4914 10.866 11.1788 11.1786C10.8663 11.4912 10.4424 11.6667 10.0003 11.6667ZM8.33366 14.1667C8.33366 14.6088 8.50925 15.0327 8.82181 15.3453C9.13438 15.6578 9.5583 15.8334 10.0003 15.8334C10.4424 15.8334 10.8663 15.6578 11.1788 15.3453C11.4914 15.0327 11.667 14.6088 11.667 14.1667C11.667 13.7247 11.4914 13.3008 11.1788 12.9882C10.8663 12.6757 10.4424 12.5001 10.0003 12.5001C9.5583 12.5001 9.13438 12.6757 8.82181 12.9882C8.50925 13.3008 8.33366 13.7247 8.33366 14.1667Z" fill="black"/>
<path fill-rule="evenodd" clip-rule="evenodd" d="M10 20C4.4775 20 0 15.5225 0 10C0 4.4775 4.4775 0 10 0C15.5225 0 20 4.4775 20 10C20 15.5225 15.5225 20 10 20ZM10 18.3333C5.3975 18.3333 1.66667 14.6025 1.66667 10C1.66667 5.3975 5.3975 1.66667 10 1.66667C14.6025 1.66667 18.3333 5.3975 18.3333 10C18.3333 14.6025 14.6025 18.3333 10 18.3333Z" fill="black"/>
</svg>
