<svg width="40" height="40" viewBox="0 0 40 40" fill="none" xmlns="http://www.w3.org/2000/svg">
<rect x="0.00195312" width="40" height="40" rx="15" fill="#14B8A6"/>
<path d="M20.002 25.5556C20.3168 25.5556 20.5808 25.4489 20.7942 25.2356C21.0075 25.0222 21.1138 24.7585 21.1131 24.4444C21.1123 24.1304 21.0057 23.8667 20.7931 23.6533C20.5805 23.44 20.3168 23.3333 20.002 23.3333C19.6871 23.3333 19.4234 23.44 19.2108 23.6533C18.9983 23.8667 18.8916 24.1304 18.8908 24.4444C18.8901 24.7585 18.9968 25.0226 19.2108 25.2367C19.4249 25.4507 19.6886 25.557 20.002 25.5556ZM18.8908 21.1111H21.1131V14.4444H18.8908V21.1111ZM15.8353 30L10.002 24.1667V15.8333L15.8353 10H24.1686L30.002 15.8333V24.1667L24.1686 30H15.8353ZM16.7797 27.7778H23.2242L27.7797 23.2222V16.7778L23.2242 12.2222H16.7797L12.2242 16.7778V23.2222L16.7797 27.7778Z" fill="white"/>
</svg>
