<svg width="38" height="33" viewBox="0 0 38 33" fill="none" xmlns="http://www.w3.org/2000/svg">
<path d="M8.72729 21.422H28.9997V24.0886H8.72729V21.422ZM8.72729 13.422V16.0886H11.2613V13.422C11.2613 12.7147 11.5283 12.0364 12.0036 11.5363C12.4788 11.0362 13.1233 10.7553 13.7954 10.7553C14.4675 10.7553 15.112 11.0362 15.5872 11.5363C16.0625 12.0364 16.3294 12.7147 16.3294 13.422V16.0886H18.8635V13.422C18.8635 12.0075 18.3295 10.6509 17.3791 9.65072C16.4286 8.65053 15.1395 8.08862 13.7954 8.08862C12.4513 8.08862 11.1622 8.65053 10.2117 9.65072C9.26125 10.6509 8.72729 12.0075 8.72729 13.422ZM21.2404 13.7793L27.8239 9.77929L29.0909 12.0886L22.5075 16.0886L21.2404 13.7793Z" fill="#14B8A6"/>
<path d="M31.2972 3.48258L35.1169 7.25325V26.3786L31.2972 30.1493H6.52093L2.7013 26.3786V7.25325L6.52093 3.48258H31.2972ZM32.4156 0.815918H5.4026L0 6.14925V27.4826L5.4026 32.8159H32.4156L37.8182 27.4826V6.14925L32.4156 0.815918Z" fill="#14B8A6"/>
</svg>
