<svg width="16" height="20" viewBox="0 0 16 20" fill="none" xmlns="http://www.w3.org/2000/svg">
<path d="M2.28613 0.5H13.7139C14.1424 0.5 14.5101 0.632896 14.834 0.912109L14.9707 1.04102C15.3272 1.40865 15.5006 1.8379 15.5 2.35547V17.6396C15.5 18.2364 15.298 18.6903 14.8828 19.04L14.6924 19.1836C14.1499 19.5489 13.6072 19.5972 13.001 19.3311H13L8.20215 17.2119L8 17.1221L7.79785 17.2119L2.99902 19.3311C2.46837 19.5634 1.9864 19.5558 1.51074 19.3057L1.30762 19.1836C0.763846 18.8181 0.500046 18.3226 0.5 17.6396V2.35547C0.500076 1.90166 0.633247 1.51649 0.905273 1.18164L1.03027 1.04102C1.34221 0.720049 1.69532 0.547468 2.10645 0.508789L2.28613 0.5ZM1.78613 18.3789L2.48828 18.0674L8 15.623L13.5117 18.0674L14.2139 18.3789V1.85547H1.78613V18.3789Z" fill="#14B8A6" stroke="#14B8A6"/>
</svg>
