<svg width="40" height="40" viewBox="0 0 40 40" fill="none" xmlns="http://www.w3.org/2000/svg">
<rect width="40.0023" height="40.0023" rx="15" fill="#14B8A6"/>
<path d="M18.9134 21.0877C18.7223 20.897 18.4945 20.7469 18.2438 20.6465L10.3138 17.4665C10.2191 17.4285 10.1383 17.3625 10.0823 17.2772C10.0262 17.192 9.99755 17.0916 10.0002 16.9897C10.0028 16.8877 10.0365 16.7889 10.0969 16.7067C10.1572 16.6244 10.2413 16.5626 10.3378 16.5295L29.3378 10.0295C29.4264 9.99749 29.5223 9.99139 29.6143 10.0119C29.7062 10.0324 29.7904 10.0787 29.857 10.1453C29.9236 10.2119 29.9699 10.2961 29.9904 10.3881C30.0109 10.48 30.0048 10.5759 29.9728 10.6645L23.4728 29.6645C23.4397 29.761 23.3779 29.8451 23.2956 29.9054C23.2134 29.9658 23.1146 29.9995 23.0126 30.0021C22.9107 30.0048 22.8103 29.9761 22.7251 29.92C22.6398 29.864 22.5738 29.7832 22.5358 29.6885L19.3558 21.7565C19.255 21.506 19.1045 21.2785 18.9134 21.0877ZM18.9134 21.0877L29.8538 10.1495" stroke="white" stroke-width="2" stroke-linecap="round" stroke-linejoin="round"/>
</svg>
