<svg width="30" height="30" viewBox="0 0 30 30" fill="none" xmlns="http://www.w3.org/2000/svg">
<path d="M3.995 9.84119H26.005M19.7587 9.84119V3.59619M10.2412 9.84119V3.59619M12.675 14.9099V21.0624C12.675 21.1887 12.715 21.3124 12.7887 21.4199C12.8637 21.5262 12.97 21.6124 13.0962 21.6687C13.2235 21.7244 13.3627 21.747 13.501 21.7346C13.6393 21.7221 13.7723 21.675 13.8875 21.5974L18.635 18.2849C18.7272 18.2209 18.8027 18.1356 18.855 18.0362C18.9042 17.9402 18.9278 17.8332 18.9234 17.7254C18.9191 17.6176 18.8869 17.5128 18.83 17.4212C18.7685 17.3266 18.6865 17.2472 18.59 17.1887L13.8425 14.3487C13.7264 14.2812 13.5956 14.2431 13.4614 14.2376C13.3272 14.2322 13.1937 14.2596 13.0725 14.3174C12.9561 14.3736 12.8562 14.4588 12.7825 14.5649C12.7135 14.6668 12.6761 14.7869 12.675 14.9099Z" stroke="white" stroke-width="1.875" stroke-linecap="round" stroke-linejoin="round"/>
<path d="M19.0625 3.4375H10.9375C6.79536 3.4375 3.4375 6.79536 3.4375 10.9375V19.0625C3.4375 23.2046 6.79536 26.5625 10.9375 26.5625H19.0625C23.2046 26.5625 26.5625 23.2046 26.5625 19.0625V10.9375C26.5625 6.79536 23.2046 3.4375 19.0625 3.4375Z" stroke="white" stroke-width="1.875"/>
</svg>
