<svg width="100" height="100" viewBox="0 0 100 100" fill="none" xmlns="http://www.w3.org/2000/svg">
<rect width="100" height="100" rx="50" fill="#FF0000" fill-opacity="0.25"/>
<path d="M40 68C38.9 68 37.9587 67.6087 37.176 66.826C36.3933 66.0433 36.0013 65.1013 36 64V38C35.4333 38 34.9587 37.808 34.576 37.424C34.1933 37.04 34.0013 36.5653 34 36C33.9987 35.4347 34.1907 34.96 34.576 34.576C34.9613 34.192 35.436 34 36 34H44C44 33.4333 44.192 32.9587 44.576 32.576C44.96 32.1933 45.4347 32.0013 46 32H54C54.5667 32 55.042 32.192 55.426 32.576C55.81 32.96 56.0013 33.4347 56 34H64C64.5667 34 65.042 34.192 65.426 34.576C65.81 34.96 66.0013 35.4347 66 36C65.9987 36.5653 65.8067 37.0407 65.424 37.426C65.0413 37.8113 64.5667 38.0027 64 38V64C64 65.1 63.6087 66.042 62.826 66.826C62.0433 67.61 61.1013 68.0013 60 68H40ZM60 38H40V64H60V38ZM46 60C46.5667 60 47.042 59.808 47.426 59.424C47.81 59.04 48.0013 58.5653 48 58V44C48 43.4333 47.808 42.9587 47.424 42.576C47.04 42.1933 46.5653 42.0013 46 42C45.4347 41.9987 44.96 42.1907 44.576 42.576C44.192 42.9613 44 43.436 44 44V58C44 58.5667 44.192 59.042 44.576 59.426C44.96 59.81 45.4347 60.0013 46 60ZM54 60C54.5667 60 55.042 59.808 55.426 59.424C55.81 59.04 56.0013 58.5653 56 58V44C56 43.4333 55.808 42.9587 55.424 42.576C55.04 42.1933 54.5653 42.0013 54 42C53.4347 41.9987 52.96 42.1907 52.576 42.576C52.192 42.9613 52 43.436 52 44V58C52 58.5667 52.192 59.042 52.576 59.426C52.96 59.81 53.4347 60.0013 54 60Z" fill="#FF0000"/>
</svg>
