<svg width="18" height="24" viewBox="0 0 18 24" fill="none" xmlns="http://www.w3.org/2000/svg">
<path d="M11.7783 1.54688L1.5 14.25H7.5L6.02297 22.3702C6.02016 22.3861 6.02088 22.4024 6.02507 22.4181C6.02927 22.4337 6.03684 22.4482 6.04725 22.4606C6.05767 22.473 6.07067 22.4829 6.08535 22.4897C6.10002 22.4965 6.11601 22.5 6.13219 22.5C6.1494 22.5 6.16637 22.4959 6.18175 22.4882C6.19713 22.4805 6.2105 22.4693 6.22078 22.4555L16.5 9.75H10.5L11.9841 1.62891C11.9861 1.61273 11.9846 1.59631 11.9797 1.58074C11.9749 1.56518 11.9668 1.55082 11.956 1.53862C11.9452 1.52643 11.9319 1.51668 11.917 1.51002C11.9021 1.50336 11.886 1.49994 11.8697 1.5C11.8518 1.50007 11.8343 1.50435 11.8184 1.5125C11.8025 1.52064 11.7888 1.53242 11.7783 1.54688Z" stroke="#14B8A6" stroke-width="1.66" stroke-linecap="round" stroke-linejoin="round"/>
</svg>
