<svg width="24" height="24" viewBox="0 0 24 24" fill="none" xmlns="http://www.w3.org/2000/svg">
<path d="M20.2501 21.0001C20.1516 21.0002 20.054 20.9809 19.963 20.9432C19.872 20.9054 19.7894 20.8501 19.7199 20.7802L3.21994 4.28025C3.08522 4.13845 3.01123 3.94964 3.01373 3.75407C3.01624 3.5585 3.09504 3.37164 3.23334 3.23334C3.37164 3.09504 3.5585 3.01623 3.75407 3.01373C3.94964 3.01123 4.13845 3.08522 4.28025 3.21994L20.7803 19.7199C20.8851 19.8248 20.9564 19.9584 20.9854 20.1039C21.0143 20.2493 20.9994 20.4001 20.9427 20.5371C20.8859 20.6741 20.7899 20.7912 20.6666 20.8736C20.5433 20.956 20.3984 21 20.2501 21.0001ZM13.7973 3.95072L12.7623 9.61509C12.7371 9.7526 12.7508 9.89441 12.8019 10.0245C12.853 10.1547 12.9395 10.2679 13.0515 10.3515C13.1865 10.45 13.3498 10.5022 13.517 10.5001H17.9288L16.1303 12.7229C16.1012 12.7589 16.0864 12.8044 16.0888 12.8506C16.0913 12.8968 16.1107 12.9405 16.1434 12.9732L16.9435 13.7734C16.9621 13.792 16.9844 13.8065 17.0089 13.8159C17.0335 13.8253 17.0597 13.8295 17.086 13.8281C17.1122 13.8268 17.1379 13.8199 17.1614 13.8079C17.1848 13.796 17.2054 13.7793 17.222 13.7588L20.072 10.2357C20.1486 10.1434 20.2025 10.0344 20.2293 9.91754C20.2562 9.80064 20.2553 9.67907 20.2267 9.56259C20.1851 9.40154 20.0911 9.25887 19.9596 9.15705C19.8281 9.05522 19.6664 9.00001 19.5001 9.00009H14.3996L15.722 1.764C15.7243 1.74994 15.7267 1.73634 15.7281 1.72228C15.7519 1.53465 15.7136 1.34436 15.619 1.18058C15.5244 1.01679 15.3787 0.888533 15.2043 0.815452C15.0298 0.742372 14.8362 0.728499 14.6531 0.775958C14.47 0.823418 14.3076 0.929592 14.1906 1.07822L9.85088 6.44353C9.82166 6.47955 9.80683 6.52512 9.80925 6.57144C9.81168 6.61776 9.83118 6.66153 9.864 6.69431L10.6642 7.494C10.6827 7.5126 10.705 7.5271 10.7296 7.53653C10.7541 7.54596 10.7804 7.55013 10.8066 7.54876C10.8329 7.54739 10.8585 7.54051 10.882 7.52858C10.9054 7.51664 10.9261 7.49991 10.9426 7.47947L13.7973 3.95072ZM10.2085 20.0424L11.2398 14.3842C11.2648 14.2466 11.2509 14.1049 11.1996 13.9748C11.1484 13.8448 11.0618 13.7317 10.9496 13.6482C10.8146 13.5501 10.6515 13.4981 10.4846 13.5001H6.07369L7.87181 11.2773C7.9009 11.2413 7.91565 11.1958 7.91322 11.1496C7.9108 11.1034 7.89138 11.0597 7.85869 11.027L7.05853 10.2268C7.03996 10.2083 7.01771 10.1939 6.99321 10.1845C6.96871 10.1751 6.94252 10.1709 6.91632 10.1723C6.89012 10.1737 6.8645 10.1805 6.84112 10.1924C6.81773 10.2043 6.7971 10.221 6.78056 10.2413L3.92822 13.7645C3.85162 13.8568 3.79773 13.9657 3.77086 14.0826C3.744 14.1995 3.74491 14.3211 3.77353 14.4376C3.81512 14.5986 3.90906 14.7413 4.04059 14.8431C4.17211 14.945 4.33376 15.0002 4.50009 15.0001H9.6015L8.28478 22.2357V22.2409C8.25229 22.4294 8.28351 22.6234 8.37353 22.7923C8.46355 22.9611 8.60724 23.0951 8.78191 23.1732C8.95659 23.2513 9.15229 23.269 9.33814 23.2235C9.52398 23.178 9.68938 23.0719 9.80822 22.922L14.1493 17.5567C14.1785 17.5206 14.1934 17.4751 14.1909 17.4287C14.1885 17.3824 14.169 17.3386 14.1362 17.3059L13.336 16.5062C13.3175 16.4876 13.2952 16.4731 13.2706 16.4637C13.2461 16.4542 13.2198 16.4501 13.1936 16.4514C13.1673 16.4528 13.1416 16.4597 13.1182 16.4716C13.0948 16.4835 13.0741 16.5003 13.0576 16.5207L10.2085 20.0424Z" fill="#14B8A6"/>
</svg>
