<svg width="19" height="20" viewBox="0 0 19 20" fill="none" xmlns="http://www.w3.org/2000/svg">
<path d="M17.83 15.657C17.94 15.291 18 14.902 18 14.5V5.5C18 4.43913 17.5786 3.42172 16.8284 2.67157C16.0783 1.92143 15.0609 1.5 14 1.5H5C3.93913 1.5 2.92172 1.92143 2.17157 2.67157C1.42143 3.42172 1 4.43913 1 5.5V14.57C1.01835 15.6187 1.44787 16.6182 2.19604 17.3533C2.9442 18.0884 3.95115 18.5002 5 18.5H14L14.117 18.498M17.83 15.657L17.742 15.553L15.276 12.577C15.0889 12.3513 14.8544 12.1694 14.5892 12.0443C14.324 11.9193 14.0346 11.8541 13.7414 11.8533C13.4482 11.8525 13.1584 11.9162 12.8925 12.0399C12.6267 12.1636 12.3913 12.3442 12.203 12.569L10.891 14.135L10.677 14.396M17.83 15.657C17.5874 16.4603 17.0984 17.166 16.432 17.676C15.7657 18.1861 14.9558 18.4736 14.117 18.498M10.677 14.396L14.024 18.392L14.117 18.498M10.677 14.396L7.45 10.543C7.26228 10.319 7.02774 10.1388 6.76288 10.0152C6.49802 9.89155 6.20929 9.82749 5.917 9.82749C5.62471 9.82749 5.33598 9.89155 5.07112 10.0152C4.80626 10.1388 4.57172 10.319 4.384 10.543L1.178 14.37L1.001 14.571" stroke="#475569" stroke-width="1.5" stroke-linecap="round" stroke-linejoin="round"/>
<path d="M12.5911 8.40894C13.4195 8.40894 14.0911 7.73736 14.0911 6.90894C14.0911 6.08051 13.4195 5.40894 12.5911 5.40894C11.7626 5.40894 11.0911 6.08051 11.0911 6.90894C11.0911 7.73736 11.7626 8.40894 12.5911 8.40894Z" fill="#475569"/>
</svg>
