<svg width="32" height="32" viewBox="0 0 32 32" fill="none" xmlns="http://www.w3.org/2000/svg">
<path d="M15.04 11.2H27.84C27.12 9.36 26.0203 7.77973 24.5408 6.4592C23.0613 5.13867 21.3611 4.21227 19.44 3.68L15.04 11.2ZM11.36 14.4L17.76 3.36C17.4667 3.30667 17.1733 3.26667 16.88 3.24C16.5867 3.21333 16.2933 3.2 16 3.2C14.24 3.2 12.6 3.53333 11.08 4.2C9.56 4.86667 8.21333 5.76 7.04 6.88L11.36 14.4ZM3.6 19.2H12.32L5.92 8.16C5.06667 9.25333 4.4 10.4603 3.92 11.7808C3.44 13.1013 3.2 14.5077 3.2 16C3.2 16.56 3.2336 17.1003 3.3008 17.6208C3.368 18.1413 3.46773 18.6677 3.6 19.2ZM12.56 28.32L16.88 20.8H4.16C4.88 22.64 5.98027 24.2203 7.4608 25.5408C8.94133 26.8613 10.6411 27.7877 12.56 28.32ZM16 28.8C17.76 28.8 19.4 28.4667 20.92 27.8C22.44 27.1333 23.7867 26.24 24.96 25.12L20.64 17.6L14.24 28.64C14.5333 28.6933 14.8203 28.7333 15.1008 28.76C15.3813 28.7867 15.6811 28.8 16 28.8ZM26.08 23.84C26.9333 22.7467 27.6 21.5403 28.08 20.2208C28.56 18.9013 28.8 17.4944 28.8 16C28.8 15.44 28.7669 14.9003 28.7008 14.3808C28.6347 13.8613 28.5344 13.3344 28.4 12.8H19.68L26.08 23.84ZM16 32C13.8133 32 11.7467 31.5797 9.8 30.7392C7.85333 29.8987 6.1536 28.752 4.7008 27.2992C3.248 25.8464 2.10133 24.1467 1.2608 22.2C0.420267 20.2533 0 18.1867 0 16C0 13.7867 0.420267 11.7136 1.2608 9.7808C2.10133 7.848 3.248 6.15467 4.7008 4.7008C6.1536 3.24693 7.85333 2.10027 9.8 1.2608C11.7467 0.421334 13.8133 0.00106667 16 0C18.2133 0 20.2869 0.420267 22.2208 1.2608C24.1547 2.10133 25.8475 3.248 27.2992 4.7008C28.7509 6.1536 29.8976 7.84693 30.7392 9.7808C31.5808 11.7147 32.0011 13.7877 32 16C32 18.1867 31.5797 20.2533 30.7392 22.2C29.8987 24.1467 28.752 25.8469 27.2992 27.3008C25.8464 28.7547 24.1531 29.9013 22.2192 30.7408C20.2853 31.5803 18.2123 32 16 32Z" fill="white"/>
</svg>
