<svg width="34" height="34" viewBox="0 0 34 34" fill="none" xmlns="http://www.w3.org/2000/svg">
<path fill-rule="evenodd" clip-rule="evenodd" d="M4.95425 0.545C7.39775 0.3425 11.3368 0.125 17 0.125C22.6632 0.125 26.6023 0.3425 29.0457 0.545C31.4233 0.74225 33.2577 2.5775 33.455 4.95425C33.6575 7.39775 33.875 11.3368 33.875 17C33.875 18.5195 33.86 19.8748 33.8323 21.125C33.8273 21.3765 33.808 21.6275 33.7745 21.878C31.028 21.9155 28.7787 22.2733 27.1475 22.6497C26.0495 22.8977 25.0443 23.4517 24.2484 24.2477C23.4525 25.0436 22.8984 26.0488 22.6505 27.1467C22.274 28.778 21.9155 31.028 21.878 33.7745C21.628 33.808 21.377 33.8273 21.125 33.8323C19.8748 33.8592 18.5195 33.875 17 33.875C11.336 33.875 7.3985 33.6575 4.95425 33.455C2.57675 33.2577 0.74225 31.4225 0.545 29.0457C0.3425 26.6023 0.125 22.6632 0.125 17C0.125 11.3368 0.3425 7.3985 0.545 4.95425C0.74225 2.57675 2.5775 0.74225 4.95425 0.545ZM10.043 18.845C10.3493 18.5912 10.7439 18.4695 11.14 18.5066C11.5361 18.5437 11.9012 18.7367 12.155 19.043C13.55 20.726 15.3095 21.5 17 21.5C18.6905 21.5 20.45 20.726 21.845 19.043C22.0999 18.7401 22.4641 18.5502 22.8584 18.5147C23.2527 18.4792 23.645 18.601 23.9499 18.8536C24.2547 19.1062 24.4473 19.469 24.4858 19.863C24.5242 20.2571 24.4053 20.6503 24.155 20.957C22.2358 23.2737 19.6528 24.5 17 24.5C14.3472 24.5 11.7642 23.2737 9.845 20.957C9.5912 20.6507 9.46948 20.2561 9.50661 19.86C9.54374 19.4639 9.73668 19.0988 10.043 18.845ZM12.5 11.75C12.5 11.3522 12.342 10.9706 12.0607 10.6893C11.7794 10.408 11.3978 10.25 11 10.25C10.6022 10.25 10.2206 10.408 9.93934 10.6893C9.65804 10.9706 9.5 11.3522 9.5 11.75V13.25C9.5 13.6478 9.65804 14.0294 9.93934 14.3107C10.2206 14.592 10.6022 14.75 11 14.75C11.3978 14.75 11.7794 14.592 12.0607 14.3107C12.342 14.0294 12.5 13.6478 12.5 13.25V11.75ZM23 10.25C22.6022 10.25 22.2206 10.408 21.9393 10.6893C21.658 10.9706 21.5 11.3522 21.5 11.75V13.25C21.5 13.6478 21.658 14.0294 21.9393 14.3107C22.2206 14.592 22.6022 14.75 23 14.75C23.3978 14.75 23.7794 14.592 24.0607 14.3107C24.342 14.0294 24.5 13.6478 24.5 13.25V11.75C24.5 11.3522 24.342 10.9706 24.0607 10.6893C23.7794 10.408 23.3978 10.25 23 10.25ZM24.149 32.9997C24.351 32.8812 24.5462 32.7488 24.7347 32.6022C25.7143 31.8418 27.1535 30.6312 28.892 28.892C30.6305 27.1528 31.8418 25.7143 32.6022 24.7347C32.7488 24.5462 32.8812 24.3513 32.9997 24.1497C30.7985 24.2345 28.988 24.5345 27.6522 24.842C26.965 24.9944 26.3356 25.3398 25.8379 25.8376C25.3402 26.3354 24.995 26.965 24.8428 27.6522C24.5345 28.9872 24.2353 30.7985 24.149 32.9997Z" fill="white"/>
</svg>
