<svg width="20" height="20" viewBox="0 0 20 20" fill="none" xmlns="http://www.w3.org/2000/svg">
<path d="M9.99987 17C10.2448 17 10.4812 17.09 10.6642 17.2527C10.8473 17.4155 10.9642 17.6397 10.9929 17.883L10.9999 18V19C10.9996 19.2549 10.902 19.5 10.727 19.6854C10.5521 19.8707 10.3129 19.9822 10.0585 19.9972C9.80403 20.0121 9.55349 19.9293 9.35804 19.7657C9.16258 19.6021 9.03697 19.3701 9.00687 19.117L8.99987 19V18C8.99987 17.7348 9.10523 17.4804 9.29276 17.2929C9.4803 17.1054 9.73465 17 9.99987 17ZM16.3129 14.91L16.4069 14.993L17.1069 15.693C17.2862 15.873 17.3903 16.1144 17.3981 16.3684C17.4059 16.6223 17.3167 16.8697 17.1486 17.0603C16.9806 17.2508 16.7463 17.3703 16.4934 17.3944C16.2405 17.4185 15.9879 17.3454 15.7869 17.19L15.6929 17.107L14.9929 16.407C14.8203 16.2347 14.7166 16.0054 14.7013 15.762C14.686 15.5187 14.7602 15.2781 14.9098 15.0856C15.0595 14.8931 15.2743 14.7619 15.5139 14.7166C15.7535 14.6714 16.0013 14.7153 16.2109 14.84L16.3129 14.91ZM5.00687 14.993C5.17905 15.1652 5.28248 15.3943 5.29776 15.6373C5.31304 15.8803 5.23912 16.1206 5.08987 16.313L5.00687 16.407L4.30687 17.107C4.12691 17.2863 3.88543 17.3905 3.63148 17.3982C3.37754 17.406 3.13016 17.3168 2.93959 17.1488C2.74902 16.9807 2.62956 16.7464 2.60547 16.4935C2.58138 16.2406 2.65446 15.988 2.80987 15.787L2.89287 15.693L3.59287 14.993C3.7804 14.8055 4.0347 14.7002 4.29987 14.7002C4.56503 14.7002 4.81934 14.8055 5.00687 14.993ZM1.99987 9C2.25475 9.00028 2.4999 9.09788 2.68524 9.27285C2.87057 9.44782 2.9821 9.68695 2.99704 9.94139C3.01198 10.1958 2.92919 10.4464 2.7656 10.6418C2.60201 10.8373 2.36996 10.9629 2.11687 10.993L1.99987 11H0.999869C0.744989 10.9997 0.499837 10.9021 0.3145 10.7272C0.129164 10.5522 0.0176337 10.313 0.0026966 10.0586C-0.0122405 9.80416 0.0705433 9.55362 0.234134 9.35817C0.397724 9.16271 0.629773 9.0371 0.882869 9.007L0.999869 9H1.99987ZM18.9999 9C19.2547 9.00028 19.4999 9.09788 19.6852 9.27285C19.8706 9.44782 19.9821 9.68695 19.997 9.94139C20.012 10.1958 19.9292 10.4464 19.7656 10.6418C19.602 10.8373 19.37 10.9629 19.1169 10.993L18.9999 11H17.9999C17.745 10.9997 17.4998 10.9021 17.3145 10.7272C17.1292 10.5522 17.0176 10.313 17.0027 10.0586C16.9878 9.80416 17.0705 9.55362 17.2341 9.35817C17.3977 9.16271 17.6298 9.0371 17.8829 9.007L17.9999 9H18.9999ZM4.21287 2.81L4.30687 2.893L5.00687 3.593C5.18622 3.77296 5.29034 4.01443 5.2981 4.26838C5.30585 4.52233 5.21665 4.76971 5.04862 4.96028C4.88059 5.15084 4.64632 5.27031 4.39339 5.2944C4.14047 5.31849 3.88786 5.24541 3.68687 5.09L3.59287 5.007L2.89287 4.307C2.72096 4.13468 2.6178 3.90557 2.60273 3.66263C2.58767 3.41969 2.66173 3.17959 2.81103 2.98735C2.96033 2.79511 3.17463 2.66393 3.41374 2.61839C3.65285 2.57285 3.90036 2.61609 4.10987 2.74L4.21287 2.81ZM17.1069 2.893C17.279 3.06519 17.3825 3.29429 17.3978 3.53732C17.413 3.78034 17.3391 4.0206 17.1899 4.213L17.1069 4.307L16.4069 5.007C16.2269 5.18635 15.9854 5.29047 15.7315 5.29823C15.4775 5.30598 15.2302 5.21678 15.0396 5.04875C14.849 4.88072 14.7296 4.64645 14.7055 4.39353C14.6814 4.1406 14.7545 3.88799 14.9099 3.687L14.9929 3.593L15.6929 2.893C15.8804 2.70553 16.1347 2.60021 16.3999 2.60021C16.665 2.60021 16.9193 2.70553 17.1069 2.893ZM9.99987 0C10.2448 3.23106e-05 10.4812 0.0899562 10.6642 0.252715C10.8473 0.415475 10.9642 0.639749 10.9929 0.883L10.9999 1V2C10.9996 2.25488 10.902 2.50003 10.727 2.68537C10.5521 2.8707 10.3129 2.98223 10.0585 2.99717C9.80403 3.01211 9.55349 2.92933 9.35804 2.76574C9.16258 2.60214 9.03697 2.3701 9.00687 2.117L8.99987 2V1C8.99987 0.734784 9.10523 0.48043 9.29276 0.292893C9.4803 0.105357 9.73465 0 9.99987 0ZM9.99987 5C10.9795 4.99994 11.9377 5.28769 12.7552 5.8275C13.5727 6.36731 14.2137 7.1354 14.5984 8.03636C14.9832 8.93733 15.0948 9.93147 14.9193 10.8953C14.7439 11.8592 14.2892 12.7502 13.6117 13.4579C12.9342 14.1655 12.0637 14.6585 11.1084 14.8756C10.1531 15.0928 9.15504 15.0245 8.2382 14.6793C7.32137 14.334 6.52615 13.7271 5.95133 12.9338C5.3765 12.1405 5.04739 11.1958 5.00487 10.217L4.99987 10L5.00487 9.783C5.06079 8.49575 5.61148 7.27978 6.54209 6.38866C7.47271 5.49754 8.7114 5.00007 9.99987 5Z" fill="#FFAF02"/>
</svg>
