<svg width="24" height="24" viewBox="0 0 24 24" fill="none" xmlns="http://www.w3.org/2000/svg">
<path d="M9 4.5C9 3.70435 9.31607 2.94129 9.87868 2.37868C10.4413 1.81607 11.2044 1.5 12 1.5C12.7956 1.5 13.5587 1.81607 14.1213 2.37868C14.6839 2.94129 15 3.70435 15 4.5V19.5C15 20.2956 14.6839 21.0587 14.1213 21.6213C13.5587 22.1839 12.7956 22.5 12 22.5C11.2044 22.5 10.4413 22.1839 9.87868 21.6213C9.31607 21.0587 9 20.2956 9 19.5V4.5ZM1.5 13.5C1.5 12.7044 1.81607 11.9413 2.37868 11.3787C2.94129 10.8161 3.70435 10.5 4.5 10.5C5.29565 10.5 6.05871 10.8161 6.62132 11.3787C7.18393 11.9413 7.5 12.7044 7.5 13.5V19.5C7.5 20.2956 7.18393 21.0587 6.62132 21.6213C6.05871 22.1839 5.29565 22.5 4.5 22.5C3.70435 22.5 2.94129 22.1839 2.37868 21.6213C1.81607 21.0587 1.5 20.2956 1.5 19.5V13.5ZM16.5 10.5C16.5 9.70435 16.8161 8.94129 17.3787 8.37868C17.9413 7.81607 18.7044 7.5 19.5 7.5C20.2956 7.5 21.0587 7.81607 21.6213 8.37868C22.1839 8.94129 22.5 9.70435 22.5 10.5V19.5C22.5 20.2956 22.1839 21.0587 21.6213 21.6213C21.0587 22.1839 20.2956 22.5 19.5 22.5C18.7044 22.5 17.9413 22.1839 17.3787 21.6213C16.8161 21.0587 16.5 20.2956 16.5 19.5V10.5Z" fill="#15FF00"/>
</svg>
