<svg width="24" height="24" viewBox="0 0 24 24" fill="none" xmlns="http://www.w3.org/2000/svg">
<path d="M14.72 8.75H13.225V15.019H14.72V8.75ZM6 12C6 10.098 7.384 8.75 9.336 8.75C10.33 8.75 11.123 9.09 11.669 9.659L10.603 10.707C10.29 10.371 9.847 10.156 9.264 10.156C8.261 10.156 7.54 10.908 7.54 12.001C7.54 13.205 8.338 13.881 9.269 13.881C10.159 13.881 10.679 13.488 10.854 12.749H9.327V11.593H12.337C12.358 11.759 12.367 11.911 12.367 12.063C12.367 14.07 10.935 15.247 9.323 15.247C7.455 15.247 6 13.957 6 12.001M3.5 14.285C3.5 13.774 3.948 13.335 4.463 13.335C4.973 13.335 5.416 13.774 5.416 14.285C5.416 14.804 4.973 15.252 4.463 15.252C4.20859 15.2461 3.96631 15.1421 3.78683 14.9617C3.60735 14.7813 3.50458 14.5394 3.5 14.285ZM17.258 11.271H20V12.623H17.258V15.019H15.763V8.75H20.5V10.098H17.258V11.271Z" fill="#0BD0C6"/>
<path fill-rule="evenodd" clip-rule="evenodd" d="M19.83 5.25H4.17C3.635 5.25 3.19 5.25 2.825 5.28C2.445 5.31 2.089 5.378 1.752 5.55C1.23445 5.81367 0.813671 6.23445 0.55 6.752C0.378 7.089 0.31 7.445 0.28 7.825C0.25 8.19 0.25 8.635 0.25 9.17V14.83C0.25 15.365 0.25 15.81 0.28 16.175C0.31 16.555 0.378 16.911 0.55 17.248C0.813671 17.7656 1.23445 18.1863 1.752 18.45C2.089 18.622 2.445 18.69 2.825 18.72C3.19 18.75 3.635 18.75 4.17 18.75H19.83C20.365 18.75 20.81 18.75 21.175 18.72C21.555 18.69 21.911 18.622 22.248 18.45C22.7654 18.1866 23.1862 17.7662 23.45 17.249C23.622 16.911 23.69 16.555 23.72 16.175C23.75 15.81 23.75 15.365 23.75 14.831V9.17C23.75 8.635 23.75 8.19 23.72 7.825C23.69 7.445 23.622 7.089 23.45 6.752C23.1869 6.23475 22.7668 5.81401 22.25 5.55C21.912 5.378 21.556 5.31 21.176 5.28C20.811 5.25 20.365 5.25 19.83 5.25ZM2.433 6.886C2.523 6.84 2.66 6.798 2.947 6.775C3.243 6.751 3.627 6.75 4.2 6.75H19.8C20.372 6.75 20.757 6.75 21.052 6.775C21.34 6.798 21.477 6.84 21.567 6.886C21.803 7.006 21.994 7.197 22.114 7.433C22.16 7.523 22.202 7.66 22.225 7.947C22.249 8.243 22.25 8.627 22.25 9.2V14.8C22.25 15.372 22.25 15.757 22.225 16.052C22.202 16.34 22.16 16.477 22.114 16.567C21.9941 16.8026 21.8026 16.9941 21.567 17.114C21.477 17.16 21.34 17.202 21.052 17.225C20.757 17.249 20.372 17.25 19.8 17.25H4.2C3.628 17.25 3.243 17.25 2.947 17.225C2.66 17.202 2.523 17.16 2.433 17.114C2.19741 16.9941 2.00591 16.8026 1.886 16.567C1.84 16.477 1.798 16.34 1.775 16.052C1.751 15.757 1.75 15.372 1.75 14.8V9.2C1.75 8.628 1.75 8.243 1.775 7.947C1.798 7.66 1.84 7.523 1.886 7.433C2.00591 7.19741 2.19741 7.00591 2.433 6.886Z" fill="#0BD0C6"/>
</svg>
