<svg width="24" height="24" viewBox="0 0 24 24" fill="none" xmlns="http://www.w3.org/2000/svg">
<path d="M20.8197 6.49023V7.49023C20.8184 7.95568 20.7088 8.41444 20.4997 8.83023C20.2967 9.24962 19.9988 9.61597 19.6297 9.90023C19.2609 10.1813 18.8337 10.3761 18.3797 10.4702C18.179 10.5102 17.9757 10.5302 17.7697 10.5302C17.509 10.5302 17.2523 10.5002 16.9997 10.4402L12.7597 9.24023V17.4602C12.7623 18.5631 12.3843 19.6331 11.6894 20.4895C10.9946 21.346 10.0254 21.9364 8.9457 22.1611C7.86597 22.3859 6.74177 22.2311 5.76291 21.723C4.78405 21.2149 4.01051 20.3846 3.5729 19.3723C3.1353 18.3599 3.06043 17.2276 3.36094 16.1664C3.66145 15.1053 4.31893 14.1804 5.22237 13.5478C6.1258 12.9153 7.21985 12.6138 8.31977 12.6944C9.41969 12.775 10.4581 13.2327 11.2597 13.9902V2.46023C11.2485 2.39404 11.2485 2.32643 11.2597 2.26023V2.18023C11.3081 2.06916 11.3824 1.97127 11.4763 1.89473C11.5702 1.81819 11.6811 1.76522 11.7997 1.74023H12.2397L18.5397 3.53023C19.1823 3.70322 19.7491 4.08496 20.151 4.61538C20.5529 5.1458 20.767 5.7948 20.7597 6.46023L20.8197 6.49023Z" fill="#2E9365"/>
</svg>
