<svg width="12" height="20" viewBox="0 0 12 20" fill="none" xmlns="http://www.w3.org/2000/svg">
<path d="M10 0.5L4 0.5C3.60218 0.5 3.22064 0.658035 2.93934 0.93934C2.65804 1.22064 2.5 1.60218 2.5 2C2.5 2.39782 2.65804 2.77936 2.93934 3.06066C3.22064 3.34196 3.60218 3.5 4 3.5L5.3 3.5L3.676 16.5H2C1.60218 16.5 1.22064 16.658 0.93934 16.9393C0.658035 17.2206 0.5 17.6022 0.5 18C0.5 18.3978 0.658035 18.7794 0.93934 19.0607C1.22064 19.342 1.60218 19.5 2 19.5H8C8.39782 19.5 8.77936 19.342 9.06066 19.0607C9.34196 18.7794 9.5 18.3978 9.5 18C9.5 17.6022 9.34196 17.2206 9.06066 16.9393C8.77936 16.658 8.39782 16.5 8 16.5H6.7L8.324 3.5H10C10.3978 3.5 10.7794 3.34196 11.0607 3.06066C11.342 2.77936 11.5 2.39782 11.5 2C11.5 1.60218 11.342 1.22064 11.0607 0.93934C10.7794 0.658035 10.3978 0.5 10 0.5Z" fill="#14B8A6"/>
</svg>
