<svg width="24" height="24" viewBox="0 0 24 24" fill="none" xmlns="http://www.w3.org/2000/svg">
<path d="M0 2.25C0 2.05109 0.0790176 1.86032 0.21967 1.71967C0.360322 1.57902 0.551088 1.5 0.75 1.5H23.25C23.4489 1.5 23.6397 1.57902 23.7803 1.71967C23.921 1.86032 24 2.05109 24 2.25C24 2.44891 23.921 2.63968 23.7803 2.78033C23.6397 2.92098 23.4489 3 23.25 3H0.75C0.551088 3 0.360322 2.92098 0.21967 2.78033C0.0790176 2.63968 0 2.44891 0 2.25ZM6 8.25C6 8.05109 6.07902 7.86032 6.21967 7.71967C6.36032 7.57902 6.55109 7.5 6.75 7.5H17.25C17.4489 7.5 17.6397 7.57902 17.7803 7.71967C17.921 7.86032 18 8.05109 18 8.25C18 8.44891 17.921 8.63968 17.7803 8.78033C17.6397 8.92098 17.4489 9 17.25 9H6.75C6.55109 9 6.36032 8.92098 6.21967 8.78033C6.07902 8.63968 6 8.44891 6 8.25ZM3 14.25C3 14.0511 3.07902 13.8603 3.21967 13.7197C3.36032 13.579 3.55109 13.5 3.75 13.5H20.25C20.4489 13.5 20.6397 13.579 20.7803 13.7197C20.921 13.8603 21 14.0511 21 14.25C21 14.4489 20.921 14.6397 20.7803 14.7803C20.6397 14.921 20.4489 15 20.25 15H3.75C3.55109 15 3.36032 14.921 3.21967 14.7803C3.07902 14.6397 3 14.4489 3 14.25ZM7.5 20.25C7.5 20.0511 7.57902 19.8603 7.71967 19.7197C7.86032 19.579 8.05109 19.5 8.25 19.5H15.75C15.9489 19.5 16.1397 19.579 16.2803 19.7197C16.421 19.8603 16.5 20.0511 16.5 20.25C16.5 20.4489 16.421 20.6397 16.2803 20.7803C16.1397 20.921 15.9489 21 15.75 21H8.25C8.05109 21 7.86032 20.921 7.71967 20.7803C7.57902 20.6397 7.5 20.4489 7.5 20.25Z" fill="white"/>
</svg>
