<svg width="12" height="16" viewBox="0 0 12 16" fill="none" xmlns="http://www.w3.org/2000/svg">
<path d="M5.04881 0C7.21259 0 8.83542 0.266439 9.91731 0.888131C11.0894 1.50982 11.6303 2.57558 11.6303 4.0854C11.6303 4.97353 11.3598 5.77285 10.9992 6.39454C10.7948 6.69822 10.5293 6.95737 10.2191 7.15596C9.90898 7.35455 9.56078 7.48835 9.19605 7.54911C9.71144 7.6677 10.2004 7.87842 10.6386 8.1708C10.9992 8.43724 11.3598 8.88131 11.6303 9.32537C11.9125 9.9687 12.036 10.6687 11.9909 11.3681C12.0228 12.0097 11.9006 12.6497 11.6343 13.2361C11.368 13.8225 10.9651 14.3387 10.4583 14.743C9.17483 15.6459 7.61449 16.0851 6.04054 15.9864H0V0H5.04881ZM5.40944 6.30573C6.40117 6.30573 7.12243 6.21691 7.48306 5.86166C7.93385 5.59522 8.11416 5.06234 8.11416 4.52947C8.11416 3.90777 7.84369 3.46371 7.39291 3.19727C6.94212 2.93083 6.22086 2.75321 5.22913 2.75321H3.42598V6.30573H5.40944ZM3.42598 8.97012V13.322H5.67992C6.67165 13.322 7.48306 13.0555 7.84369 12.7003C8.29448 12.2562 8.47479 11.8121 8.47479 11.1016C8.48554 10.8332 8.43433 10.5658 8.32501 10.3197C8.2157 10.0735 8.05113 9.85505 7.84369 9.68062C7.39291 9.32537 6.67165 9.14775 5.58976 9.14775H3.33582L3.42598 8.97012Z" fill="#14B8A6"/>
</svg>
