<svg width="16" height="20" viewBox="0 0 16 20" fill="none" xmlns="http://www.w3.org/2000/svg">
<path d="M14.0002 16.5C14.3855 16.5002 14.7558 16.6486 15.0346 16.9144C15.3134 17.1802 15.4792 17.5431 15.4978 17.9279C15.5163 18.3127 15.386 18.6898 15.1341 18.9812C14.8821 19.2726 14.5277 19.4558 14.1442 19.493L14.0002 19.5H2.00024C1.61502 19.4998 1.24464 19.3514 0.965849 19.0856C0.687057 18.8198 0.521223 18.4569 0.502711 18.0721C0.484199 17.6873 0.614427 17.3102 0.866411 17.0188C1.11839 16.7274 1.47282 16.5442 1.85624 16.507L2.00024 16.5H14.0002ZM13.0002 0.5C13.3731 0.500018 13.7326 0.63892 14.0087 0.889619C14.2847 1.14032 14.4574 1.48484 14.4932 1.856L14.5002 2V9C14.5016 10.7046 13.8332 12.3415 12.6392 13.5581C11.4452 14.7746 9.82108 15.4735 8.11675 15.504C6.41243 15.5346 4.7643 14.8944 3.52745 13.7214C2.2906 12.5485 1.56401 10.9366 1.50424 9.233L1.50024 9L1.50024 2C1.50043 1.61478 1.64881 1.24441 1.91464 0.965613C2.18048 0.686821 2.54338 0.520988 2.92815 0.502476C3.31292 0.483964 3.69007 0.614192 3.98144 0.866175C4.27281 1.11816 4.45606 1.47258 4.49324 1.856L4.50024 2V9C4.49892 9.9125 4.85402 10.7894 5.48987 11.4439C6.12573 12.0984 6.99204 12.4787 7.9042 12.5037C8.81636 12.5288 9.70223 12.1966 10.373 11.578C11.0438 10.9593 11.4465 10.1032 11.4952 9.192L11.5002 9V2C11.5002 1.60218 11.6583 1.22064 11.9396 0.93934C12.2209 0.658035 12.6024 0.5 13.0002 0.5Z" fill="#14B8A6"/>
</svg>
