<svg width="27" height="15" viewBox="0 0 27 15" fill="none" xmlns="http://www.w3.org/2000/svg">
<path d="M9.94 11.34H4.38L3.46 14H0.52L5.54 0.0199988H8.8L13.82 14H10.86L9.94 11.34ZM9.18 9.1L7.16 3.26L5.14 9.1H9.18ZM14.9764 8.42C14.9764 7.3 15.1964 6.30667 15.6364 5.44C16.0897 4.57333 16.6964 3.90667 17.4564 3.44C18.2297 2.97333 19.0897 2.74 20.0364 2.74C20.8631 2.74 21.5831 2.90667 22.1964 3.24C22.8231 3.57333 23.3231 3.99333 23.6964 4.5V2.92H26.5164V14H23.6964V12.38C23.3364 12.9 22.8364 13.3333 22.1964 13.68C21.5697 14.0133 20.8431 14.18 20.0164 14.18C19.0831 14.18 18.2297 13.94 17.4564 13.46C16.6964 12.98 16.0897 12.3067 15.6364 11.44C15.1964 10.56 14.9764 9.55333 14.9764 8.42ZM23.6964 8.46C23.6964 7.78 23.5631 7.2 23.2964 6.72C23.0297 6.22667 22.6697 5.85333 22.2164 5.6C21.7631 5.33333 21.2764 5.2 20.7564 5.2C20.2364 5.2 19.7564 5.32667 19.3164 5.58C18.8764 5.83333 18.5164 6.20667 18.2364 6.7C17.9697 7.18 17.8364 7.75333 17.8364 8.42C17.8364 9.08667 17.9697 9.67333 18.2364 10.18C18.5164 10.6733 18.8764 11.0533 19.3164 11.32C19.7697 11.5867 20.2497 11.72 20.7564 11.72C21.2764 11.72 21.7631 11.5933 22.2164 11.34C22.6697 11.0733 23.0297 10.7 23.2964 10.22C23.5631 9.72667 23.6964 9.14 23.6964 8.46Z" fill="white"/>
</svg>
