<svg width="180" height="180" viewBox="0 0 180 180" fill="none" xmlns="http://www.w3.org/2000/svg">
<path d="M90 180C139.706 180 180 157.553 180 129.864C180 102.175 139.706 79.728 90 79.728C40.2944 79.728 0 102.175 0 129.864C0 157.553 40.2944 180 90 180Z" fill="#8899A6"/>
<path d="M90 171.227C139.706 171.227 180 148.78 180 121.091C180 93.4012 139.706 70.9546 90 70.9546C40.2944 70.9546 0 93.4012 0 121.091C0 148.78 40.2944 171.227 90 171.227Z" fill="#CCD6DD"/>
<path d="M163.375 118.258C163.375 139.615 130.525 156.922 89.9997 156.922C49.4748 156.922 16.6248 139.615 16.6248 118.258C16.6248 96.9096 49.4748 79.5977 89.9997 79.5977C130.52 79.5977 163.375 96.9096 163.375 118.258Z" fill="#0D9488"/>
<path d="M161.165 112.532C161.165 161.936 18.835 161.936 18.835 112.532V68.6182H161.165V112.532Z" fill="#99F6E4"/>
<path d="M89.92 90.5873C45 90.5873 18.83 69.8711 18.83 69.8711C18.83 69.8711 18.75 74.5037 18.75 78.319C18.75 78.319 18.91 102.876 31.61 102.876C43.905 102.876 43.01 114.648 50.78 115.866C58.485 117.074 59.34 111.163 68.905 111.163C78.47 111.163 80.155 121.722 89.92 121.722C101.365 121.722 102.305 111.163 111.865 111.163C121.425 111.163 122.525 117.3 128.795 115.6C136.33 113.555 132.865 102.881 148.23 102.881C160.93 102.881 161.245 79.5774 161.245 79.5774C161.245 75.7671 161.16 69.8761 161.16 69.8761C161.16 69.8761 134.845 90.5873 89.92 90.5873Z" fill="#0D9488"/>
<path d="M163.375 63.3685C163.375 84.7214 130.525 102.033 89.9997 102.033C49.4748 102.033 16.6248 84.7214 16.6248 63.3685C16.6248 42.0156 49.4748 24.7036 89.9997 24.7036C130.52 24.7036 163.375 42.0156 163.375 63.3685Z" fill="#2DD4BF"/>
<path d="M128.32 68.6179C125.295 68.6179 122.845 66.1612 122.845 63.128V24.7038C122.845 23.2478 123.422 21.8514 124.449 20.8218C125.475 19.7923 126.868 19.2139 128.32 19.2139C129.772 19.2139 131.165 19.7923 132.191 20.8218C133.218 21.8514 133.795 23.2478 133.795 24.7038V63.128C133.795 66.1612 131.345 68.6179 128.32 68.6179Z" fill="#FFF8E8"/>
<path d="M128.32 32.9365C122.51 32.9365 117.94 30.2692 116.095 25.8021C114.495 21.9266 113.7 13.5188 126.385 0.804308C126.639 0.54933 126.941 0.347053 127.273 0.209044C127.605 0.0710352 127.961 0 128.32 0C128.68 0 129.035 0.0710352 129.367 0.209044C129.699 0.347053 130.001 0.54933 130.255 0.804308C142.94 13.5238 142.145 21.9266 140.545 25.8021C138.7 30.2692 134.13 32.9365 128.32 32.9365Z" fill="#FAAA35"/>
<path d="M90 85.0826C86.975 85.0826 84.525 82.6259 84.525 79.5927V41.1735C84.525 40.4525 84.6666 39.7387 84.9418 39.0726C85.2169 38.4065 85.6202 37.8013 86.1286 37.2915C86.637 36.7818 87.2406 36.3774 87.9048 36.1015C88.5691 35.8256 89.281 35.6836 90 35.6836C90.719 35.6836 91.431 35.8256 92.0952 36.1015C92.7595 36.3774 93.363 36.7818 93.8714 37.2915C94.3798 37.8013 94.7831 38.4065 95.0583 39.0726C95.3334 39.7387 95.475 40.4525 95.475 41.1735V79.5977C95.475 82.6259 93.025 85.0826 90 85.0826Z" fill="#FFF8E8"/>
<path d="M90.0001 49.4062C84.1901 49.4062 79.6201 46.739 77.7751 42.2718C76.1701 38.3963 75.3801 29.9885 88.0651 17.274C88.3191 17.0191 88.6207 16.8168 88.9527 16.6788C89.2847 16.5408 89.6406 16.4697 90.0001 16.4697C90.3595 16.4697 90.7154 16.5408 91.0474 16.6788C91.3794 16.8168 91.681 17.0191 91.935 17.274C104.62 29.9935 103.825 38.3963 102.225 42.2718C100.38 46.739 95.8101 49.4062 90.0001 49.4062Z" fill="#FAAA35"/>
<path d="M51.68 68.6179C48.655 68.6179 46.205 66.1612 46.205 63.128V24.7038C46.205 23.9828 46.3466 23.2689 46.6217 22.6029C46.8969 21.9368 47.3001 21.3316 47.8085 20.8218C48.3169 20.312 48.9205 19.9077 49.5848 19.6318C50.249 19.3559 50.961 19.2139 51.68 19.2139C52.3989 19.2139 53.1109 19.3559 53.7751 19.6318C54.4394 19.9077 55.043 20.312 55.5514 20.8218C56.0598 21.3316 56.463 21.9368 56.7382 22.6029C57.0133 23.2689 57.155 23.9828 57.155 24.7038V63.128C57.155 66.1612 54.705 68.6179 51.68 68.6179Z" fill="#FFF8E8"/>
<path d="M51.68 32.9365C45.87 32.9365 41.3 30.2692 39.455 25.8021C37.85 21.9266 37.06 13.5188 49.745 0.804308C49.999 0.54933 50.3006 0.347053 50.6327 0.209044C50.9647 0.0710352 51.3206 0 51.68 0C52.0394 0 52.3953 0.0710352 52.7273 0.209044C53.0593 0.347053 53.361 0.54933 53.615 0.804308C66.3 13.5238 65.505 21.9266 63.905 25.8021C62.06 30.2692 57.49 32.9365 51.68 32.9365Z" fill="#FAAA35"/>
</svg>
