<svg width="30" height="30" viewBox="0 0 30 30" fill="none" xmlns="http://www.w3.org/2000/svg">
<path fill-rule="evenodd" clip-rule="evenodd" d="M29.8041 5.0141C29.9545 5.24253 30.0216 5.51591 29.9939 5.78806C29.9662 6.0602 29.8454 6.31446 29.652 6.50787L15.0911 21.0686C14.9421 21.2175 14.7563 21.3241 14.5525 21.3775L8.48773 22.9615C8.28726 23.0138 8.07659 23.0128 7.87665 22.9585C7.67671 22.9042 7.49444 22.7985 7.34794 22.652C7.20144 22.5055 7.0958 22.3232 7.04151 22.1233C6.98722 21.9233 6.98617 21.7126 7.03845 21.5121L8.62237 15.4483C8.66973 15.2667 8.75683 15.0979 8.87738 14.9541L23.4922 0.347449C23.7149 0.124966 24.0168 0 24.3316 0C24.6464 0 24.9484 0.124966 25.1711 0.347449L29.652 4.82718C29.7074 4.88554 29.7582 4.94802 29.8041 5.0141ZM27.132 5.66673L24.3316 2.86769L10.8398 16.3608L9.8499 20.1514L13.6402 19.1614L27.132 5.66673Z" fill="#14B8A6"/>
<path d="M27.1396 23.1844C27.5739 19.4791 27.7125 15.7453 27.5543 12.0181C27.5506 11.9303 27.5652 11.8426 27.5972 11.7607C27.6292 11.6788 27.6779 11.6044 27.7402 11.5423L29.3035 9.98157C29.3462 9.93868 29.4005 9.90902 29.4597 9.89615C29.5189 9.88328 29.5805 9.88775 29.6372 9.90903C29.6939 9.9303 29.7433 9.96747 29.7794 10.0161C29.8154 10.0647 29.8367 10.1226 29.8405 10.183C30.134 14.6102 30.0223 19.055 29.5069 23.4619C29.1319 26.6691 26.5518 29.183 23.3537 29.5399C17.8015 30.1534 12.1985 30.1534 6.6464 29.5399C3.44984 29.183 0.868122 26.6691 0.493178 23.4619C-0.164393 17.8398 -0.164393 12.1603 0.493178 6.53812C0.868122 3.33101 3.44825 0.817019 6.6464 0.460144C10.8605 -0.00451134 15.106 -0.117517 19.3389 0.122302C19.3995 0.126644 19.4575 0.148228 19.5062 0.184496C19.5549 0.220764 19.5921 0.270198 19.6135 0.326943C19.6349 0.383688 19.6396 0.445366 19.6269 0.504673C19.6143 0.563981 19.5849 0.618433 19.5423 0.66158L17.9646 2.235C17.903 2.29662 17.8292 2.34489 17.748 2.37682C17.6669 2.40875 17.58 2.42364 17.4928 2.42058C13.9606 2.2998 10.4243 2.43497 6.91172 2.82504C5.88529 2.93846 4.92714 3.39401 4.19203 4.11812C3.45692 4.84222 2.98779 5.79259 2.86041 6.81569C2.2231 12.2534 2.2231 17.7467 2.86041 23.1844C2.98779 24.2075 3.45692 25.1578 4.19203 25.8819C4.92714 26.606 5.88529 27.0616 6.91172 27.175C12.242 27.7698 17.7581 27.7698 23.0899 27.175C24.1164 27.0616 25.0745 26.606 25.8096 25.8819C26.5447 25.1578 27.0123 24.2075 27.1396 23.1844Z" fill="#14B8A6"/>
</svg>
