<svg width="134" height="111" viewBox="0 0 134 111" fill="none" xmlns="http://www.w3.org/2000/svg">
<path d="M52.185 3.86605C62.3451 -0.302582 75.3014 -0.68045 85.8847 2.89569C96.468 6.47182 108.375 12.3454 110.497 20.6675C111.531 24.7153 111.404 29.2073 114.95 32.4328C117.523 34.7816 121.564 35.9848 124.742 37.9043C127.919 39.8239 130.237 43.2852 127.897 45.764C126.918 46.7978 125.283 47.4538 124.436 48.5481C122.32 51.2687 126.193 54.6242 129.164 56.3926C130.555 57.2209 131.734 58.2336 132.432 59.4367C136.059 65.6761 123.363 66.719 123.711 71.4771C123.928 74.367 129.152 76.0901 129.231 78.983C129.348 83.0096 119.923 84.2641 119.624 88.2876C119.37 91.7277 126.253 94.2428 124.841 97.5318C124.119 99.2125 121.501 100.026 119.098 100.358C117.61 100.567 116.042 100.688 114.606 101.011C112.541 101.477 110.978 102.628 110.31 104.116C108.823 107.384 113.003 109.702 116.698 109.744C111.994 109.354 107.196 108.487 103.484 106.359C99.7721 104.231 97.4172 100.588 98.7231 97.2899C99.7116 94.8021 102.626 92.6497 102.32 90.0682C101.9 86.5555 96.1687 85.0108 92.6682 82.5622C88.2275 79.4546 87.4264 73.9861 90.8544 70.2709C92.8737 68.0914 96.2776 66.1869 96.0599 63.563C95.7969 60.3829 90.2468 58.4936 89.8629 55.3165C89.5606 52.8437 92.4838 50.8758 94.9263 49.1285C97.3688 47.3812 99.6995 44.7755 98.0762 42.5838C97.0393 41.1842 94.7359 40.5464 93.3272 39.3281C90.2649 36.674 92.4747 32.7442 93.4602 29.3524C94.9203 24.422 89.0013 20.3441 83.5329 17.2305C81.4531 16.0455 78.941 16.118 76.4078 16.8314C69.0016 18.9173 60.9908 19.0865 53.3125 17.6174C51.5592 17.2818 49.9027 17.3363 48.4758 18.0678C43.6905 20.4862 37.8744 20.4862 38.8024 24.676C39.4856 27.717 41.8707 30.749 40.6676 33.7055C39.3133 37.0307 33.8448 38.92 32.9259 42.3239C31.7832 46.556 38.3248 50.4223 37.1096 54.6423C36.242 57.6653 31.6985 59.5274 30.6345 62.502C28.9991 67.0787 36.2209 71.5013 34.6187 76.084C33.3007 79.8506 26.8286 81.4195 24.4133 84.8868C22.9713 86.9606 23.2041 89.4364 23.8994 91.7005C24.5946 93.9647 25.7827 96.1563 26.1605 98.4629C26.5384 100.769 25.9912 103.3 23.7422 104.956C21.4931 106.613 17.2156 106.839 15.2507 105.008C18.0893 104.814 19.238 101.951 17.8928 100.128C16.5476 98.3057 13.7695 97.3383 11.1849 96.4314C8.60028 95.5246 5.87056 94.4816 4.69766 92.5953C1.94074 88.1637 9.77015 83.3119 8.10754 78.5961C6.85906 75.0442 0.619721 72.9885 0.456482 69.3248C0.302312 65.8302 5.81313 63.427 6.40562 59.9688C7.13113 55.7155 0.199532 52.2572 0.9069 48.0009C1.7503 42.9889 12.1976 41.3263 13.4128 36.3536C14.4436 32.1728 8.16195 28.113 10.1692 24.1137C12.0525 20.3652 16.5174 13.1858 21.1334 14.4403C24.4858 15.323 25.4743 14.2075 26.0154 11.7892C26.88 7.94702 32.0885 6.65018 36.7529 4.70643C41.4173 2.76268 47.2969 2.47852 52.185 3.86605Z" fill="#26221D" stroke="#050505" stroke-miterlimit="10"/>
<path d="M108.611 33.8325C110.461 35.1626 112.335 36.5139 113.641 38.1493C114.947 39.7847 115.633 41.7768 114.935 43.5906C114.01 45.9938 110.809 47.865 110.782 50.3619C110.748 53.6297 116.132 55.8032 116.571 59.0468C117.175 63.4513 108.641 66.2354 108.711 70.661C108.75 72.9161 111.042 74.7571 112.689 76.6676C114.337 78.578 115.25 81.3622 112.952 82.8827" stroke="#19191B" stroke-miterlimit="10"/>
<path d="M108.883 61.208C106.129 64.4577 103.261 68.1366 104.379 71.8639C105.111 74.3034 107.447 76.2955 109.095 78.4871C110.742 80.6788 111.628 83.5687 109.536 85.5517" stroke="#19191B" stroke-miterlimit="10"/>
<path d="M24.4284 45.2109C19.2894 49.6516 18.5367 56.4925 22.657 61.4623C24.2168 63.3455 26.4931 65.2712 25.9278 67.4295C25.5288 68.941 23.8117 70.0716 22.4877 71.2959C18.6909 74.8448 18.2556 80.1047 21.4841 83.9469" stroke="#19191B" stroke-miterlimit="10"/>
<path d="M19.2138 64.2524C20.7525 65.6611 20.3867 67.7379 19.3348 69.3642C18.2828 70.9906 16.6534 72.4023 15.7193 74.0619C14.5555 76.1507 14.5918 78.5116 15.2598 80.7123C15.9279 82.913 17.1915 84.9898 18.449 87.0605" stroke="#19191B" stroke-miterlimit="10"/>
<path d="M102.278 53.6659C102.472 54.473 107.444 24.8452 89.2794 14.1742C76.4289 6.6169 53.5393 7.66888 41.5956 12.1489C19.5886 20.3985 21.5475 32.2544 21.5384 35.9273C21.5384 36.2961 21.4205 54.0226 21.4961 53.6599C32.5389 1.64416 89.5515 0.359419 102.278 53.6659Z" fill="#A0181A" stroke="#050505" stroke-miterlimit="10"/>
</svg>
