<svg width="69" height="108" viewBox="0 0 69 108" fill="none" xmlns="http://www.w3.org/2000/svg">
<path d="M69 35.1816C69 16.1125 53.5691 0.681641 34.5 0.681641C15.4309 0.681641 0 16.1125 0 35.1816C0 52.118 12.1691 66.1062 28.2273 69.0544V82.2271H15.6818V94.7725H28.2273V107.318H40.7727V94.7725H53.3182V82.2271H40.7727V69.0544C56.8309 66.1062 69 52.118 69 35.1816ZM12.5455 35.1816C12.5455 23.0753 22.3936 13.2271 34.5 13.2271C46.6064 13.2271 56.4545 23.0753 56.4545 35.1816C56.4545 47.288 46.6064 57.1362 34.5 57.1362C22.3936 57.1362 12.5455 47.288 12.5455 35.1816Z" fill="#595858" fill-opacity="0.5"/>
</svg>
