<svg width="71" height="119" viewBox="0 0 71 119" fill="none" xmlns="http://www.w3.org/2000/svg">
<path d="M65.1715 47.1908C45.867 53.5479 25.1305 54.1467 5.49162 48.9144L2.86975 48.2157C2.35734 48.097 1.90642 47.794 1.60267 47.3644C1.29891 46.9348 1.16351 46.4085 1.2222 45.8856L6.49939 6.70018C6.65411 5.61251 23.5896 3.17361 24.773 3.2029L47.6506 3.981C48.7754 4.01028 60.1703 4.86787 60.3292 5.89698L66.6769 44.8774C66.7423 45.3792 66.6267 45.8879 66.3507 46.3119C66.0748 46.736 65.6566 47.0477 65.1715 47.1908Z" fill="#A0181A" stroke="#050505" stroke-miterlimit="10"/>
<path d="M33.5293 12.8203C48.4575 12.8203 60.5592 10.0727 60.5592 6.68336C60.5592 3.294 48.4575 0.546387 33.5293 0.546387C18.6011 0.546387 6.49939 3.294 6.49939 6.68336C6.49939 10.0727 18.6011 12.8203 33.5293 12.8203Z" fill="#B51A1F" stroke="#020202" stroke-miterlimit="10"/>
<path d="M56.8836 9.36082C54.5586 8.94248 46.8059 5.73385 37.9576 5.73385H37.7987C37.4224 5.0687 36.4104 4.5918 35.2145 4.5918C33.6966 4.5918 32.4672 5.35735 32.4672 6.30279C32.4672 7.24822 33.6966 8.00959 35.2145 8.00959C35.9584 8.02756 36.6894 7.81256 37.3053 7.39464L50.1094 11.9461L56.2312 57.7162L58.1339 55.3358L61.0903 56.0595L62.2653 54.7209L64.6948 55.5575V53.1772L66.702 54.6247C66.702 54.6247 59.2044 9.77497 56.8836 9.36082Z" fill="#19191B"/>
<path d="M65.5897 100.24C64.3059 100.344 68.6799 102.599 65.0586 105.41C60.0616 109.284 51.7528 96.0522 42.6745 97.7213C41.3771 97.9589 40.1395 98.4508 39.0328 99.1687C37.9262 99.8867 36.9725 100.816 36.2265 101.905C35.4809 100.817 34.5278 99.8874 33.422 99.1695C32.3161 98.4515 31.0793 97.9594 29.7826 97.7213C20.7002 96.048 12.3913 109.284 7.39428 105.41C3.77301 102.599 8.14697 100.344 6.8674 100.24C1.87874 99.8214 -2.18996 110.301 7.88353 115.919C16.4307 120.684 25.1117 119.073 29.9206 116.337C31.6978 115.333 34.0478 113.944 36.2265 112.752C38.4093 113.944 40.7593 115.333 42.5323 116.337C47.3453 119.061 56.0222 120.671 64.5694 115.919C74.6429 110.301 70.5867 99.8297 65.5897 100.24Z" fill="black"/>
</svg>
