<svg width="100" height="100" viewBox="0 0 100 100" fill="none" xmlns="http://www.w3.org/2000/svg">
<path d="M34.375 43.75C46.4375 43.75 56.25 53.5625 56.25 65.625C56.25 77.6875 46.4375 87.5 34.375 87.5C22.3125 87.5 12.5 77.6875 12.5 65.625C12.5 53.5625 22.3125 43.75 34.375 43.75ZM34.375 31.25C15.375 31.25 0 46.625 0 65.625C0 84.625 15.375 100 34.375 100C53.375 100 68.75 84.625 68.75 65.625C68.75 58.375 66.5 51.6875 62.6875 46.125L87.5 21.375V37.5H100V0H62.5V12.5H78.625L53.8125 37.3125C48.3125 33.5 41.625 31.25 34.375 31.25Z" fill="#595858" fill-opacity="0.5"/>
</svg>
